<?xml version="1.0" encoding="UTF-8" standalone="no"?>
<!DOCTYPE svg PUBLIC "-//W3C//DTD SVG 1.1//EN" "http://www.w3.org/Graphics/SVG/1.1/DTD/svg11.dtd">
<svg xmlns="http://www.w3.org/2000/svg" version="1.1" viewBox="0.00 0.00 1062.00 888.00">
<g stroke-width="2.00" fill="none" stroke-linecap="butt">
<path stroke="#eec4aa" vector-effect="non-scaling-stroke" d="
  M 162.07 405.98
  Q 159.01 407.34 158.06 408.30
  C 142.65 423.82 131.55 444.45 124.51 464.99
  C 115.93 490.05 118.43 518.95 134.48 541.25"
/>
<path stroke="#fac9a8" vector-effect="non-scaling-stroke" d="
  M 134.48 541.25
  L 135.48 543.12"
/>
<path stroke="#fff1b6" vector-effect="non-scaling-stroke" d="
  M 135.48 543.12
  Q 132.25 553.28 132.24 562.75
  Q 132.19 608.53 147.80 651.93
  Q 147.95 652.35 147.65 652.69
  Q 146.66 653.83 147.63 655.80"
/>
<path stroke="#f4e8ae" vector-effect="non-scaling-stroke" d="
  M 147.63 655.80
  C 159.86 718.12 208.38 765.27 261.21 796.02
  C 338.22 840.86 429.86 860.09 518.39 856.62"
/>
<path stroke="#fff1b6" vector-effect="non-scaling-stroke" d="
  M 518.39 856.62
  Q 520.39 856.82 523.24 856.71
  C 602.14 853.42 680.30 830.43 745.91 786.14
  Q 748.38 784.47 750.79 782.51"
/>
<path stroke="#f4e8ae" vector-effect="non-scaling-stroke" d="
  M 750.79 782.51
  Q 818.79 734.22 860.36 661.61"
/>
<path stroke="#fff1b6" vector-effect="non-scaling-stroke" d="
  M 860.36 661.61
  C 865.23 661.78 875.60 634.58 877.21 629.95"
/>
<path stroke="#f4e8ae" vector-effect="non-scaling-stroke" d="
  M 877.21 629.95
  Q 888.52 602.86 892.44 591.94
  Q 906.30 553.34 914.02 512.61"
/>
<path stroke="#fff1b6" vector-effect="non-scaling-stroke" d="
  M 914.02 512.61
  C 919.93 489.26 926.55 464.22 928.33 440.51
  C 928.56 437.43 928.18 433.87 925.63 431.54
  C 911.46 418.58 894.34 409.36 876.49 402.52
  C 836.05 387.01 792.19 378.39 749.25 373.54
  C 727.01 371.03 704.62 368.93 682.26 368.47"
/>
<path stroke="#f4e8ae" vector-effect="non-scaling-stroke" d="
  M 682.26 368.47
  Q 681.92 368.13 682.09 367.74
  Q 682.29 367.31 682.31 367.23
  C 701.68 277.78 674.58 187.37 609.60 123.23"
/>
<path stroke="#fff1b6" vector-effect="non-scaling-stroke" d="
  M 609.60 123.23
  C 588.33 101.41 571.67 85.92 546.83 70.50
  Q 478.27 27.93 397.06 31.53
  C 264.77 37.41 157.38 141.68 148.07 274.02
  Q 147.46 282.75 147.42 294.00
  C 147.26 331.91 150.29 369.70 162.07 405.98"
/>
<path stroke="#f4d965" vector-effect="non-scaling-stroke" d="
  M 609.60 123.23
  L 609.39 123.69
  Q 609.18 124.17 609.52 124.57
  C 685.84 215.15 691.58 346.52 623.49 442.98
  C 573.83 513.35 496.23 553.64 410.00 554.68
  Q 369.47 555.18 331.07 551.06"
/>
<path stroke="#fabb5f" vector-effect="non-scaling-stroke" d="
  M 331.07 551.06
  C 338.21 547.18 344.40 544.11 347.48 537.62
  Q 347.69 537.19 347.56 536.73
  Q 346.98 534.65 345.96 533.54
  C 333.47 519.94 320.16 507.31 306.82 494.57
  C 291.89 480.30 275.66 463.71 262.32 451.93
  C 249.48 440.59 234.77 428.96 219.34 421.40"
/>
<path stroke="#eeb561" vector-effect="non-scaling-stroke" d="
  M 219.34 421.40
  Q 204.49 414.41 189.06 409.19
  C 180.29 406.22 170.89 404.02 162.07 405.98"
/>
<path stroke="#e98e52" vector-effect="non-scaling-stroke" d="
  M 219.34 421.40
  Q 217.08 422.56 216.41 424.93
  Q 209.10 450.74 194.89 473.80
  C 186.22 487.86 177.43 496.68 164.22 506.47
  Q 150.08 516.95 143.82 522.08
  Q 135.77 528.67 134.48 541.25"
/>
<path stroke="#f4d965" vector-effect="non-scaling-stroke" d="
  M 682.26 368.47
  Q 681.82 368.81 681.80 369.24
  Q 681.78 369.72 681.76 369.78
  C 656.37 474.37 573.71 551.26 467.64 569.03
  C 448.06 572.31 428.80 572.55 408.19 572.06
  Q 374.63 571.27 349.75 568.76
  Q 329.78 566.74 307.69 559.99"
/>
<path stroke="#efb257" vector-effect="non-scaling-stroke" d="
  M 307.69 559.99
  L 331.07 551.06"
/>
<path stroke="#f4d965" vector-effect="non-scaling-stroke" d="
  M 914.02 512.61
  Q 911.35 515.83 909.24 519.47
  Q 905.58 525.76 905.51 525.88
  Q 867.77 585.43 824.87 641.38
  Q 813.09 656.74 799.93 670.93
  C 790.66 680.93 783.38 686.09 770.20 689.33
  Q 741.46 696.40 712.02 692.78
  C 682.36 689.14 666.27 660.29 653.44 636.81
  A 0.66 0.66 0.0 0 0 652.22 637.00
  Q 647.46 661.21 645.70 686.26
  C 643.92 711.48 659.74 734.54 676.71 751.38
  Q 677.38 752.04 676.47 752.31
  C 601.85 773.83 523.62 789.77 446.00 792.30
  C 384.08 794.32 324.12 774.93 269.95 746.35
  C 233.51 727.11 199.01 704.99 167.94 677.81
  C 162.65 673.19 152.40 663.54 148.92 655.76
  Q 148.71 655.29 148.21 655.42
  Q 147.92 655.50 147.63 655.80"
/>
<path stroke="#fabb5f" vector-effect="non-scaling-stroke" d="
  M 135.48 543.12
  Q 137.66 548.77 141.82 551.67
  C 166.71 569.00 191.38 578.90 221.94 576.65
  Q 256.78 574.08 291.74 564.88
  Q 294.87 564.06 299.70 562.44
  Q 304.03 560.99 307.69 559.99"
/>
<path stroke="#f4d965" vector-effect="non-scaling-stroke" d="
  M 877.21 629.95
  L 860.36 661.61"
/>
<path stroke="#f4d965" vector-effect="non-scaling-stroke" d="
  M 750.79 782.51
  C 749.40 783.03 747.70 783.31 746.52 784.10
  C 685.39 825.24 613.47 848.78 540.25 854.25
  C 535.83 854.58 532.24 855.41 527.74 855.26
  Q 522.77 855.09 518.39 856.62"
/>
<path stroke="#918145" vector-effect="non-scaling-stroke" d="
  M 170.10 357.93
  C 173.93 359.11 177.39 351.82 178.72 348.74
  Q 180.09 345.52 180.36 336.50
  C 180.67 326.05 180.92 278.94 163.70 279.27
  C 159.38 279.35 158.16 282.02 157.29 285.76
  C 152.60 305.98 154.41 327.13 161.51 346.48
  C 162.78 349.95 166.31 356.76 170.10 357.93"
/>
<path stroke="#918145" vector-effect="non-scaling-stroke" d="
  M 312.86 437.92
  C 318.52 450.88 331.44 459.93 345.08 462.17
  C 368.81 466.07 391.38 449.06 389.94 424.33
  C 388.83 405.45 372.91 392.99 355.93 388.09
  C 326.71 379.66 300.84 410.45 312.86 437.92"
/>
<path stroke="#918f8e" vector-effect="non-scaling-stroke" d="
  M 168.21 297.02
  C 167.47 294.84 165.23 294.09 163.44 295.68
  A 1.37 1.34 74.7 0 0 162.99 296.49
  C 162.08 302.47 162.35 313.99 167.46 318.32
  A 0.84 0.83 -57.1 0 0 168.75 318.04
  C 171.62 312.16 170.25 302.95 168.21 297.02"
/>
<path stroke="#918f8e" vector-effect="non-scaling-stroke" d="
  M 338.94 421.06
  Q 345.27 426.10 351.45 421.70
  Q 357.41 417.45 355.71 411.06
  C 353.25 401.82 338.90 399.19 334.94 408.74
  C 332.89 413.69 334.96 417.90 338.94 421.06"
/>
</g>

<g>
<path fill="#ffe26d" d="
  M 609.60 123.23
  L 609.39 123.69
  Q 609.18 124.17 609.52 124.57
  C 685.84 215.15 691.58 346.52 623.49 442.98
  C 573.83 513.35 496.23 553.64 410.00 554.68
  Q 369.47 555.18 331.07 551.06
  C 338.21 547.18 344.40 544.11 347.48 537.62
  Q 347.69 537.19 347.56 536.73
  Q 346.98 534.65 345.96 533.54
  C 333.47 519.94 320.16 507.31 306.82 494.57
  C 291.89 480.30 275.66 463.71 262.32 451.93
  C 249.48 440.59 234.77 428.96 219.34 421.40
  Q 204.49 414.41 189.06 409.19
  C 180.29 406.22 170.89 404.02 162.07 405.98
  C 150.29 369.70 147.26 331.91 147.42 294.00
  Q 147.46 282.75 148.07 274.02
  C 157.38 141.68 264.77 37.41 397.06 31.53
  Q 478.27 27.93 546.83 70.50
  C 571.67 85.92 588.33 101.41 609.60 123.23
  Z
  M 170.10 357.93
  C 173.93 359.11 177.39 351.82 178.72 348.74
  Q 180.09 345.52 180.36 336.50
  C 180.67 326.05 180.92 278.94 163.70 279.27
  C 159.38 279.35 158.16 282.02 157.29 285.76
  C 152.60 305.98 154.41 327.13 161.51 346.48
  C 162.78 349.95 166.31 356.76 170.10 357.93
  Z
  M 312.86 437.92
  C 318.52 450.88 331.44 459.93 345.08 462.17
  C 368.81 466.07 391.38 449.06 389.94 424.33
  C 388.83 405.45 372.91 392.99 355.93 388.09
  C 326.71 379.66 300.84 410.45 312.86 437.92
  Z"
/>
<path fill="#e9d05d" d="
  M 609.60 123.23
  C 674.58 187.37 701.68 277.78 682.31 367.23
  Q 682.29 367.31 682.09 367.74
  Q 681.92 368.13 682.26 368.47
  Q 681.82 368.81 681.80 369.24
  Q 681.78 369.72 681.76 369.78
  C 656.37 474.37 573.71 551.26 467.64 569.03
  C 448.06 572.31 428.80 572.55 408.19 572.06
  Q 374.63 571.27 349.75 568.76
  Q 329.78 566.74 307.69 559.99
  L 331.07 551.06
  Q 369.47 555.18 410.00 554.68
  C 496.23 553.64 573.83 513.35 623.49 442.98
  C 691.58 346.52 685.84 215.15 609.52 124.57
  Q 609.18 124.17 609.39 123.69
  L 609.60 123.23
  Z"
/>
<path fill="#ffe26d" d="
  M 914.02 512.61
  Q 911.35 515.83 909.24 519.47
  Q 905.58 525.76 905.51 525.88
  Q 867.77 585.43 824.87 641.38
  Q 813.09 656.74 799.93 670.93
  C 790.66 680.93 783.38 686.09 770.20 689.33
  Q 741.46 696.40 712.02 692.78
  C 682.36 689.14 666.27 660.29 653.44 636.81
  A 0.66 0.66 0.0 0 0 652.22 637.00
  Q 647.46 661.21 645.70 686.26
  C 643.92 711.48 659.74 734.54 676.71 751.38
  Q 677.38 752.04 676.47 752.31
  C 601.85 773.83 523.62 789.77 446.00 792.30
  C 384.08 794.32 324.12 774.93 269.95 746.35
  C 233.51 727.11 199.01 704.99 167.94 677.81
  C 162.65 673.19 152.40 663.54 148.92 655.76
  Q 148.71 655.29 148.21 655.42
  Q 147.92 655.50 147.63 655.80
  Q 146.66 653.83 147.65 652.69
  Q 147.95 652.35 147.80 651.93
  Q 132.19 608.53 132.24 562.75
  Q 132.25 553.28 135.48 543.12
  Q 137.66 548.77 141.82 551.67
  C 166.71 569.00 191.38 578.90 221.94 576.65
  Q 256.78 574.08 291.74 564.88
  Q 294.87 564.06 299.70 562.44
  Q 304.03 560.99 307.69 559.99
  Q 329.78 566.74 349.75 568.76
  Q 374.63 571.27 408.19 572.06
  C 428.80 572.55 448.06 572.31 467.64 569.03
  C 573.71 551.26 656.37 474.37 681.76 369.78
  Q 681.78 369.72 681.80 369.24
  Q 681.82 368.81 682.26 368.47
  C 704.62 368.93 727.01 371.03 749.25 373.54
  C 792.19 378.39 836.05 387.01 876.49 402.52
  C 894.34 409.36 911.46 418.58 925.63 431.54
  C 928.18 433.87 928.56 437.43 928.33 440.51
  C 926.55 464.22 919.93 489.26 914.02 512.61
  Z"
/>
<path fill="#dc8854" d="
  M 219.34 421.40
  Q 217.08 422.56 216.41 424.93
  Q 209.10 450.74 194.89 473.80
  C 186.22 487.86 177.43 496.68 164.22 506.47
  Q 150.08 516.95 143.82 522.08
  Q 135.77 528.67 134.48 541.25
  C 118.43 518.95 115.93 490.05 124.51 464.99
  C 131.55 444.45 142.65 423.82 158.06 408.30
  Q 159.01 407.34 162.07 405.98
  C 170.89 404.02 180.29 406.22 189.06 409.19
  Q 204.49 414.41 219.34 421.40
  Z"
/>
<path fill="#f59350" d="
  M 219.34 421.40
  C 234.77 428.96 249.48 440.59 262.32 451.93
  C 275.66 463.71 291.89 480.30 306.82 494.57
  C 320.16 507.31 333.47 519.94 345.96 533.54
  Q 346.98 534.65 347.56 536.73
  Q 347.69 537.19 347.48 537.62
  C 344.40 544.11 338.21 547.18 331.07 551.06
  L 307.69 559.99
  Q 304.03 560.99 299.70 562.44
  Q 294.87 564.06 291.74 564.88
  Q 256.78 574.08 221.94 576.65
  C 191.38 578.90 166.71 569.00 141.82 551.67
  Q 137.66 548.77 135.48 543.12
  L 134.48 541.25
  Q 135.77 528.67 143.82 522.08
  Q 150.08 516.95 164.22 506.47
  C 177.43 496.68 186.22 487.86 194.89 473.80
  Q 209.10 450.74 216.41 424.93
  Q 217.08 422.56 219.34 421.40
  Z"
/>
<path fill="#e9d05d" d="
  M 914.02 512.61
  Q 906.30 553.34 892.44 591.94
  Q 888.52 602.86 877.21 629.95
  L 860.36 661.61
  Q 818.79 734.22 750.79 782.51
  C 749.40 783.03 747.70 783.31 746.52 784.10
  C 685.39 825.24 613.47 848.78 540.25 854.25
  C 535.83 854.58 532.24 855.41 527.74 855.26
  Q 522.77 855.09 518.39 856.62
  C 429.86 860.09 338.22 840.86 261.21 796.02
  C 208.38 765.27 159.86 718.12 147.63 655.80
  Q 147.92 655.50 148.21 655.42
  Q 148.71 655.29 148.92 655.76
  C 152.40 663.54 162.65 673.19 167.94 677.81
  C 199.01 704.99 233.51 727.11 269.95 746.35
  C 324.12 774.93 384.08 794.32 446.00 792.30
  C 523.62 789.77 601.85 773.83 676.47 752.31
  Q 677.38 752.04 676.71 751.38
  C 659.74 734.54 643.92 711.48 645.70 686.26
  Q 647.46 661.21 652.22 637.00
  A 0.66 0.66 0.0 0 1 653.44 636.81
  C 666.27 660.29 682.36 689.14 712.02 692.78
  Q 741.46 696.40 770.20 689.33
  C 783.38 686.09 790.66 680.93 799.93 670.93
  Q 813.09 656.74 824.87 641.38
  Q 867.77 585.43 905.51 525.88
  Q 905.58 525.76 909.24 519.47
  Q 911.35 515.83 914.02 512.61
  Z"
/>
<path fill="#ffe26d" d="
  M 877.21 629.95
  C 875.60 634.58 865.23 661.78 860.36 661.61
  L 877.21 629.95
  Z"
/>
<path fill="#ffe26d" d="
  M 750.79 782.51
  Q 748.38 784.47 745.91 786.14
  C 680.30 830.43 602.14 853.42 523.24 856.71
  Q 520.39 856.82 518.39 856.62
  Q 522.77 855.09 527.74 855.26
  C 532.24 855.41 535.83 854.58 540.25 854.25
  C 613.47 848.78 685.39 825.24 746.52 784.10
  C 747.70 783.31 749.40 783.03 750.79 782.51
  Z"
/>
</g>
<g>
<path fill="#231f1d" d="
  M 170.10 357.93
  C 166.31 356.76 162.78 349.95 161.51 346.48
  C 154.41 327.13 152.60 305.98 157.29 285.76
  C 158.16 282.02 159.38 279.35 163.70 279.27
  C 180.92 278.94 180.67 326.05 180.36 336.50
  Q 180.09 345.52 178.72 348.74
  C 177.39 351.82 173.93 359.11 170.10 357.93
  Z
  M 168.21 297.02
  C 167.47 294.84 165.23 294.09 163.44 295.68
  A 1.37 1.34 74.7 0 0 162.99 296.49
  C 162.08 302.47 162.35 313.99 167.46 318.32
  A 0.84 0.83 -57.1 0 0 168.75 318.04
  C 171.62 312.16 170.25 302.95 168.21 297.02
  Z"
/>
<path fill="#231f1d" d="
  M 345.08 462.17
  C 331.44 459.93 318.52 450.88 312.86 437.92
  C 300.84 410.45 326.71 379.66 355.93 388.09
  C 372.91 392.99 388.83 405.45 389.94 424.33
  C 391.38 449.06 368.81 466.07 345.08 462.17
  Z
  M 338.94 421.06
  Q 345.27 426.10 351.45 421.70
  Q 357.41 417.45 355.71 411.06
  C 353.25 401.82 338.90 399.19 334.94 408.74
  C 332.89 413.69 334.96 417.90 338.94 421.06
  Z"
/>
</g>
<g>
<path fill="#ffffff" d="
  M 163.44 295.68
  C 165.23 294.09 167.47 294.84 168.21 297.02
  C 170.25 302.95 171.62 312.16 168.75 318.04
  A 0.84 0.83 -57.1 0 1 167.46 318.32
  C 162.35 313.99 162.08 302.47 162.99 296.49
  A 1.37 1.34 74.7 0 1 163.44 295.68
  Z"
/>
<path fill="#ffffff" d="
  M 338.94 421.06
  C 334.96 417.90 332.89 413.69 334.94 408.74
  C 338.90 399.19 353.25 401.82 355.71 411.06
  Q 357.41 417.45 351.45 421.70
  Q 345.27 426.10 338.94 421.06
  Z"
/>
</g>
</svg>
