<svg xmlns="http://www.w3.org/2000/svg" xml:space="preserve" fill-rule="evenodd" stroke-linejoin="round" stroke-miterlimit="2" clip-rule="evenodd" viewBox="0 0 225 225">
  <g fill="#3d3c38">
    <path fill-rule="nonzero" d="M158.48 97.07a.48.48 0 0 0-.76-.25c-12.97 9.95-26.92 14.84-43.77 13-2.08-.227-3.313-1.163-3.7-2.81-.087-.353-.04-.69.14-1.01.807-1.467 1.49-2.487 2.05-3.06 6.28-6.47 10.6-11.98 10.57-20.53-.05-13.6-11.98-21.54-24.75-18.78-8.133 1.76-14.37 6.527-18.71 14.3a.862.862 0 0 0 .05.91c1.58 2.17 8.07 9.27 6.47 13.07-1.96 4.69-9.64 5.07-13.63 3.69-6.507-2.233-11.23-6.437-14.17-12.61-1.75-3.65-.52-8.84 4.47-8.17 4.55.61 11.2.24 14.42-3.54 4.6-5.37 9.35-9.67 16.09-11.95 29.89-10.14 47 24.22 25.65 44.75a.511.511 0 0 0 .35.88c15.9.06 26.88-6.28 39.13-15.61a2.268 2.268 0 0 1 3.49.97c11.79 30.25 6.58 67.75-30.88 75.45-15.907 3.267-31.19 1.527-45.85-5.22-9.39-4.32-18.37-12.33-20.72-22.33-3.42-14.55 5.72-27.13 15.66-36.36a2.136 2.136 0 0 1 3.21.38c1.093 1.64.953 3.183-.42 4.63-4.52 4.78-8.49 8.36-11.47 15.06-6.69 15.07 2.67 27.41 15.94 33.72 16.59 7.89 39.12 9.39 55.53-.12 22.04-12.78 21.48-36.9 15.61-58.46ZM63.55 80.28a.332.332 0 0 0-.33.48c2.86 5.61 9.82 11.66 16.79 9.61a.762.762 0 0 0 .35-1.24 35.308 35.308 0 0 1-6.06-9.03c-.16-.347-.423-.473-.79-.38-3.28.78-6.6.967-9.96.56Z"/>
    <circle cx="95.27" cy="78.86" r="4.16"/>
  </g>
</svg>
