<?xml version="1.0" encoding="UTF-8" standalone="no"?>
<!DOCTYPE svg PUBLIC "-//W3C//DTD SVG 1.1//EN" "http://www.w3.org/Graphics/SVG/1.1/DTD/svg11.dtd">
<svg width="100%" height="100%" viewBox="0 0 600 600" version="1.1" xmlns="http://www.w3.org/2000/svg" xmlns:xlink="http://www.w3.org/1999/xlink" xml:space="preserve" xmlns:serif="http://www.serif.com/" style="fill-rule:evenodd;clip-rule:evenodd;stroke-linejoin:round;stroke-miterlimit:2;">
    <path d="M545.831,343.857C539.66,376.794 529.597,405.446 516.525,430.147C514.077,435.809 505.919,448.62 502.795,453.094C381.777,632.695 81.635,562.665 63.49,431.169C63.518,431.326 55.001,394.693 54.715,380.199C54.401,364.182 59.934,352.623 75.736,342.729C148.651,297.074 285.026,256.507 363.662,254.636C443.663,252.733 527.395,268.118 553.553,295.506C556.185,298.262 545.831,343.857 545.831,343.857Z" style="fill:rgb(255,226,95);fill-rule:nonzero;"/>
    <g transform="matrix(-1,0,0,1,926.857,-158.305)">
        <path d="M381.026,502.162C382.393,507.365 444.494,601.603 462.01,611.064C478.206,619.812 505.314,617.812 510.542,616.776C528.886,613.143 537.613,593.761 545.41,581.332C545.963,580.452 549.845,605.446 550.043,615.787C550.417,635.382 529.812,654.184 529.812,654.184C529.812,654.184 623.478,688.412 691.268,682.71C766.908,676.348 860.758,603.824 863.367,589.474C842.248,742.518 439.136,812.302 381.026,502.162Z" style="fill:rgb(233,208,78);fill-rule:nonzero;"/>
    </g>
    <g transform="matrix(-1.00108,0,0,1.00108,948.54,-153.962)">
        <path d="M708.196,208C798.819,208 872.393,281.574 872.393,372.196C872.393,412.917 867.527,450.195 842.945,478.903C826.237,498.415 811.951,517.964 785.128,527.947C763.59,535.963 730.421,536.393 708.196,536.393C617.574,536.393 544,462.819 544,372.196C544,281.574 617.574,208 708.196,208Z" style="fill:rgb(233,208,78);"/>
    </g>
    <g transform="matrix(-1.00108,0,0,1.00108,937.54,-164.962)">
        <path d="M708.196,208C798.819,208 872.393,281.574 872.393,372.196C872.393,412.917 867.527,450.195 842.945,478.903C826.237,498.415 811.951,517.964 785.128,527.947C763.59,535.963 730.421,536.393 708.196,536.393C617.574,536.393 544,462.819 544,372.196C544,281.574 617.574,208 708.196,208Z" style="fill:rgb(255,226,95);"/>
    </g>
    <path d="M93.898,384.904C97.68,385.665 101.567,385.924 105.425,385.932L105.892,385.932C118.414,385.892 139.54,382.3 151.604,379.171C157.546,377.629 163.273,375.351 169.058,373.298C174.696,371.296 186.697,368.286 189.762,361.355C190.327,360.078 187.794,357.654 187.228,357.042C185.175,354.823 183.179,352.547 181.031,350.421C176.135,345.573 171.104,340.864 166.103,336.125C146.709,317.747 125.418,293.176 99.189,283.861C93.784,281.942 76.685,274.416 70.837,280.222C63.056,287.947 58.883,295.546 53.982,305.347C40.119,333.714 45.895,365.263 75.749,379.157C81.502,381.834 87.68,383.636 93.898,384.904Z" style="fill:rgb(221,136,77);fill-rule:nonzero;"/>
    <g transform="matrix(-1,0,0,1,926.857,-158.305)">
        <path d="M816.657,447.007C819.522,445.574 820.033,452.074 820.307,452.795C825.47,466.369 827.94,472.461 836.024,484.59C843.275,495.467 855.239,501.739 864.979,509.906C870.778,514.769 873.261,524.181 865.337,528.977C855.589,534.877 845.246,541.271 832.959,543.209C816.096,545.87 789.419,540.665 775.512,537.543C764.936,535.169 749.785,529.104 740.45,523.719C738.816,522.777 737.986,521.322 737.094,519.66C736.453,518.466 739.139,515.877 739.629,515.347C741.681,513.128 743.677,510.853 745.825,508.726C750.721,503.878 755.683,499.095 760.754,494.43C770.955,485.046 780.332,474.991 790.67,465.756C796.935,460.159 809.005,450.833 816.657,447.007Z" style="fill:rgb(246,146,70);fill-rule:nonzero;"/>
    </g>
    <g transform="matrix(-1,0,0,1,926.857,-158.305)">
        <path d="M746.621,469.619C757.194,464.176 762.429,453.916 760.23,443.238C757.508,429.628 742.852,421.253 730.08,426.069C715.842,431.303 708.619,441.249 710.503,453.183C712.807,469.201 731.441,477.576 746.621,469.619ZM854.031,399.06C858.323,388.381 859.37,370.584 856.334,360.848C855.392,358.022 854.659,357.394 852.251,357.394C848.063,357.394 845.446,361.267 843.457,369.956C841.573,378.227 841.259,396.652 842.934,401.049C843.562,402.619 844.818,404.817 845.656,405.864C848.168,408.586 851.204,406.074 854.031,399.06Z" style="fill:rgb(35,31,29);fill-rule:nonzero;"/>
    </g>
    <g transform="matrix(-1.04688,0,0,1.04688,921.532,-169.413)">
        <path d="M696,437.2C691.3,433.4 694.4,426 700.6,426C707,426 709.4,432.9 704.4,436.9C701.1,439.5 698.9,439.5 696,437.2ZM805.4,373.6C804.6,370.3 805.5,363.1 806.8,361.8C807.4,361.2 808.4,361.1 809,361.5C810.7,362.6 809.7,372.7 807.7,374.7C806.2,376.2 806.1,376.1 805.4,373.6Z" style="fill:white;fill-rule:nonzero;"/>
    </g>
</svg>
