<svg xmlns="http://www.w3.org/2000/svg" xml:space="preserve" fill-rule="evenodd" stroke-linejoin="round" stroke-miterlimit="2" clip-rule="evenodd" viewBox="0 0 600 600">
  <path fill="#ffe25f" fill-rule="nonzero" d="M65.427 435.724c-6.621-17.652-10.336-36.463-10.712-55.525-.314-16.017 5.219-27.576 21.021-37.47 72.915-45.655 209.29-86.222 287.926-88.093 80.001-1.903 163.733 13.482 189.891 40.87 7.078 7.411-33.382 144.79-41.742 143.666C399.51 635.219 90.06 567.868 64.566 435.966l-.04-.204-.04-.212-.006-.036-.005-.025-.022-.118-.044-.235-.012-.066-.005-.027-.011-.063-.046-.255-.018-.099-.007-.038-.042-.241-.029-.166-.076-.445-.051-.307-.023-.139-.044-.274a7.137 7.137 0 0 1-.13-.411l-.019-.068-.016-.061-.001-.007a4.234 4.234 0 0 1-.059-.255l-.016-.081-.007-.036-.002-.01-.002-.011-.007-.04-.009-.061-.003-.017a4.776 4.776 0 0 1-.027-.226l-.001-.01-.002-.018-.003-.045-.003-.036-.001-.018v-.013l-.002-.023-.002-.063-.001-.016v-.004l-.001-.103v-.005l.001-.019.001-.054.001-.022v-.015l.002-.018.001-.03.003-.04.001-.02.001-.01.01-.096.067.472.021.146.048.33.023.15.051.339.017.105.066.42.055.152.057.151.004.009.055.136.01.025.063.148.065.145.019.042.036.078.095.199.008.017.112.222.026.049.103.195.02.037.124.224.036.062.098.17.045.076.124.208.072.115.062.101.093.147Z"/>
  <path fill="#e9d04e" fill-rule="nonzero" d="M545.831 343.857c-1.367 5.203-63.468 99.441-80.984 108.902-16.196 8.748-43.304 6.748-48.532 5.712-18.344-3.633-27.071-23.015-34.868-35.444-.553-.88-4.435 24.114-4.633 34.455-.374 19.595 20.231 38.397 20.231 38.397s-100.352 30.301-168.141 24.594c-75.976-6.396-166.875-75.503-165.151-89.419 21.119 153.044 423.968 222.943 482.078-87.197Z"/>
  <path fill="#e9d04e" d="M239.58 54.263c-90.722 0-164.375 73.653-164.375 164.373 0 40.765 4.871 78.083 29.48 106.822 16.726 19.533 31.027 39.103 57.88 49.097 21.56 8.025 54.765 8.455 77.014 8.455 90.72 0 164.373-73.653 164.373-164.374 0-90.72-73.653-164.373-164.373-164.373Z"/>
  <path fill="#ffe25f" d="M228.58 43.263c-90.722 0-164.375 73.653-164.375 164.373 0 40.765 4.871 78.083 29.48 106.822 16.726 19.533 31.027 39.103 57.88 49.097 21.56 8.025 54.765 8.455 77.014 8.455 90.72 0 164.373-73.653 164.373-164.374 0-90.72-73.653-164.373-164.373-164.373Z"/>
  <path fill="#dd884d" fill-rule="nonzero" d="M93.898 384.904c3.782.761 7.669 1.02 11.527 1.028h.467c12.522-.04 33.648-3.632 45.712-6.761 5.942-1.542 11.669-3.82 17.454-5.873 5.638-2.002 17.639-5.012 20.704-11.943.565-1.277-1.968-3.701-2.534-4.313-2.053-2.219-4.049-4.495-6.197-6.621-4.896-4.848-9.927-9.557-14.928-14.296-19.394-18.378-40.685-42.949-66.914-52.264-5.405-1.919-22.504-9.445-28.352-3.639-7.781 7.725-11.954 15.324-16.855 25.125-13.863 28.367-8.087 59.916 21.767 73.81 5.753 2.677 11.931 4.479 18.149 5.747Z"/>
  <path fill="#f69246" fill-rule="nonzero" d="M110.2 288.702c-2.865-1.433-3.376 5.067-3.65 5.788-5.163 13.574-7.633 19.666-15.717 31.795-7.251 10.877-19.215 17.149-28.955 25.316-5.799 4.863-8.282 14.275-.358 19.071 9.748 5.9 20.091 12.294 32.378 14.232 16.863 2.661 43.54-2.544 57.447-5.666 10.576-2.374 25.727-8.439 35.062-13.824 1.634-.942 2.464-2.397 3.356-4.059.641-1.194-2.045-3.783-2.535-4.313-2.052-2.219-4.048-4.494-6.196-6.621-4.896-4.848-9.858-9.631-14.929-14.296-10.201-9.384-19.578-19.439-29.916-28.674-6.265-5.597-18.335-14.923-25.987-18.749Z"/>
  <path fill="#231f1d" fill-rule="nonzero" d="M180.236 311.314c-10.573-5.443-15.808-15.703-13.609-26.381 2.722-13.61 17.378-21.985 30.15-17.169 14.238 5.234 21.461 15.18 19.577 27.114-2.304 16.018-20.938 24.393-36.118 16.436Zm-107.41-70.559c-4.292-10.679-5.339-28.476-2.303-38.212.942-2.826 1.675-3.454 4.083-3.454 4.188 0 6.805 3.873 8.794 12.562 1.884 8.271 2.198 26.696.523 31.093-.628 1.57-1.884 3.768-2.722 4.815-2.512 2.722-5.548.21-8.375-6.804Z"/>
  <path fill="#fff" fill-rule="nonzero" d="M192.904 288.283c4.92-3.978 1.675-11.725-4.816-11.725-6.7 0-9.213 7.223-3.978 11.41 3.454 2.723 5.758 2.723 8.794.315ZM78.374 221.7c.838-3.454-.104-10.992-1.465-12.353-.628-.628-1.675-.733-2.303-.314-1.78 1.152-.733 11.725 1.361 13.819 1.57 1.57 1.675 1.466 2.408-1.152Z"/>
</svg>
