<svg width="1440" height="1024" viewBox="0 0 1440 1024" fill="none" xmlns="http://www.w3.org/2000/svg">
<g clip-path="url(#clip0_4_2404)">
<g opacity="0.09">
<line x1="-50.6172" y1="624.998" x2="1460.96" y2="624.998" stroke="#222020" stroke-width="1.2607"/>
<line x1="-50.6172" y1="947.736" x2="1460.96" y2="947.736" stroke="#222020" stroke-width="1.2607"/>
<line x1="-50.6172" y1="302.259" x2="1460.96" y2="302.259" stroke="#222020" stroke-width="1.2607"/>
<line x1="-50.6172" y1="463.627" x2="1460.96" y2="463.627" stroke="#222020" stroke-width="1.2607"/>
<line x1="-50.6172" y1="786.366" x2="1460.96" y2="786.366" stroke="#222020" stroke-width="1.2607"/>
<line x1="-50.6172" y1="140.889" x2="1460.96" y2="140.889" stroke="#222020" stroke-width="1.2607"/>
<line x1="-50.6172" y1="544.312" x2="1460.96" y2="544.312" stroke="#222020" stroke-width="1.2607"/>
<line x1="-50.6172" y1="867.05" x2="1460.96" y2="867.05" stroke="#222020" stroke-width="1.2607"/>
<line x1="-50.6172" y1="221.574" x2="1460.96" y2="221.574" stroke="#222020" stroke-width="1.2607"/>
<line x1="-50.6172" y1="382.942" x2="1460.96" y2="382.942" stroke="#222020" stroke-width="1.2607"/>
<line x1="-50.6172" y1="705.682" x2="1460.96" y2="705.682" stroke="#222020" stroke-width="1.2607"/>
<line x1="-50.6172" y1="60.2036" x2="1460.96" y2="60.2036" stroke="#222020" stroke-width="1.2607"/>
<line x1="642.139" y1="-48.8457" x2="642.139" y2="1118.56" stroke="#222020" stroke-width="1.2607"/>
<line x1="319.398" y1="-48.8457" x2="319.398" y2="1118.56" stroke="#222020" stroke-width="1.2607"/>
<line x1="964.875" y1="-48.8457" x2="964.875" y2="1118.56" stroke="#222020" stroke-width="1.2607"/>
<line x1="1287.62" y1="-48.8457" x2="1287.62" y2="1118.56" stroke="#222020" stroke-width="1.2607"/>
<line x1="158.028" y1="-48.8457" x2="158.028" y2="1118.56" stroke="#222020" stroke-width="1.2607"/>
<line x1="803.504" y1="-48.8457" x2="803.504" y2="1118.56" stroke="#222020" stroke-width="1.2607"/>
<line x1="480.769" y1="-48.8457" x2="480.768" y2="1118.56" stroke="#222020" stroke-width="1.2607"/>
<line x1="1126.25" y1="-48.8457" x2="1126.24" y2="1118.56" stroke="#222020" stroke-width="1.2607"/>
<line x1="77.3453" y1="-48.8457" x2="77.3453" y2="1118.56" stroke="#222020" stroke-width="1.2607"/>
<line x1="722.822" y1="-48.8457" x2="722.822" y2="1118.56" stroke="#222020" stroke-width="1.2607"/>
<line x1="400.081" y1="-48.8457" x2="400.081" y2="1118.56" stroke="#222020" stroke-width="1.2607"/>
<line x1="1045.56" y1="-48.8457" x2="1045.56" y2="1118.56" stroke="#222020" stroke-width="1.2607"/>
<line x1="1368.3" y1="-48.8457" x2="1368.3" y2="1118.56" stroke="#222020" stroke-width="1.2607"/>
<line x1="238.716" y1="-48.8457" x2="238.715" y2="1118.56" stroke="#222020" stroke-width="1.2607"/>
<line x1="884.192" y1="-48.8457" x2="884.192" y2="1118.56" stroke="#222020" stroke-width="1.2607"/>
<line x1="561.452" y1="-48.8457" x2="561.452" y2="1118.56" stroke="#222020" stroke-width="1.2607"/>
<line x1="1206.93" y1="-48.8457" x2="1206.93" y2="1118.56" stroke="#222020" stroke-width="1.2607"/>
</g>
<g opacity="0.5">
<rect x="803.564" y="786.309" width="80.2262" height="80.2262" fill="#E8E8E8" fill-opacity="0.5"/>
<rect x="400.14" y="786.309" width="80.2262" height="80.2262" fill="#DDDDDD" fill-opacity="0.2"/>
<rect x="1126.76" y="222.433" width="80.2262" height="79.0801" fill="#F1F1F1" fill-opacity="0.25"/>
<rect x="480.368" y="464.207" width="80.2262" height="79.0801" fill="#D2D2D2" fill-opacity="0.15"/>
<rect x="1045.39" y="302.659" width="80.2262" height="79.0801" fill="#F1F1F1" fill-opacity="0.25"/>
<rect x="399.994" y="222.433" width="80.2262" height="79.0801" fill="#D2D2D2" fill-opacity="0.15"/>
<rect x="1045.39" y="222.433" width="80.2262" height="79.0801" fill="#F1F1F1" fill-opacity="0.25"/>
<rect x="399.995" y="464.207" width="80.2262" height="79.0801" fill="#D2D2D2" fill-opacity="0.15"/>
<rect x="319.914" y="786.309" width="80.2262" height="80.2262" fill="#DDDDDD" fill-opacity="0.2"/>
<rect x="319.914" y="866.535" width="80.2262" height="81.3723" fill="#DDDDDD" fill-opacity="0.2"/>
<rect x="158.316" y="706.082" width="80.2262" height="80.2262" fill="#DDDDDD" fill-opacity="0.2"/>
<rect x="965.162" y="60.834" width="80.2262" height="80.2262" fill="#D2D2D2" fill-opacity="0.15"/>
<rect x="884.059" y="-19.8525" width="80.2262" height="79.5062" fill="#D2D2D2" fill-opacity="0.15"/>
<rect x="884.059" y="60.4053" width="80.2262" height="80.0285" fill="#D2D2D2" fill-opacity="0.15"/>
<rect x="158.316" y="139.915" width="81.3723" height="82.5184" fill="#DDDDDD" fill-opacity="0.2"/>
<rect x="76.9434" y="59.6885" width="81.3723" height="80.2262" fill="#DDDDDD" fill-opacity="0.2"/>
<rect x="-3.28284" y="60.834" width="81.3723" height="80.2262" fill="#DDDDDD" fill-opacity="0.2"/>
<rect x="76.9434" y="139.915" width="81.3723" height="82.5184" fill="#DDDDDD" fill-opacity="0.2"/>
<rect x="400.14" y="-20.5381" width="81.3723" height="80.2262" fill="#F1F1F1" fill-opacity="0.25"/>
<rect x="1126.76" y="706.082" width="80.2262" height="80.2262" fill="#D2D2D2" fill-opacity="0.15"/>
<rect x="1206.99" y="786.309" width="80.2262" height="80.2262" fill="#D2D2D2" fill-opacity="0.15"/>
<rect x="240" y="221" width="80.2262" height="81.3723" fill="#DDDDDD" fill-opacity="0.2"/>
<rect x="1208.44" y="625.569" width="80.2262" height="80.2262" fill="#D2D2D2" fill-opacity="0.15"/>
<rect x="562.052" y="383.694" width="80.2262" height="79.0801" fill="#D2D2D2" fill-opacity="0.15"/>
<rect x="481.824" y="705.796" width="80.2262" height="80.2262" fill="#DDDDDD" fill-opacity="0.2"/>
<rect x="885.248" y="705.796" width="80.2262" height="80.2262" fill="#E8E8E8" fill-opacity="0.5"/>
<rect x="401" y="383" width="80.2262" height="81.3723" fill="#DDDDDD" fill-opacity="0.2"/>
<rect x="1369.44" y="787.569" width="80.2262" height="80.2262" fill="#D2D2D2" fill-opacity="0.15"/>
<rect x="723.052" y="545.694" width="80.2262" height="79.0801" fill="#D2D2D2" fill-opacity="0.15"/>
<rect x="642.824" y="867.796" width="80.2262" height="80.2262" fill="#DDDDDD" fill-opacity="0.2"/>
<rect x="1046.25" y="867.796" width="80.2262" height="80.2262" fill="#E8E8E8" fill-opacity="0.5"/>
<rect x="1045.85" y="866.847" width="80.2262" height="80.2262" fill="#E8E8E8" fill-opacity="0.5"/>
<rect x="642.423" y="866.847" width="80.2262" height="80.2262" fill="#DDDDDD" fill-opacity="0.2"/>
<rect x="1369.04" y="302.971" width="80.2262" height="79.0801" fill="#F1F1F1" fill-opacity="0.25"/>
<rect x="722.65" y="544.745" width="80.2262" height="79.0801" fill="#D2D2D2" fill-opacity="0.15"/>
<rect x="1287.67" y="383.197" width="80.2262" height="79.0801" fill="#F1F1F1" fill-opacity="0.25"/>
<rect x="642.277" y="302.971" width="80.2262" height="79.0801" fill="#D2D2D2" fill-opacity="0.15"/>
<rect x="1287.67" y="302.971" width="80.2262" height="79.0801" fill="#F1F1F1" fill-opacity="0.25"/>
<rect x="642.277" y="544.745" width="80.2262" height="79.0801" fill="#D2D2D2" fill-opacity="0.15"/>
<rect x="562.197" y="866.847" width="80.2262" height="80.2262" fill="#DDDDDD" fill-opacity="0.2"/>
<rect x="562.197" y="947.073" width="80.2262" height="81.3723" fill="#DDDDDD" fill-opacity="0.2"/>
<rect x="400.599" y="786.62" width="80.2262" height="80.2262" fill="#DDDDDD" fill-opacity="0.2"/>
<rect x="1207.44" y="141.372" width="80.2262" height="80.2262" fill="#D2D2D2" fill-opacity="0.15"/>
<rect x="1126.34" y="60.6855" width="80.2262" height="79.5062" fill="#D2D2D2" fill-opacity="0.15"/>
<rect x="1126.34" y="140.943" width="80.2262" height="80.0285" fill="#D2D2D2" fill-opacity="0.15"/>
<rect x="400.599" y="220.453" width="81.3723" height="82.5184" fill="#DDDDDD" fill-opacity="0.2"/>
<rect x="319.226" y="140.227" width="81.3723" height="80.2262" fill="#DDDDDD" fill-opacity="0.2"/>
<rect x="642.423" y="60" width="81.3723" height="80.2262" fill="#F1F1F1" fill-opacity="0.25"/>
<rect x="400.599" y="382.051" width="80.2262" height="81.3723" fill="#DDDDDD" fill-opacity="0.2"/>
<rect x="1369.04" y="786.62" width="80.2262" height="80.2262" fill="#D2D2D2" fill-opacity="0.15"/>
<rect x="482.283" y="301.538" width="80.2262" height="81.3723" fill="#DDDDDD" fill-opacity="0.2"/>
<rect x="804.334" y="464.232" width="80.2262" height="79.0801" fill="#D2D2D2" fill-opacity="0.15"/>
<rect x="724.107" y="786.334" width="80.2262" height="80.2262" fill="#DDDDDD" fill-opacity="0.2"/>
<rect x="1127.53" y="786.334" width="80.2262" height="80.2262" fill="#E8E8E8" fill-opacity="0.5"/>
<rect x="643.283" y="463.538" width="80.2262" height="81.3723" fill="#DDDDDD" fill-opacity="0.2"/>
<rect x="965.334" y="626.232" width="80.2262" height="79.0801" fill="#D2D2D2" fill-opacity="0.15"/>
<rect x="885.107" y="948.334" width="80.2262" height="80.2262" fill="#DDDDDD" fill-opacity="0.2"/>
<rect x="1288.53" y="948.334" width="80.2262" height="80.2262" fill="#E8E8E8" fill-opacity="0.5"/>
<rect x="964.847" y="947.847" width="80.2262" height="80.2262" fill="#E8E8E8" fill-opacity="0.5"/>
<rect x="561.423" y="947.847" width="80.2262" height="80.2262" fill="#DDDDDD" fill-opacity="0.2"/>
<rect x="1288.04" y="383.971" width="80.2262" height="79.0801" fill="#F1F1F1" fill-opacity="0.25"/>
<rect x="641.65" y="625.745" width="80.2262" height="79.0801" fill="#D2D2D2" fill-opacity="0.15"/>
<rect x="1206.67" y="464.197" width="80.2262" height="79.0801" fill="#F1F1F1" fill-opacity="0.25"/>
<rect x="561.277" y="383.971" width="80.2262" height="79.0801" fill="#D2D2D2" fill-opacity="0.15"/>
<rect x="1206.67" y="383.971" width="80.2262" height="79.0801" fill="#F1F1F1" fill-opacity="0.25"/>
<rect x="561.277" y="625.745" width="80.2262" height="79.0801" fill="#D2D2D2" fill-opacity="0.15"/>
<rect x="481.197" y="947.847" width="80.2262" height="80.2262" fill="#DDDDDD" fill-opacity="0.2"/>
<rect x="319.599" y="867.62" width="80.2262" height="80.2262" fill="#DDDDDD" fill-opacity="0.2"/>
<rect x="1126.44" y="222.372" width="80.2262" height="80.2262" fill="#D2D2D2" fill-opacity="0.15"/>
<rect x="1045.34" y="141.686" width="80.2262" height="79.5062" fill="#D2D2D2" fill-opacity="0.15"/>
<rect x="1045.34" y="221.943" width="80.2262" height="80.0285" fill="#D2D2D2" fill-opacity="0.15"/>
<rect x="319.599" y="301.453" width="81.3723" height="82.5184" fill="#DDDDDD" fill-opacity="0.2"/>
<rect x="238.226" y="301.453" width="81.3723" height="82.5184" fill="#DDDDDD" fill-opacity="0.2"/>
<rect x="561.423" y="141" width="81.3723" height="80.2262" fill="#F1F1F1" fill-opacity="0.25"/>
<rect x="319.599" y="463.051" width="80.2262" height="81.3723" fill="#DDDDDD" fill-opacity="0.2"/>
<rect x="1288.04" y="867.62" width="80.2262" height="80.2262" fill="#D2D2D2" fill-opacity="0.15"/>
<rect x="1368.27" y="947.847" width="80.2262" height="80.2262" fill="#D2D2D2" fill-opacity="0.15"/>
<rect x="401.283" y="382.538" width="80.2262" height="81.3723" fill="#DDDDDD" fill-opacity="0.2"/>
<rect x="1369.73" y="787.107" width="80.2262" height="80.2262" fill="#D2D2D2" fill-opacity="0.15"/>
<rect x="723.334" y="545.232" width="80.2262" height="79.0801" fill="#D2D2D2" fill-opacity="0.15"/>
<rect x="643.107" y="867.334" width="80.2262" height="80.2262" fill="#DDDDDD" fill-opacity="0.2"/>
<rect x="1046.53" y="867.334" width="80.2262" height="80.2262" fill="#E8E8E8" fill-opacity="0.5"/>
<rect x="562.283" y="544.538" width="80.2262" height="81.3723" fill="#DDDDDD" fill-opacity="0.2"/>
<rect x="884.334" y="707.232" width="80.2262" height="79.0801" fill="#D2D2D2" fill-opacity="0.15"/>
</g>
</g>
<defs>
<clipPath id="clip0_4_2404">
<rect width="1440" height="1024" fill="white"/>
</clipPath>
</defs>
</svg>
