<?xml version="1.0" encoding="UTF-8" standalone="no"?>
<!DOCTYPE svg PUBLIC "-//W3C//DTD SVG 1.1//EN" "http://www.w3.org/Graphics/SVG/1.1/DTD/svg11.dtd">
<svg xmlns="http://www.w3.org/2000/svg" version="1.1" viewBox="0.00 0.00 300.00 300.00">
<g stroke-width="2.00" fill="none" stroke-linecap="butt">
<path stroke="#fff6ba" vector-effect="non-scaling-stroke" d="
  M 1.01 0.00
  L 1.02 300.00"
/>
<path stroke="#fff6ba" vector-effect="non-scaling-stroke" d="
  M 146.33 0.00
  Q 144.07 1.12 141.79 2.20
  C 129.29 8.18 120.90 22.53 116.44 35.27
  Q 116.27 35.75 115.79 35.90
  Q 85.84 45.18 59.29 63.13"
/>
<path stroke="#fff197" vector-effect="non-scaling-stroke" d="
  M 59.29 63.13
  Q 65.09 56.11 65.91 48.99
  A 0.69 0.69 0.0 0 0 64.69 48.47
  L 59.81 54.36
  A 1.10 1.08 20.6 0 1 58.93 54.75
  C 53.04 54.49 49.69 61.93 49.59 66.82
  Q 49.58 67.30 50.00 67.51
  Q 51.27 68.18 52.34 67.34
  A 0.43 0.43 0.0 0 1 53.00 67.49
  Q 53.07 67.64 53.09 67.82"
/>
<path stroke="#fff6ba" vector-effect="non-scaling-stroke" d="
  M 53.09 67.82
  C 23.56 89.83 3.86 121.69 2.27 159.01
  Q 1.47 177.89 4.99 198.65
  Q 5.01 198.74 5.11 198.77
  Q 5.15 198.79 5.19 198.82
  A 0.43 0.34 -85.8 0 1 5.38 199.10
  Q 8.05 214.03 13.11 225.92
  C 32.43 271.37 80.44 291.72 126.10 298.86
  C 127.14 299.02 128.58 298.85 129.78 299.21
  Q 130.77 299.51 129.75 299.69
  L 127.93 300.00"
/>
<path stroke="#fff197" vector-effect="non-scaling-stroke" d="
  M 17.83 37.71
  C 19.93 37.25 20.99 37.07 22.70 35.52
  Q 24.34 34.04 26.55 33.45
  Q 27.07 33.31 27.50 32.99
  L 37.80 25.27
  A 0.95 0.95 0.0 0 1 38.34 25.08
  Q 43.96 24.90 48.55 27.55
  C 51.11 29.02 54.02 29.93 56.42 31.83
  A 1.85 1.84 -20.9 0 0 57.23 32.19
  C 58.85 32.48 59.56 33.74 60.76 34.15
  Q 62.31 34.68 64.04 34.46
  A 0.51 0.51 0.0 0 0 64.44 33.75
  Q 62.73 29.89 59.94 26.95"
/>
<path stroke="#fff6ba" vector-effect="non-scaling-stroke" d="
  M 59.94 26.95
  Q 48.52 16.01 34.64 19.82
  C 12.33 25.95 9.57 55.52 29.80 66.67
  Q 30.33 66.96 30.74 67.02
  A 0.33 0.32 -27.1 0 0 30.94 66.41
  C 20.18 60.85 14.69 49.63 17.83 37.71"
/>
<path stroke="#fffbdd" vector-effect="non-scaling-stroke" d="
  M 59.94 26.95
  Q 58.32 27.85 57.60 26.41
  A 2.22 2.15 6.0 0 0 57.04 25.74
  Q 44.55 16.22 30.10 22.57
  Q 29.57 22.80 29.36 23.33
  Q 28.57 25.31 26.49 25.76
  Q 25.99 25.86 25.63 26.22
  C 22.04 29.83 19.34 32.12 17.83 37.71"
/>
<path stroke="#fff6ba" vector-effect="non-scaling-stroke" d="
  M 177.05 0.00
  Q 189.13 7.86 191.51 20.86
  Q 191.59 21.31 192.04 21.23
  C 212.56 17.79 231.07 30.57 230.44 52.41
  Q 230.43 52.92 230.84 53.21
  Q 234.25 55.69 237.71 58.09
  C 278.62 86.42 303.55 133.05 298.24 183.47
  Q 296.21 202.69 290.31 219.03
  C 282.59 240.39 268.70 255.07 251.37 269.10
  C 231.23 285.42 202.09 296.80 175.98 299.25
  Q 174.57 299.38 175.97 299.60
  L 178.45 300.00"
/>
<path stroke="#fffbdd" vector-effect="non-scaling-stroke" d="
  M 53.09 67.82
  L 59.29 63.13"
/>
<path stroke="#beeeff" vector-effect="non-scaling-stroke" d="
  M 182.13 32.69
  C 186.35 19.17 177.20 5.97 162.75 6.15
  C 140.98 6.42 129.22 22.92 123.64 42.38
  A 0.97 0.97 0.0 0 1 122.99 43.03
  C 66.04 59.60 11.07 100.21 11.05 165.30
  C 11.04 204.14 22.20 240.86 55.66 263.63
  C 78.29 279.03 106.33 287.68 133.49 290.78
  Q 185.77 296.75 231.60 271.80
  C 241.74 266.28 250.78 258.04 259.17 250.17
  C 274.88 235.42 282.60 218.32 286.96 197.62
  C 298.94 140.76 272.21 87.81 222.77 59.13
  Q 222.37 58.90 221.92 58.78
  L 220.82 58.51
  Q 220.36 58.39 220.48 57.93
  Q 224.34 43.25 214.06 34.77
  C 205.20 27.46 192.35 29.13 182.55 33.08
  Q 181.93 33.32 182.13 32.69"
/>
<path stroke="#fff197" vector-effect="non-scaling-stroke" d="
  M 276.68 266.36
  Q 280.83 265.09 282.87 268.37
  Q 283.14 268.80 283.56 268.52
  Q 284.11 268.17 283.70 267.54
  C 281.54 264.23 275.58 264.31 273.88 268.15
  Q 273.59 268.80 274.20 268.44
  Q 275.24 267.82 276.01 266.82
  Q 276.27 266.48 276.68 266.36"
/>
<path stroke="#beeeff" vector-effect="non-scaling-stroke" d="
  M 180.63 34.99
  L 170.33 44.70
  A 0.12 0.12 0.0 0 0 170.32 44.87
  L 170.43 44.98
  A 7.03 1.06 -43.3 0 0 176.28 40.93
  L 176.52 40.70
  A 7.03 1.06 -43.3 0 0 180.91 35.11
  L 180.80 34.99
  A 0.12 0.12 0.0 0 0 180.63 34.99"
/>
<path stroke="#4c7c8c" vector-effect="non-scaling-stroke" d="
  M 79.59 92.05
  L 72.21 91.09
  Q 72.11 91.08 72.08 90.99
  Q 72.04 90.86 71.99 90.73
  Q 71.93 90.53 71.72 90.51
  C 63.05 89.54 52.63 89.63 51.29 100.83
  Q 51.23 101.36 50.86 101.74
  L 49.93 102.73
  Q 49.58 103.10 49.66 103.60
  L 50.96 111.98
  A 1.25 1.22 16.9 0 0 51.35 112.69
  L 53.58 114.65
  A 0.69 0.68 -74.3 0 1 53.80 115.05
  C 55.54 125.62 60.42 137.99 72.44 139.32"
/>
<path stroke="#be9a85" vector-effect="non-scaling-stroke" d="
  M 72.44 139.32
  Q 72.80 144.18 67.12 148.17
  Q 66.64 148.51 66.69 149.10
  C 67.34 155.97 75.32 159.52 80.58 161.07"
/>
<path stroke="#bdaf84" vector-effect="non-scaling-stroke" d="
  M 80.58 161.07
  Q 81.95 161.43 82.72 162.23"
/>
<path stroke="#bed194" vector-effect="non-scaling-stroke" d="
  M 82.72 162.23
  Q 82.83 163.11 83.06 162.67"
/>
<path stroke="#bed89b" vector-effect="non-scaling-stroke" d="
  M 83.06 162.67
  L 82.97 163.55
  Q 82.92 164.05 82.50 164.35
  C 62.95 178.14 52.87 198.93 56.89 222.84"
/>
<path stroke="#bed194" vector-effect="non-scaling-stroke" d="
  M 56.89 222.84
  C 60.47 244.86 79.34 266.13 101.46 271.06
  C 104.27 271.69 106.96 273.54 109.25 274.01
  C 146.87 281.77 186.87 280.23 223.56 268.35"
/>
<path stroke="#bec98c" vector-effect="non-scaling-stroke" d="
  M 223.56 268.35
  C 242.77 262.01 259.65 241.98 267.69 224.12
  C 277.35 202.65 275.41 176.90 265.55 155.93
  Q 262.18 148.76 258.24 144.23"
/>
<path stroke="#bed194" vector-effect="non-scaling-stroke" d="
  M 258.24 144.23
  Q 254.07 139.05 248.43 135.99
  Q 244.14 133.66 239.59 132.06
  C 228.99 128.32 214.74 130.59 204.10 134.20"
/>
<path stroke="#bec388" vector-effect="non-scaling-stroke" d="
  M 204.10 134.20
  Q 205.71 123.47 205.15 113.36"
/>
<path stroke="#4c7c8c" vector-effect="non-scaling-stroke" d="
  M 205.15 113.36
  C 210.01 114.47 210.73 120.23 211.45 124.27
  C 212.51 130.15 216.76 128.41 219.42 125.08
  A 0.89 0.87 55.8 0 0 219.57 124.25
  Q 217.84 119.15 216.32 113.96
  C 214.03 106.10 211.27 101.47 202.49 102.57"
/>
<path stroke="#bec388" vector-effect="non-scaling-stroke" d="
  M 202.49 102.57
  Q 202.99 101.72 202.47 100.78"
/>
<path stroke="#bec98c" vector-effect="non-scaling-stroke" d="
  M 202.47 100.78
  Q 199.57 92.78 194.67 85.69"
/>
<path stroke="#bed194" vector-effect="non-scaling-stroke" d="
  M 194.67 85.69
  Q 189.76 79.27 183.40 74.67"
/>
<path stroke="#bed89b" vector-effect="non-scaling-stroke" d="
  M 183.40 74.67
  Q 151.50 52.16 114.81 65.92
  C 100.34 71.34 88.46 79.09 79.59 92.05"
/>
<path stroke="#ffcc31" vector-effect="non-scaling-stroke" d="
  M 183.40 74.67
  C 180.14 73.62 177.14 73.03 174.25 71.10
  C 169.49 67.92 167.57 67.06 161.82 67.29
  Q 161.32 67.31 160.89 67.05
  C 156.41 64.32 151.63 64.98 146.75 65.20
  A 0.61 0.60 50.9 0 0 146.63 66.39
  L 147.41 66.59
  A 0.08 0.08 0.0 0 1 147.39 66.75
  Q 147.21 66.75 146.99 66.75
  Q 146.95 66.75 147.02 67.24
  Q 147.04 67.38 147.09 67.50
  A 0.13 0.13 0.0 0 1 146.99 67.69
  Q 144.35 68.04 143.91 70.73
  Q 143.82 71.32 144.28 71.69
  L 145.89 72.99
  Q 146.26 73.28 146.34 73.74
  Q 146.60 75.26 147.82 76.19
  Q 148.20 76.47 148.27 76.94
  L 148.70 80.02
  Q 148.77 80.53 149.10 80.91
  Q 152.12 84.41 151.66 88.67
  A 3.33 3.33 0.0 0 1 149.96 91.24
  Q 147.51 92.60 145.69 94.74
  Q 145.36 95.13 144.85 95.21
  Q 143.63 95.40 142.51 95.85
  C 140.87 96.52 138.49 96.59 137.34 98.33
  A 1.24 1.24 0.0 0 0 137.95 100.19
  Q 140.22 101.03 139.54 102.23"
/>
<path stroke="#8d7728" vector-effect="non-scaling-stroke" d="
  M 139.54 102.23
  Q 130.72 98.12 126.75 97.75
  C 115.25 96.66 103.73 96.02 92.26 94.06
  Q 86.00 92.99 79.59 92.05"
/>
<path stroke="#ffbc22" vector-effect="non-scaling-stroke" d="
  M 194.67 85.69
  Q 192.29 85.97 191.59 84.48
  Q 191.37 84.02 190.99 83.69
  C 188.69 81.71 186.95 79.43 184.23 78.14
  Q 182.05 77.11 179.81 76.19
  C 177.64 75.30 175.35 73.53 172.54 72.97
  Q 172.07 72.87 171.94 73.34
  Q 171.47 75.06 169.90 75.03
  A 1.23 1.22 -22.1 0 0 169.01 77.12
  C 170.66 78.75 175.69 85.66 173.42 88.26
  A 1.84 1.80 72.2 0 0 173.03 89.04
  C 172.44 91.53 171.83 94.48 169.90 96.30
  C 168.57 97.55 167.49 98.33 166.17 99.89
  Q 165.42 100.77 164.18 100.97
  Q 155.12 102.41 146.56 103.27
  A 0.99 0.99 0.0 0 0 146.16 105.11
  Q 150.16 107.43 151.33 110.62"
/>
<path stroke="#8d6f22" vector-effect="non-scaling-stroke" d="
  M 151.33 110.62
  Q 145.52 105.39 139.54 102.23"
/>
<path stroke="#8d6215" vector-effect="non-scaling-stroke" d="
  M 180.47 108.54
  C 187.81 106.03 197.69 102.08 202.49 102.57"
/>
<path stroke="#8d6215" vector-effect="non-scaling-stroke" d="
  M 205.15 113.36
  C 203.65 113.18 202.25 113.08 200.76 113.72
  Q 180.20 122.41 159.07 129.70
  Q 158.55 129.88 158.01 129.80
  Q 155.83 129.50 153.74 130.03
  A 1.29 1.29 0.0 0 0 152.84 130.85
  C 149.11 141.26 140.84 149.95 128.98 148.71"
/>
<path stroke="#8d671a" vector-effect="non-scaling-stroke" d="
  M 128.98 148.71
  L 121.62 147.18"
/>
<path stroke="#8d8347" vector-effect="non-scaling-stroke" d="
  M 121.62 147.18
  Q 103.03 137.94 96.14 119.17"
/>
<path stroke="#8d6215" vector-effect="non-scaling-stroke" d="
  M 96.14 119.17
  C 95.30 117.12 94.60 114.78 93.31 113.05
  Q 91.20 110.20 90.39 112.44"
/>
<path stroke="#8d3912" vector-effect="non-scaling-stroke" d="
  M 90.39 112.44
  C 87.83 120.64 86.02 127.19 80.58 134.05
  Q 77.40 138.06 72.44 139.32"
/>
<path stroke="#ffaf16" vector-effect="non-scaling-stroke" d="
  M 202.47 100.78
  Q 201.29 100.32 201.24 98.62
  A 2.52 2.52 0.0 0 0 198.20 96.24
  Q 196.00 96.70 193.80 96.18
  A 1.07 1.06 36.2 0 0 193.01 96.30
  C 188.76 98.80 180.43 103.11 180.47 108.54"
/>
<path stroke="#8d671a" vector-effect="non-scaling-stroke" d="
  M 180.47 108.54
  Q 170.82 111.87 161.05 115.28
  Q 158.08 116.32 155.70 116.31
  A 1.01 1.00 72.4 0 1 154.88 115.88
  L 151.33 110.62"
/>
<path stroke="#ffb71e" vector-effect="non-scaling-stroke" d="
  M 204.10 134.20
  L 201.33 146.71"
/>
<path stroke="#ffaf16" vector-effect="non-scaling-stroke" d="
  M 201.33 146.71
  Q 198.75 150.28 200.97 153.09
  A 1.41 1.40 76.2 0 0 201.79 153.59
  Q 206.31 154.48 210.89 154.71
  C 212.69 154.81 214.69 155.84 216.19 155.83
  C 221.95 155.80 227.19 158.88 232.00 160.22
  Q 232.33 160.31 232.43 160.53
  Q 232.64 161.00 232.12 161.00
  L 231.01 161.00
  Q 230.30 161.00 230.47 161.69
  Q 230.95 163.60 232.74 164.27
  Q 233.25 164.46 233.25 165.00
  L 233.25 169.74
  Q 233.25 170.27 232.80 169.99
  Q 231.42 169.13 229.72 169.63
  Q 229.27 169.77 228.89 170.04
  Q 227.95 170.72 227.07 169.85
  A 1.04 1.03 61.5 0 0 226.18 169.58
  Q 224.35 169.92 222.49 169.79
  Q 222.30 169.78 222.09 169.95
  Q 221.87 170.13 222.16 170.15
  L 226.49 170.47
  A 0.37 0.36 -42.1 0 1 226.45 171.20
  Q 214.31 170.93 202.27 169.62
  C 200.07 169.38 197.80 168.36 195.37 168.17
  C 190.89 167.82 188.20 167.30 184.88 168.79
  C 181.28 170.42 177.63 171.74 174.02 173.34
  A 1.46 1.40 35.5 0 1 173.26 173.45
  Q 171.43 173.22 170.16 174.43
  A 1.25 1.24 24.7 0 1 169.23 174.77
  C 165.11 174.54 162.98 175.82 159.20 177.00
  C 157.69 177.47 155.97 176.54 154.19 176.94
  Q 148.67 178.17 143.28 176.53
  Q 142.43 176.27 143.05 175.64
  Q 143.48 175.21 143.09 174.54
  Q 142.85 174.11 143.10 173.69
  C 144.78 170.81 147.53 168.69 149.12 166.44
  Q 151.01 163.76 152.52 160.86
  A 1.16 1.16 0.0 0 0 151.83 159.21
  Q 149.01 158.34 147.29 155.94
  A 1.31 1.27 -9.7 0 0 146.56 155.44
  L 132.79 151.99
  Q 132.20 151.84 131.95 151.29
  Q 131.20 149.66 129.94 150.40
  Q 129.42 150.70 129.18 150.15
  Q 128.89 149.50 128.98 148.71"
/>
<path stroke="#ffbc22" vector-effect="non-scaling-stroke" d="
  M 223.56 268.35
  Q 223.09 267.19 223.65 266.57
  Q 223.94 266.26 223.95 265.83
  Q 224.01 263.94 222.10 263.99
  Q 221.54 264.00 221.09 264.33
  Q 219.06 265.81 216.45 265.66
  Q 216.36 265.65 216.33 265.74
  Q 216.28 265.90 216.23 266.04
  Q 216.12 266.35 215.79 266.39
  Q 212.73 266.74 209.67 267.10
  C 207.83 267.31 206.04 268.17 204.10 268.39
  C 201.85 268.64 199.08 269.61 196.70 269.39
  C 194.82 269.21 193.15 267.43 190.59 268.54
  Q 190.15 268.73 189.67 268.70
  Q 186.70 268.48 183.71 268.54
  C 181.27 268.59 177.20 266.71 175.35 267.99
  A 0.85 0.79 25.4 0 1 174.87 268.14
  Q 173.13 268.16 172.02 266.87
  Q 171.69 266.50 171.20 266.50
  L 166.96 266.50
  Q 166.36 266.50 166.46 265.91
  Q 167.05 262.36 164.64 259.76
  A 0.58 0.57 -40.7 0 1 164.71 258.92
  Q 166.44 257.53 166.59 255.38
  Q 166.64 254.79 167.08 254.40
  C 168.80 252.90 170.24 252.23 171.62 250.28
  C 175.34 245.04 181.19 241.61 185.08 238.39
  Q 195.24 229.97 207.10 222.91
  A 1.41 1.40 -30.9 0 1 209.03 223.39
  Q 211.54 227.56 216.04 229.38
  Q 216.51 229.57 216.93 229.29
  Q 220.59 226.87 224.51 225.00
  C 229.34 222.68 232.43 217.45 234.61 212.78
  C 235.22 211.48 236.43 210.49 237.02 209.25
  Q 238.09 206.98 240.74 200.53
  Q 240.97 199.97 240.37 200.00
  Q 240.19 200.00 240.04 200.00
  Q 239.54 199.98 239.54 199.48
  Q 239.55 195.03 236.09 192.93
  C 233.20 191.17 232.94 190.82 231.16 188.34
  C 226.91 182.44 218.68 183.17 212.59 179.88
  Q 206.93 176.81 200.37 176.72
  Q 200.12 176.72 200.02 176.49
  Q 199.94 176.30 199.74 176.27
  C 194.38 175.43 180.97 173.80 176.34 176.26
  Q 175.92 176.48 175.44 176.46
  Q 172.39 176.30 169.93 177.96
  Q 169.50 178.25 168.98 178.25
  L 163.79 178.25
  Q 163.33 178.25 163.03 178.59
  Q 161.14 180.72 159.04 178.93
  Q 158.66 178.61 158.17 178.66
  Q 151.16 179.41 144.12 179.95
  C 138.88 180.35 133.92 179.42 128.67 178.90
  C 126.75 178.71 125.27 177.50 123.04 177.98
  Q 122.54 178.09 122.09 177.83
  C 119.78 176.50 114.61 176.51 111.58 175.41
  Q 111.12 175.24 110.90 174.80
  Q 110.73 174.42 110.45 174.27
  Q 105.99 171.80 97.48 167.72
  C 96.23 167.12 94.88 167.33 94.08 165.64
  Q 93.89 165.24 93.47 165.11
  L 88.73 163.63"
/>
<path stroke="#ff9a12" vector-effect="non-scaling-stroke" d="
  M 88.73 163.63
  C 93.71 163.90 98.57 165.94 102.79 166.04
  C 112.14 166.26 117.29 163.80 123.34 156.80
  A 0.70 0.70 0.0 0 0 123.13 155.72
  L 120.47 154.35
  Q 120.14 154.18 119.77 154.22
  L 117.91 154.46
  A 0.64 0.64 0.0 0 1 117.20 153.70
  L 117.50 152.17
  Q 117.60 151.68 117.15 151.47
  L 111.44 148.82"
/>
<path stroke="#ffcb43" vector-effect="non-scaling-stroke" d="
  M 96.14 119.17
  Q 95.03 119.28 95.26 120.29"
/>
<path stroke="#ffb71e" vector-effect="non-scaling-stroke" d="
  M 95.26 120.29
  Q 89.31 126.75 87.74 134.73"
/>
<path stroke="#ff800e" vector-effect="non-scaling-stroke" d="
  M 87.74 134.73
  Q 87.04 135.67 85.19 135.49
  A 0.92 0.90 25.4 0 0 84.47 135.74
  Q 83.55 136.65 82.25 136.51
  Q 81.53 136.43 81.98 135.86
  Q 87.68 128.60 90.27 121.53
  Q 90.89 119.85 91.56 119.04
  Q 91.85 118.69 91.74 118.25
  Q 91.40 116.94 92.46 116.36
  Q 92.96 116.09 93.05 115.53
  Q 93.36 113.55 90.39 112.44"
/>
<path stroke="#ffd047" vector-effect="non-scaling-stroke" d="
  M 121.62 147.18
  Q 115.87 146.89 109.99 141.04"
/>
<path stroke="#ffd84f" vector-effect="non-scaling-stroke" d="
  M 109.99 141.04
  Q 100.17 132.94 95.26 120.29"
/>
<path stroke="#ff8e1b" vector-effect="non-scaling-stroke" d="
  M 87.74 134.73
  Q 97.93 138.34 106.16 146.74"
/>
<path stroke="#ff6c0b" vector-effect="non-scaling-stroke" d="
  M 106.16 146.74
  Q 103.81 146.88 101.91 148.77
  Q 101.51 149.17 101.78 149.67
  Q 103.20 152.29 105.99 151.77
  A 0.80 0.79 -17.8 0 1 106.84 152.20
  L 107.69 153.87
  A 0.48 0.48 0.0 0 0 108.52 153.91
  L 109.53 152.29
  A 0.61 0.61 0.0 0 1 110.41 152.12
  L 111.45 152.90
  A 0.35 0.34 51.0 0 1 111.39 153.49
  Q 110.50 153.90 110.49 154.87
  Q 110.49 155.37 110.12 155.72
  Q 108.93 156.83 110.05 157.98
  A 0.49 0.48 52.7 0 1 109.95 158.73
  Q 109.04 159.27 108.07 158.75
  Q 107.73 158.57 107.35 158.62
  C 104.83 158.93 103.18 160.54 100.84 160.75
  C 94.20 161.36 87.14 160.89 80.58 161.07"
/>
<path stroke="#ffbc22" vector-effect="non-scaling-stroke" d="
  M 258.24 144.23
  Q 257.22 144.36 256.19 143.33
  Q 255.60 142.73 255.07 143.03
  Q 254.69 143.24 254.33 142.99
  L 242.99 135.05
  Q 242.56 134.75 242.03 134.73
  Q 238.76 134.66 235.82 133.29
  Q 235.35 133.08 234.85 133.14
  C 230.45 133.72 226.38 132.47 222.50 132.82
  Q 217.92 133.24 213.40 134.08
  C 210.83 134.57 209.42 136.17 207.54 137.69
  A 2.12 2.12 0.0 0 0 208.24 141.36
  L 213.71 143.07
  Q 214.13 143.21 213.92 142.82
  L 213.74 142.47
  A 0.12 0.12 0.0 0 1 213.92 142.32
  L 218.63 146.15
  Q 218.95 146.41 219.00 146.82
  Q 219.02 146.95 219.01 147.08
  Q 218.98 147.57 219.40 147.81
  Q 221.64 149.12 222.61 151.44
  A 0.82 0.82 0.0 0 1 222.31 152.45
  C 218.80 154.80 208.34 152.79 202.22 151.75
  Q 201.71 151.66 201.37 151.28
  Q 199.91 149.62 201.33 146.71"
/>
<path stroke="#ffbc22" vector-effect="non-scaling-stroke" d="
  M 109.99 141.04
  L 109.88 141.55
  Q 109.79 141.98 110.21 142.12
  Q 112.07 142.74 112.01 144.73
  A 1.11 1.10 14.6 0 0 112.62 145.76
  L 114.16 146.54
  A 0.88 0.87 -29.2 0 1 113.69 148.19
  Q 112.05 148.05 111.44 148.82"
/>
<path stroke="#ffa21a" vector-effect="non-scaling-stroke" d="
  M 111.44 148.82
  Q 108.72 146.92 106.16 146.74"
/>
<path stroke="#ffcc31" vector-effect="non-scaling-stroke" d="
  M 56.89 222.84
  Q 59.16 223.02 59.61 226.60
  Q 59.99 229.67 60.42 230.86
  Q 64.56 242.34 73.95 252.84
  A 1.12 0.27 47.4 0 0 74.44 252.57
  Q 74.30 252.41 74.16 252.29
  A 0.37 0.37 0.0 0 1 74.33 251.65
  Q 75.48 251.38 76.41 252.37
  Q 77.81 253.87 79.27 255.29
  Q 79.54 255.55 79.91 255.52
  L 80.81 255.45
  A 1.34 1.34 0.0 0 1 82.22 257.11
  Q 81.93 258.30 82.80 259.31
  A 0.65 0.65 0.0 0 0 83.71 259.40
  Q 85.96 257.60 87.19 259.90
  A 0.98 0.97 77.5 0 0 88.00 260.42
  L 89.20 260.49
  Q 89.85 260.53 89.64 259.91
  L 89.49 259.46
  Q 89.34 259.04 89.78 258.94
  L 92.79 258.25
  Q 93.29 258.14 93.00 257.71
  L 91.43 255.45
  Q 91.14 255.03 91.65 255.02
  L 93.47 254.99
  A 0.31 0.31 0.0 0 0 93.61 254.40
  L 90.82 252.97
  Q 89.54 252.31 90.98 252.19
  L 94.45 251.92
  A 0.37 0.36 65.5 0 0 94.68 251.30
  L 93.80 250.42
  Q 93.21 249.84 94.00 249.59
  L 101.03 247.37
  Q 101.51 247.22 101.83 247.60
  C 103.03 249.04 104.03 247.89 105.25 248.77
  Q 105.67 249.07 106.18 248.94
  C 111.46 247.57 116.73 248.23 121.89 245.43
  C 127.72 242.27 133.21 239.73 138.26 235.36
  C 139.86 233.98 141.62 231.94 143.95 230.19
  C 152.66 223.63 164.78 213.44 164.91 201.04
  Q 164.92 200.10 163.93 199.98
  Q 163.47 199.92 163.35 199.47
  Q 162.35 195.70 159.80 192.78
  A 1.41 1.40 -18.0 0 0 158.87 192.31
  Q 155.94 192.06 153.16 191.26
  C 141.40 187.83 129.25 189.05 117.29 187.17
  A 0.32 0.31 9.0 0 1 117.02 186.81
  L 117.13 186.07
  A 0.32 0.30 -78.6 0 0 116.91 185.72
  L 109.45 183.69
  Q 108.98 183.56 108.67 183.18
  L 107.30 181.44
  A 0.62 0.52 -4.9 0 0 107.03 181.25
  C 103.82 180.14 101.67 179.45 98.79 177.17
  Q 95.53 174.58 91.45 173.44
  Q 91.04 173.32 90.76 173.01
  Q 89.89 172.05 88.59 172.51
  A 0.62 0.59 -46.7 0 1 88.25 172.53
  L 81.72 170.73
  Q 81.43 170.65 81.55 170.36
  Q 81.82 169.69 81.44 168.82
  Q 81.32 168.53 81.42 168.22
  Q 81.95 166.65 83.54 166.12
  A 0.70 0.69 77.1 0 0 84.01 165.36
  Q 83.82 163.94 83.06 162.67"
/>
<path stroke="#ffa21a" vector-effect="non-scaling-stroke" d="
  M 88.73 163.63
  Q 85.70 162.22 82.72 162.23"
/>
</g>
<g>
<path fill="#ffffff" d="
  M 0.00 0.00
  L 1.01 0.00
  L 1.02 300.00
  L 0.00 300.00
  L 0.00 0.00
  Z"
/>
<path fill="#ffec74" d="
  M 1.01 0.00
  L 146.33 0.00
  Q 144.07 1.12 141.79 2.20
  C 129.29 8.18 120.90 22.53 116.44 35.27
  Q 116.27 35.75 115.79 35.90
  Q 85.84 45.18 59.29 63.13
  Q 65.09 56.11 65.91 48.99
  A 0.69 0.69 0.0 0 0 64.69 48.47
  L 59.81 54.36
  A 1.10 1.08 20.6 0 1 58.93 54.75
  C 53.04 54.49 49.69 61.93 49.59 66.82
  Q 49.58 67.30 50.00 67.51
  Q 51.27 68.18 52.34 67.34
  A 0.43 0.43 0.0 0 1 53.00 67.49
  Q 53.07 67.64 53.09 67.82
  C 23.56 89.83 3.86 121.69 2.27 159.01
  Q 1.47 177.89 4.99 198.65
  Q 5.01 198.74 5.11 198.77
  Q 5.15 198.79 5.19 198.82
  A 0.43 0.34 -85.8 0 1 5.38 199.10
  Q 8.05 214.03 13.11 225.92
  C 32.43 271.37 80.44 291.72 126.10 298.86
  C 127.14 299.02 128.58 298.85 129.78 299.21
  Q 130.77 299.51 129.75 299.69
  L 127.93 300.00
  L 1.02 300.00
  L 1.01 0.00
  Z
  M 17.83 37.71
  C 19.93 37.25 20.99 37.07 22.70 35.52
  Q 24.34 34.04 26.55 33.45
  Q 27.07 33.31 27.50 32.99
  L 37.80 25.27
  A 0.95 0.95 0.0 0 1 38.34 25.08
  Q 43.96 24.90 48.55 27.55
  C 51.11 29.02 54.02 29.93 56.42 31.83
  A 1.85 1.84 -20.9 0 0 57.23 32.19
  C 58.85 32.48 59.56 33.74 60.76 34.15
  Q 62.31 34.68 64.04 34.46
  A 0.51 0.51 0.0 0 0 64.44 33.75
  Q 62.73 29.89 59.94 26.95
  Q 48.52 16.01 34.64 19.82
  C 12.33 25.95 9.57 55.52 29.80 66.67
  Q 30.33 66.96 30.74 67.02
  A 0.33 0.32 -27.1 0 0 30.94 66.41
  C 20.18 60.85 14.69 49.63 17.83 37.71
  Z"
/>
<path fill="#ffffff" d="
  M 146.33 0.00
  L 177.05 0.00
  Q 189.13 7.86 191.51 20.86
  Q 191.59 21.31 192.04 21.23
  C 212.56 17.79 231.07 30.57 230.44 52.41
  Q 230.43 52.92 230.84 53.21
  Q 234.25 55.69 237.71 58.09
  C 278.62 86.42 303.55 133.05 298.24 183.47
  Q 296.21 202.69 290.31 219.03
  C 282.59 240.39 268.70 255.07 251.37 269.10
  C 231.23 285.42 202.09 296.80 175.98 299.25
  Q 174.57 299.38 175.97 299.60
  L 178.45 300.00
  L 127.93 300.00
  L 129.75 299.69
  Q 130.77 299.51 129.78 299.21
  C 128.58 298.85 127.14 299.02 126.10 298.86
  C 80.44 291.72 32.43 271.37 13.11 225.92
  Q 8.05 214.03 5.38 199.10
  A 0.43 0.34 -85.8 0 0 5.19 198.82
  Q 5.15 198.79 5.11 198.77
  Q 5.01 198.74 4.99 198.65
  Q 1.47 177.89 2.27 159.01
  C 3.86 121.69 23.56 89.83 53.09 67.82
  L 59.29 63.13
  Q 85.84 45.18 115.79 35.90
  Q 116.27 35.75 116.44 35.27
  C 120.90 22.53 129.29 8.18 141.79 2.20
  Q 144.07 1.12 146.33 0.00
  Z
  M 182.13 32.69
  C 186.35 19.17 177.20 5.97 162.75 6.15
  C 140.98 6.42 129.22 22.92 123.64 42.38
  A 0.97 0.97 0.0 0 1 122.99 43.03
  C 66.04 59.60 11.07 100.21 11.05 165.30
  C 11.04 204.14 22.20 240.86 55.66 263.63
  C 78.29 279.03 106.33 287.68 133.49 290.78
  Q 185.77 296.75 231.60 271.80
  C 241.74 266.28 250.78 258.04 259.17 250.17
  C 274.88 235.42 282.60 218.32 286.96 197.62
  C 298.94 140.76 272.21 87.81 222.77 59.13
  Q 222.37 58.90 221.92 58.78
  L 220.82 58.51
  Q 220.36 58.39 220.48 57.93
  Q 224.34 43.25 214.06 34.77
  C 205.20 27.46 192.35 29.13 182.55 33.08
  Q 181.93 33.32 182.13 32.69
  Z"
/>
<path fill="#ffec74" d="
  M 177.05 0.00
  L 300.00 0.00
  L 300.00 300.00
  L 178.45 300.00
  L 175.97 299.60
  Q 174.57 299.38 175.98 299.25
  C 202.09 296.80 231.23 285.42 251.37 269.10
  C 268.70 255.07 282.59 240.39 290.31 219.03
  Q 296.21 202.69 298.24 183.47
  C 303.55 133.05 278.62 86.42 237.71 58.09
  Q 234.25 55.69 230.84 53.21
  Q 230.43 52.92 230.44 52.41
  C 231.07 30.57 212.56 17.79 192.04 21.23
  Q 191.59 21.31 191.51 20.86
  Q 189.13 7.86 177.05 0.00
  Z
  M 276.68 266.36
  Q 280.83 265.09 282.87 268.37
  Q 283.14 268.80 283.56 268.52
  Q 284.11 268.17 283.70 267.54
  C 281.54 264.23 275.58 264.31 273.88 268.15
  Q 273.59 268.80 274.20 268.44
  Q 275.24 267.82 276.01 266.82
  Q 276.27 266.48 276.68 266.36
  Z"
/>
<path fill="#fff6ba" d="
  M 59.29 63.13
  L 53.09 67.82
  Q 53.07 67.64 53.00 67.49
  A 0.43 0.43 0.0 0 0 52.34 67.34
  Q 51.27 68.18 50.00 67.51
  Q 49.58 67.30 49.59 66.82
  C 49.69 61.93 53.04 54.49 58.93 54.75
  A 1.10 1.08 20.6 0 0 59.81 54.36
  L 64.69 48.47
  A 0.69 0.69 0.0 0 1 65.91 48.99
  Q 65.09 56.11 59.29 63.13
  Z"
/>
</g>
<g>
<path fill="#7cddfe" d="
  M 182.55 33.08
  C 192.35 29.13 205.20 27.46 214.06 34.77
  Q 224.34 43.25 220.48 57.93
  Q 220.36 58.39 220.82 58.51
  L 221.92 58.78
  Q 222.37 58.90 222.77 59.13
  C 272.21 87.81 298.94 140.76 286.96 197.62
  C 282.60 218.32 274.88 235.42 259.17 250.17
  C 250.78 258.04 241.74 266.28 231.60 271.80
  Q 185.77 296.75 133.49 290.78
  C 106.33 287.68 78.29 279.03 55.66 263.63
  C 22.20 240.86 11.04 204.14 11.05 165.30
  C 11.07 100.21 66.04 59.60 122.99 43.03
  A 0.97 0.97 0.0 0 0 123.64 42.38
  C 129.22 22.92 140.98 6.42 162.75 6.15
  C 177.20 5.97 186.35 19.17 182.13 32.69
  Q 181.93 33.32 182.55 33.08
  Z
  M 180.63 34.99
  L 170.33 44.70
  A 0.12 0.12 0.0 0 0 170.32 44.87
  L 170.43 44.98
  A 7.03 1.06 -43.3 0 0 176.28 40.93
  L 176.52 40.70
  A 7.03 1.06 -43.3 0 0 180.91 35.11
  L 180.80 34.99
  A 0.12 0.12 0.0 0 0 180.63 34.99
  Z
  M 79.59 92.05
  L 72.21 91.09
  Q 72.11 91.08 72.08 90.99
  Q 72.04 90.86 71.99 90.73
  Q 71.93 90.53 71.72 90.51
  C 63.05 89.54 52.63 89.63 51.29 100.83
  Q 51.23 101.36 50.86 101.74
  L 49.93 102.73
  Q 49.58 103.10 49.66 103.60
  L 50.96 111.98
  A 1.25 1.22 16.9 0 0 51.35 112.69
  L 53.58 114.65
  A 0.69 0.68 -74.3 0 1 53.80 115.05
  C 55.54 125.62 60.42 137.99 72.44 139.32
  Q 72.80 144.18 67.12 148.17
  Q 66.64 148.51 66.69 149.10
  C 67.34 155.97 75.32 159.52 80.58 161.07
  Q 81.95 161.43 82.72 162.23
  Q 82.83 163.11 83.06 162.67
  L 82.97 163.55
  Q 82.92 164.05 82.50 164.35
  C 62.95 178.14 52.87 198.93 56.89 222.84
  C 60.47 244.86 79.34 266.13 101.46 271.06
  C 104.27 271.69 106.96 273.54 109.25 274.01
  C 146.87 281.77 186.87 280.23 223.56 268.35
  C 242.77 262.01 259.65 241.98 267.69 224.12
  C 277.35 202.65 275.41 176.90 265.55 155.93
  Q 262.18 148.76 258.24 144.23
  Q 254.07 139.05 248.43 135.99
  Q 244.14 133.66 239.59 132.06
  C 228.99 128.32 214.74 130.59 204.10 134.20
  Q 205.71 123.47 205.15 113.36
  C 210.01 114.47 210.73 120.23 211.45 124.27
  C 212.51 130.15 216.76 128.41 219.42 125.08
  A 0.89 0.87 55.8 0 0 219.57 124.25
  Q 217.84 119.15 216.32 113.96
  C 214.03 106.10 211.27 101.47 202.49 102.57
  Q 202.99 101.72 202.47 100.78
  Q 199.57 92.78 194.67 85.69
  Q 189.76 79.27 183.40 74.67
  Q 151.50 52.16 114.81 65.92
  C 100.34 71.34 88.46 79.09 79.59 92.05
  Z"
/>
<path fill="#ffffff" d="
  M 59.94 26.95
  Q 58.32 27.85 57.60 26.41
  A 2.22 2.15 6.0 0 0 57.04 25.74
  Q 44.55 16.22 30.10 22.57
  Q 29.57 22.80 29.36 23.33
  Q 28.57 25.31 26.49 25.76
  Q 25.99 25.86 25.63 26.22
  C 22.04 29.83 19.34 32.12 17.83 37.71
  C 14.69 49.63 20.18 60.85 30.94 66.41
  A 0.33 0.32 -27.1 0 1 30.74 67.02
  Q 30.33 66.96 29.80 66.67
  C 9.57 55.52 12.33 25.95 34.64 19.82
  Q 48.52 16.01 59.94 26.95
  Z"
/>
<path fill="#fff6ba" d="
  M 59.94 26.95
  Q 62.73 29.89 64.44 33.75
  A 0.51 0.51 0.0 0 1 64.04 34.46
  Q 62.31 34.68 60.76 34.15
  C 59.56 33.74 58.85 32.48 57.23 32.19
  A 1.85 1.84 -20.9 0 1 56.42 31.83
  C 54.02 29.93 51.11 29.02 48.55 27.55
  Q 43.96 24.90 38.34 25.08
  A 0.95 0.95 0.0 0 0 37.80 25.27
  L 27.50 32.99
  Q 27.07 33.31 26.55 33.45
  Q 24.34 34.04 22.70 35.52
  C 20.99 37.07 19.93 37.25 17.83 37.71
  C 19.34 32.12 22.04 29.83 25.63 26.22
  Q 25.99 25.86 26.49 25.76
  Q 28.57 25.31 29.36 23.33
  Q 29.57 22.80 30.10 22.57
  Q 44.55 16.22 57.04 25.74
  A 2.22 2.15 6.0 0 1 57.60 26.41
  Q 58.32 27.85 59.94 26.95
  Z"
/>
<path fill="#fff6ba" d="
  M 276.01 266.82
  Q 275.24 267.82 274.20 268.44
  Q 273.59 268.80 273.88 268.15
  C 275.58 264.31 281.54 264.23 283.70 267.54
  Q 284.11 268.17 283.56 268.52
  Q 283.14 268.80 282.87 268.37
  Q 280.83 265.09 276.68 266.36
  Q 276.27 266.48 276.01 266.82
  Z"
/>
</g>
<g>
<path fill="#ffffff" d="
  M 180.63 34.99
  A 0.12 0.12 0.0 0 1 180.80 34.99
  L 180.91 35.11
  A 7.03 1.06 -43.3 0 1 176.52 40.70
  L 176.28 40.93
  A 7.03 1.06 -43.3 0 1 170.43 44.98
  L 170.32 44.87
  A 0.12 0.12 0.0 0 1 170.33 44.70
  L 180.63 34.99
  Z"
/>
<path fill="#ffd337" d="
  M 183.40 74.67
  C 180.14 73.62 177.14 73.03 174.25 71.10
  C 169.49 67.92 167.57 67.06 161.82 67.29
  Q 161.32 67.31 160.89 67.05
  C 156.41 64.32 151.63 64.98 146.75 65.20
  A 0.61 0.60 50.9 0 0 146.63 66.39
  L 147.41 66.59
  A 0.08 0.08 0.0 0 1 147.39 66.75
  Q 147.21 66.75 146.99 66.75
  Q 146.95 66.75 147.02 67.24
  Q 147.04 67.38 147.09 67.50
  A 0.13 0.13 0.0 0 1 146.99 67.69
  Q 144.35 68.04 143.91 70.73
  Q 143.82 71.32 144.28 71.69
  L 145.89 72.99
  Q 146.26 73.28 146.34 73.74
  Q 146.60 75.26 147.82 76.19
  Q 148.20 76.47 148.27 76.94
  L 148.70 80.02
  Q 148.77 80.53 149.10 80.91
  Q 152.12 84.41 151.66 88.67
  A 3.33 3.33 0.0 0 1 149.96 91.24
  Q 147.51 92.60 145.69 94.74
  Q 145.36 95.13 144.85 95.21
  Q 143.63 95.40 142.51 95.85
  C 140.87 96.52 138.49 96.59 137.34 98.33
  A 1.24 1.24 0.0 0 0 137.95 100.19
  Q 140.22 101.03 139.54 102.23
  Q 130.72 98.12 126.75 97.75
  C 115.25 96.66 103.73 96.02 92.26 94.06
  Q 86.00 92.99 79.59 92.05
  C 88.46 79.09 100.34 71.34 114.81 65.92
  Q 151.50 52.16 183.40 74.67
  Z"
/>
<path fill="#ffc42a" d="
  M 183.40 74.67
  Q 189.76 79.27 194.67 85.69
  Q 192.29 85.97 191.59 84.48
  Q 191.37 84.02 190.99 83.69
  C 188.69 81.71 186.95 79.43 184.23 78.14
  Q 182.05 77.11 179.81 76.19
  C 177.64 75.30 175.35 73.53 172.54 72.97
  Q 172.07 72.87 171.94 73.34
  Q 171.47 75.06 169.90 75.03
  A 1.23 1.22 -22.1 0 0 169.01 77.12
  C 170.66 78.75 175.69 85.66 173.42 88.26
  A 1.84 1.80 72.2 0 0 173.03 89.04
  C 172.44 91.53 171.83 94.48 169.90 96.30
  C 168.57 97.55 167.49 98.33 166.17 99.89
  Q 165.42 100.77 164.18 100.97
  Q 155.12 102.41 146.56 103.27
  A 0.99 0.99 0.0 0 0 146.16 105.11
  Q 150.16 107.43 151.33 110.62
  Q 145.52 105.39 139.54 102.23
  Q 140.22 101.03 137.95 100.19
  A 1.24 1.24 0.0 0 1 137.34 98.33
  C 138.49 96.59 140.87 96.52 142.51 95.85
  Q 143.63 95.40 144.85 95.21
  Q 145.36 95.13 145.69 94.74
  Q 147.51 92.60 149.96 91.24
  A 3.33 3.33 0.0 0 0 151.66 88.67
  Q 152.12 84.41 149.10 80.91
  Q 148.77 80.53 148.70 80.02
  L 148.27 76.94
  Q 148.20 76.47 147.82 76.19
  Q 146.60 75.26 146.34 73.74
  Q 146.26 73.28 145.89 72.99
  L 144.28 71.69
  Q 143.82 71.32 143.91 70.73
  Q 144.35 68.04 146.99 67.69
  A 0.13 0.13 0.0 0 0 147.09 67.50
  Q 147.04 67.38 147.02 67.24
  Q 146.95 66.75 146.99 66.75
  Q 147.21 66.75 147.39 66.75
  A 0.08 0.08 0.0 0 0 147.41 66.59
  L 146.63 66.39
  A 0.61 0.60 50.9 0 1 146.75 65.20
  C 151.63 64.98 156.41 64.32 160.89 67.05
  Q 161.32 67.31 161.82 67.29
  C 167.57 67.06 169.49 67.92 174.25 71.10
  C 177.14 73.03 180.14 73.62 183.40 74.67
  Z"
/>
<path fill="#ffb41a" d="
  M 194.67 85.69
  Q 199.57 92.78 202.47 100.78
  Q 201.29 100.32 201.24 98.62
  A 2.52 2.52 0.0 0 0 198.20 96.24
  Q 196.00 96.70 193.80 96.18
  A 1.07 1.06 36.2 0 0 193.01 96.30
  C 188.76 98.80 180.43 103.11 180.47 108.54
  Q 170.82 111.87 161.05 115.28
  Q 158.08 116.32 155.70 116.31
  A 1.01 1.00 72.4 0 1 154.88 115.88
  L 151.33 110.62
  Q 150.16 107.43 146.16 105.11
  A 0.99 0.99 0.0 0 1 146.56 103.27
  Q 155.12 102.41 164.18 100.97
  Q 165.42 100.77 166.17 99.89
  C 167.49 98.33 168.57 97.55 169.90 96.30
  C 171.83 94.48 172.44 91.53 173.03 89.04
  A 1.84 1.80 72.2 0 1 173.42 88.26
  C 175.69 85.66 170.66 78.75 169.01 77.12
  A 1.23 1.22 -22.1 0 1 169.90 75.03
  Q 171.47 75.06 171.94 73.34
  Q 172.07 72.87 172.54 72.97
  C 175.35 73.53 177.64 75.30 179.81 76.19
  Q 182.05 77.11 184.23 78.14
  C 186.95 79.43 188.69 81.71 190.99 83.69
  Q 191.37 84.02 191.59 84.48
  Q 192.29 85.97 194.67 85.69
  Z"
/>
<path fill="#1b1a19" d="
  M 79.59 92.05
  Q 86.00 92.99 92.26 94.06
  C 103.73 96.02 115.25 96.66 126.75 97.75
  Q 130.72 98.12 139.54 102.23
  Q 145.52 105.39 151.33 110.62
  L 154.88 115.88
  A 1.01 1.00 72.4 0 0 155.70 116.31
  Q 158.08 116.32 161.05 115.28
  Q 170.82 111.87 180.47 108.54
  C 187.81 106.03 197.69 102.08 202.49 102.57
  C 211.27 101.47 214.03 106.10 216.32 113.96
  Q 217.84 119.15 219.57 124.25
  A 0.89 0.87 55.8 0 1 219.42 125.08
  C 216.76 128.41 212.51 130.15 211.45 124.27
  C 210.73 120.23 210.01 114.47 205.15 113.36
  C 203.65 113.18 202.25 113.08 200.76 113.72
  Q 180.20 122.41 159.07 129.70
  Q 158.55 129.88 158.01 129.80
  Q 155.83 129.50 153.74 130.03
  A 1.29 1.29 0.0 0 0 152.84 130.85
  C 149.11 141.26 140.84 149.95 128.98 148.71
  L 121.62 147.18
  Q 103.03 137.94 96.14 119.17
  C 95.30 117.12 94.60 114.78 93.31 113.05
  Q 91.20 110.20 90.39 112.44
  C 87.83 120.64 86.02 127.19 80.58 134.05
  Q 77.40 138.06 72.44 139.32
  C 60.42 137.99 55.54 125.62 53.80 115.05
  A 0.69 0.68 -74.3 0 0 53.58 114.65
  L 51.35 112.69
  A 1.25 1.22 16.9 0 1 50.96 111.98
  L 49.66 103.60
  Q 49.58 103.10 49.93 102.73
  L 50.86 101.74
  Q 51.23 101.36 51.29 100.83
  C 52.63 89.63 63.05 89.54 71.72 90.51
  Q 71.93 90.53 71.99 90.73
  Q 72.04 90.86 72.08 90.99
  Q 72.11 91.08 72.21 91.09
  L 79.59 92.05
  Z"
/>
<path fill="#ffa911" d="
  M 202.47 100.78
  Q 202.99 101.72 202.49 102.57
  C 197.69 102.08 187.81 106.03 180.47 108.54
  C 180.43 103.11 188.76 98.80 193.01 96.30
  A 1.07 1.06 36.2 0 1 193.80 96.18
  Q 196.00 96.70 198.20 96.24
  A 2.52 2.52 0.0 0 1 201.24 98.62
  Q 201.29 100.32 202.47 100.78
  Z"
/>
<path fill="#ffa911" d="
  M 96.14 119.17
  Q 95.03 119.28 95.26 120.29
  Q 89.31 126.75 87.74 134.73
  Q 87.04 135.67 85.19 135.49
  A 0.92 0.90 25.4 0 0 84.47 135.74
  Q 83.55 136.65 82.25 136.51
  Q 81.53 136.43 81.98 135.86
  Q 87.68 128.60 90.27 121.53
  Q 90.89 119.85 91.56 119.04
  Q 91.85 118.69 91.74 118.25
  Q 91.40 116.94 92.46 116.36
  Q 92.96 116.09 93.05 115.53
  Q 93.36 113.55 90.39 112.44
  Q 91.20 110.20 93.31 113.05
  C 94.60 114.78 95.30 117.12 96.14 119.17
  Z"
/>
<path fill="#ff570b" d="
  M 90.39 112.44
  Q 93.36 113.55 93.05 115.53
  Q 92.96 116.09 92.46 116.36
  Q 91.40 116.94 91.74 118.25
  Q 91.85 118.69 91.56 119.04
  Q 90.89 119.85 90.27 121.53
  Q 87.68 128.60 81.98 135.86
  Q 81.53 136.43 82.25 136.51
  Q 83.55 136.65 84.47 135.74
  A 0.92 0.90 25.4 0 1 85.19 135.49
  Q 87.04 135.67 87.74 134.73
  Q 97.93 138.34 106.16 146.74
  Q 103.81 146.88 101.91 148.77
  Q 101.51 149.17 101.78 149.67
  Q 103.20 152.29 105.99 151.77
  A 0.80 0.79 -17.8 0 1 106.84 152.20
  L 107.69 153.87
  A 0.48 0.48 0.0 0 0 108.52 153.91
  L 109.53 152.29
  A 0.61 0.61 0.0 0 1 110.41 152.12
  L 111.45 152.90
  A 0.35 0.34 51.0 0 1 111.39 153.49
  Q 110.50 153.90 110.49 154.87
  Q 110.49 155.37 110.12 155.72
  Q 108.93 156.83 110.05 157.98
  A 0.49 0.48 52.7 0 1 109.95 158.73
  Q 109.04 159.27 108.07 158.75
  Q 107.73 158.57 107.35 158.62
  C 104.83 158.93 103.18 160.54 100.84 160.75
  C 94.20 161.36 87.14 160.89 80.58 161.07
  C 75.32 159.52 67.34 155.97 66.69 149.10
  Q 66.64 148.51 67.12 148.17
  Q 72.80 144.18 72.44 139.32
  Q 77.40 138.06 80.58 134.05
  C 86.02 127.19 87.83 120.64 90.39 112.44
  Z"
/>
<path fill="#ffa911" d="
  M 205.15 113.36
  Q 205.71 123.47 204.10 134.20
  L 201.33 146.71
  Q 198.75 150.28 200.97 153.09
  A 1.41 1.40 76.2 0 0 201.79 153.59
  Q 206.31 154.48 210.89 154.71
  C 212.69 154.81 214.69 155.84 216.19 155.83
  C 221.95 155.80 227.19 158.88 232.00 160.22
  Q 232.33 160.31 232.43 160.53
  Q 232.64 161.00 232.12 161.00
  L 231.01 161.00
  Q 230.30 161.00 230.47 161.69
  Q 230.95 163.60 232.74 164.27
  Q 233.25 164.46 233.25 165.00
  L 233.25 169.74
  Q 233.25 170.27 232.80 169.99
  Q 231.42 169.13 229.72 169.63
  Q 229.27 169.77 228.89 170.04
  Q 227.95 170.72 227.07 169.85
  A 1.04 1.03 61.5 0 0 226.18 169.58
  Q 224.35 169.92 222.49 169.79
  Q 222.30 169.78 222.09 169.95
  Q 221.87 170.13 222.16 170.15
  L 226.49 170.47
  A 0.37 0.36 -42.1 0 1 226.45 171.20
  Q 214.31 170.93 202.27 169.62
  C 200.07 169.38 197.80 168.36 195.37 168.17
  C 190.89 167.82 188.20 167.30 184.88 168.79
  C 181.28 170.42 177.63 171.74 174.02 173.34
  A 1.46 1.40 35.5 0 1 173.26 173.45
  Q 171.43 173.22 170.16 174.43
  A 1.25 1.24 24.7 0 1 169.23 174.77
  C 165.11 174.54 162.98 175.82 159.20 177.00
  C 157.69 177.47 155.97 176.54 154.19 176.94
  Q 148.67 178.17 143.28 176.53
  Q 142.43 176.27 143.05 175.64
  Q 143.48 175.21 143.09 174.54
  Q 142.85 174.11 143.10 173.69
  C 144.78 170.81 147.53 168.69 149.12 166.44
  Q 151.01 163.76 152.52 160.86
  A 1.16 1.16 0.0 0 0 151.83 159.21
  Q 149.01 158.34 147.29 155.94
  A 1.31 1.27 -9.7 0 0 146.56 155.44
  L 132.79 151.99
  Q 132.20 151.84 131.95 151.29
  Q 131.20 149.66 129.94 150.40
  Q 129.42 150.70 129.18 150.15
  Q 128.89 149.50 128.98 148.71
  C 140.84 149.95 149.11 141.26 152.84 130.85
  A 1.29 1.29 0.0 0 1 153.74 130.03
  Q 155.83 129.50 158.01 129.80
  Q 158.55 129.88 159.07 129.70
  Q 180.20 122.41 200.76 113.72
  C 202.25 113.08 203.65 113.18 205.15 113.36
  Z"
/>
<path fill="#ffec74" d="
  M 96.14 119.17
  Q 103.03 137.94 121.62 147.18
  Q 115.87 146.89 109.99 141.04
  Q 100.17 132.94 95.26 120.29
  Q 95.03 119.28 96.14 119.17
  Z"
/>
<path fill="#ffc42a" d="
  M 95.26 120.29
  Q 100.17 132.94 109.99 141.04
  L 109.88 141.55
  Q 109.79 141.98 110.21 142.12
  Q 112.07 142.74 112.01 144.73
  A 1.11 1.10 14.6 0 0 112.62 145.76
  L 114.16 146.54
  A 0.88 0.87 -29.2 0 1 113.69 148.19
  Q 112.05 148.05 111.44 148.82
  Q 108.72 146.92 106.16 146.74
  Q 97.93 138.34 87.74 134.73
  Q 89.31 126.75 95.26 120.29
  Z"
/>
<path fill="#ffc42a" d="
  M 258.24 144.23
  Q 257.22 144.36 256.19 143.33
  Q 255.60 142.73 255.07 143.03
  Q 254.69 143.24 254.33 142.99
  L 242.99 135.05
  Q 242.56 134.75 242.03 134.73
  Q 238.76 134.66 235.82 133.29
  Q 235.35 133.08 234.85 133.14
  C 230.45 133.72 226.38 132.47 222.50 132.82
  Q 217.92 133.24 213.40 134.08
  C 210.83 134.57 209.42 136.17 207.54 137.69
  A 2.12 2.12 0.0 0 0 208.24 141.36
  L 213.71 143.07
  Q 214.13 143.21 213.92 142.82
  L 213.74 142.47
  A 0.12 0.12 0.0 0 1 213.92 142.32
  L 218.63 146.15
  Q 218.95 146.41 219.00 146.82
  Q 219.02 146.95 219.01 147.08
  Q 218.98 147.57 219.40 147.81
  Q 221.64 149.12 222.61 151.44
  A 0.82 0.82 0.0 0 1 222.31 152.45
  C 218.80 154.80 208.34 152.79 202.22 151.75
  Q 201.71 151.66 201.37 151.28
  Q 199.91 149.62 201.33 146.71
  L 204.10 134.20
  C 214.74 130.59 228.99 128.32 239.59 132.06
  Q 244.14 133.66 248.43 135.99
  Q 254.07 139.05 258.24 144.23
  Z"
/>
<path fill="#ffb41a" d="
  M 258.24 144.23
  Q 262.18 148.76 265.55 155.93
  C 275.41 176.90 277.35 202.65 267.69 224.12
  C 259.65 241.98 242.77 262.01 223.56 268.35
  Q 223.09 267.19 223.65 266.57
  Q 223.94 266.26 223.95 265.83
  Q 224.01 263.94 222.10 263.99
  Q 221.54 264.00 221.09 264.33
  Q 219.06 265.81 216.45 265.66
  Q 216.36 265.65 216.33 265.74
  Q 216.28 265.90 216.23 266.04
  Q 216.12 266.35 215.79 266.39
  Q 212.73 266.74 209.67 267.10
  C 207.83 267.31 206.04 268.17 204.10 268.39
  C 201.85 268.64 199.08 269.61 196.70 269.39
  C 194.82 269.21 193.15 267.43 190.59 268.54
  Q 190.15 268.73 189.67 268.70
  Q 186.70 268.48 183.71 268.54
  C 181.27 268.59 177.20 266.71 175.35 267.99
  A 0.85 0.79 25.4 0 1 174.87 268.14
  Q 173.13 268.16 172.02 266.87
  Q 171.69 266.50 171.20 266.50
  L 166.96 266.50
  Q 166.36 266.50 166.46 265.91
  Q 167.05 262.36 164.64 259.76
  A 0.58 0.57 -40.7 0 1 164.71 258.92
  Q 166.44 257.53 166.59 255.38
  Q 166.64 254.79 167.08 254.40
  C 168.80 252.90 170.24 252.23 171.62 250.28
  C 175.34 245.04 181.19 241.61 185.08 238.39
  Q 195.24 229.97 207.10 222.91
  A 1.41 1.40 -30.9 0 1 209.03 223.39
  Q 211.54 227.56 216.04 229.38
  Q 216.51 229.57 216.93 229.29
  Q 220.59 226.87 224.51 225.00
  C 229.34 222.68 232.43 217.45 234.61 212.78
  C 235.22 211.48 236.43 210.49 237.02 209.25
  Q 238.09 206.98 240.74 200.53
  Q 240.97 199.97 240.37 200.00
  Q 240.19 200.00 240.04 200.00
  Q 239.54 199.98 239.54 199.48
  Q 239.55 195.03 236.09 192.93
  C 233.20 191.17 232.94 190.82 231.16 188.34
  C 226.91 182.44 218.68 183.17 212.59 179.88
  Q 206.93 176.81 200.37 176.72
  Q 200.12 176.72 200.02 176.49
  Q 199.94 176.30 199.74 176.27
  C 194.38 175.43 180.97 173.80 176.34 176.26
  Q 175.92 176.48 175.44 176.46
  Q 172.39 176.30 169.93 177.96
  Q 169.50 178.25 168.98 178.25
  L 163.79 178.25
  Q 163.33 178.25 163.03 178.59
  Q 161.14 180.72 159.04 178.93
  Q 158.66 178.61 158.17 178.66
  Q 151.16 179.41 144.12 179.95
  C 138.88 180.35 133.92 179.42 128.67 178.90
  C 126.75 178.71 125.27 177.50 123.04 177.98
  Q 122.54 178.09 122.09 177.83
  C 119.78 176.50 114.61 176.51 111.58 175.41
  Q 111.12 175.24 110.90 174.80
  Q 110.73 174.42 110.45 174.27
  Q 105.99 171.80 97.48 167.72
  C 96.23 167.12 94.88 167.33 94.08 165.64
  Q 93.89 165.24 93.47 165.11
  L 88.73 163.63
  C 93.71 163.90 98.57 165.94 102.79 166.04
  C 112.14 166.26 117.29 163.80 123.34 156.80
  A 0.70 0.70 0.0 0 0 123.13 155.72
  L 120.47 154.35
  Q 120.14 154.18 119.77 154.22
  L 117.91 154.46
  A 0.64 0.64 0.0 0 1 117.20 153.70
  L 117.50 152.17
  Q 117.60 151.68 117.15 151.47
  L 111.44 148.82
  Q 112.05 148.05 113.69 148.19
  A 0.88 0.87 -29.2 0 0 114.16 146.54
  L 112.62 145.76
  A 1.11 1.10 14.6 0 1 112.01 144.73
  Q 112.07 142.74 110.21 142.12
  Q 109.79 141.98 109.88 141.55
  L 109.99 141.04
  Q 115.87 146.89 121.62 147.18
  L 128.98 148.71
  Q 128.89 149.50 129.18 150.15
  Q 129.42 150.70 129.94 150.40
  Q 131.20 149.66 131.95 151.29
  Q 132.20 151.84 132.79 151.99
  L 146.56 155.44
  A 1.31 1.27 -9.7 0 1 147.29 155.94
  Q 149.01 158.34 151.83 159.21
  A 1.16 1.16 0.0 0 1 152.52 160.86
  Q 151.01 163.76 149.12 166.44
  C 147.53 168.69 144.78 170.81 143.10 173.69
  Q 142.85 174.11 143.09 174.54
  Q 143.48 175.21 143.05 175.64
  Q 142.43 176.27 143.28 176.53
  Q 148.67 178.17 154.19 176.94
  C 155.97 176.54 157.69 177.47 159.20 177.00
  C 162.98 175.82 165.11 174.54 169.23 174.77
  A 1.25 1.24 24.7 0 0 170.16 174.43
  Q 171.43 173.22 173.26 173.45
  A 1.46 1.40 35.5 0 0 174.02 173.34
  C 177.63 171.74 181.28 170.42 184.88 168.79
  C 188.20 167.30 190.89 167.82 195.37 168.17
  C 197.80 168.36 200.07 169.38 202.27 169.62
  Q 214.31 170.93 226.45 171.20
  A 0.37 0.36 -42.1 0 0 226.49 170.47
  L 222.16 170.15
  Q 221.87 170.13 222.09 169.95
  Q 222.30 169.78 222.49 169.79
  Q 224.35 169.92 226.18 169.58
  A 1.04 1.03 61.5 0 1 227.07 169.85
  Q 227.95 170.72 228.89 170.04
  Q 229.27 169.77 229.72 169.63
  Q 231.42 169.13 232.80 169.99
  Q 233.25 170.27 233.25 169.74
  L 233.25 165.00
  Q 233.25 164.46 232.74 164.27
  Q 230.95 163.60 230.47 161.69
  Q 230.30 161.00 231.01 161.00
  L 232.12 161.00
  Q 232.64 161.00 232.43 160.53
  Q 232.33 160.31 232.00 160.22
  C 227.19 158.88 221.95 155.80 216.19 155.83
  C 214.69 155.84 212.69 154.81 210.89 154.71
  Q 206.31 154.48 201.79 153.59
  A 1.41 1.40 76.2 0 1 200.97 153.09
  Q 198.75 150.28 201.33 146.71
  Q 199.91 149.62 201.37 151.28
  Q 201.71 151.66 202.22 151.75
  C 208.34 152.79 218.80 154.80 222.31 152.45
  A 0.82 0.82 0.0 0 0 222.61 151.44
  Q 221.64 149.12 219.40 147.81
  Q 218.98 147.57 219.01 147.08
  Q 219.02 146.95 219.00 146.82
  Q 218.95 146.41 218.63 146.15
  L 213.92 142.32
  A 0.12 0.12 0.0 0 0 213.74 142.47
  L 213.92 142.82
  Q 214.13 143.21 213.71 143.07
  L 208.24 141.36
  A 2.12 2.12 0.0 0 1 207.54 137.69
  C 209.42 136.17 210.83 134.57 213.40 134.08
  Q 217.92 133.24 222.50 132.82
  C 226.38 132.47 230.45 133.72 234.85 133.14
  Q 235.35 133.08 235.82 133.29
  Q 238.76 134.66 242.03 134.73
  Q 242.56 134.75 242.99 135.05
  L 254.33 142.99
  Q 254.69 143.24 255.07 143.03
  Q 255.60 142.73 256.19 143.33
  Q 257.22 144.36 258.24 144.23
  Z"
/>
<path fill="#fe800a" d="
  M 106.16 146.74
  Q 108.72 146.92 111.44 148.82
  L 117.15 151.47
  Q 117.60 151.68 117.50 152.17
  L 117.20 153.70
  A 0.64 0.64 0.0 0 0 117.91 154.46
  L 119.77 154.22
  Q 120.14 154.18 120.47 154.35
  L 123.13 155.72
  A 0.70 0.70 0.0 0 1 123.34 156.80
  C 117.29 163.80 112.14 166.26 102.79 166.04
  C 98.57 165.94 93.71 163.90 88.73 163.63
  Q 85.70 162.22 82.72 162.23
  Q 81.95 161.43 80.58 161.07
  C 87.14 160.89 94.20 161.36 100.84 160.75
  C 103.18 160.54 104.83 158.93 107.35 158.62
  Q 107.73 158.57 108.07 158.75
  Q 109.04 159.27 109.95 158.73
  A 0.49 0.48 52.7 0 0 110.05 157.98
  Q 108.93 156.83 110.12 155.72
  Q 110.49 155.37 110.49 154.87
  Q 110.50 153.90 111.39 153.49
  A 0.35 0.34 51.0 0 0 111.45 152.90
  L 110.41 152.12
  A 0.61 0.61 0.0 0 0 109.53 152.29
  L 108.52 153.91
  A 0.48 0.48 0.0 0 1 107.69 153.87
  L 106.84 152.20
  A 0.80 0.79 -17.8 0 0 105.99 151.77
  Q 103.20 152.29 101.78 149.67
  Q 101.51 149.17 101.91 148.77
  Q 103.81 146.88 106.16 146.74
  Z"
/>
<path fill="#ffc42a" d="
  M 82.72 162.23
  Q 85.70 162.22 88.73 163.63
  L 93.47 165.11
  Q 93.89 165.24 94.08 165.64
  C 94.88 167.33 96.23 167.12 97.48 167.72
  Q 105.99 171.80 110.45 174.27
  Q 110.73 174.42 110.90 174.80
  Q 111.12 175.24 111.58 175.41
  C 114.61 176.51 119.78 176.50 122.09 177.83
  Q 122.54 178.09 123.04 177.98
  C 125.27 177.50 126.75 178.71 128.67 178.90
  C 133.92 179.42 138.88 180.35 144.12 179.95
  Q 151.16 179.41 158.17 178.66
  Q 158.66 178.61 159.04 178.93
  Q 161.14 180.72 163.03 178.59
  Q 163.33 178.25 163.79 178.25
  L 168.98 178.25
  Q 169.50 178.25 169.93 177.96
  Q 172.39 176.30 175.44 176.46
  Q 175.92 176.48 176.34 176.26
  C 180.97 173.80 194.38 175.43 199.74 176.27
  Q 199.94 176.30 200.02 176.49
  Q 200.12 176.72 200.37 176.72
  Q 206.93 176.81 212.59 179.88
  C 218.68 183.17 226.91 182.44 231.16 188.34
  C 232.94 190.82 233.20 191.17 236.09 192.93
  Q 239.55 195.03 239.54 199.48
  Q 239.54 199.98 240.04 200.00
  Q 240.19 200.00 240.37 200.00
  Q 240.97 199.97 240.74 200.53
  Q 238.09 206.98 237.02 209.25
  C 236.43 210.49 235.22 211.48 234.61 212.78
  C 232.43 217.45 229.34 222.68 224.51 225.00
  Q 220.59 226.87 216.93 229.29
  Q 216.51 229.57 216.04 229.38
  Q 211.54 227.56 209.03 223.39
  A 1.41 1.40 -30.9 0 0 207.10 222.91
  Q 195.24 229.97 185.08 238.39
  C 181.19 241.61 175.34 245.04 171.62 250.28
  C 170.24 252.23 168.80 252.90 167.08 254.40
  Q 166.64 254.79 166.59 255.38
  Q 166.44 257.53 164.71 258.92
  A 0.58 0.57 -40.7 0 0 164.64 259.76
  Q 167.05 262.36 166.46 265.91
  Q 166.36 266.50 166.96 266.50
  L 171.20 266.50
  Q 171.69 266.50 172.02 266.87
  Q 173.13 268.16 174.87 268.14
  A 0.85 0.79 25.4 0 0 175.35 267.99
  C 177.20 266.71 181.27 268.59 183.71 268.54
  Q 186.70 268.48 189.67 268.70
  Q 190.15 268.73 190.59 268.54
  C 193.15 267.43 194.82 269.21 196.70 269.39
  C 199.08 269.61 201.85 268.64 204.10 268.39
  C 206.04 268.17 207.83 267.31 209.67 267.10
  Q 212.73 266.74 215.79 266.39
  Q 216.12 266.35 216.23 266.04
  Q 216.28 265.90 216.33 265.74
  Q 216.36 265.65 216.45 265.66
  Q 219.06 265.81 221.09 264.33
  Q 221.54 264.00 222.10 263.99
  Q 224.01 263.94 223.95 265.83
  Q 223.94 266.26 223.65 266.57
  Q 223.09 267.19 223.56 268.35
  C 186.87 280.23 146.87 281.77 109.25 274.01
  C 106.96 273.54 104.27 271.69 101.46 271.06
  C 79.34 266.13 60.47 244.86 56.89 222.84
  Q 59.16 223.02 59.61 226.60
  Q 59.99 229.67 60.42 230.86
  Q 64.56 242.34 73.95 252.84
  A 1.12 0.27 47.4 0 0 74.44 252.57
  Q 74.30 252.41 74.16 252.29
  A 0.37 0.37 0.0 0 1 74.33 251.65
  Q 75.48 251.38 76.41 252.37
  Q 77.81 253.87 79.27 255.29
  Q 79.54 255.55 79.91 255.52
  L 80.81 255.45
  A 1.34 1.34 0.0 0 1 82.22 257.11
  Q 81.93 258.30 82.80 259.31
  A 0.65 0.65 0.0 0 0 83.71 259.40
  Q 85.96 257.60 87.19 259.90
  A 0.98 0.97 77.5 0 0 88.00 260.42
  L 89.20 260.49
  Q 89.85 260.53 89.64 259.91
  L 89.49 259.46
  Q 89.34 259.04 89.78 258.94
  L 92.79 258.25
  Q 93.29 258.14 93.00 257.71
  L 91.43 255.45
  Q 91.14 255.03 91.65 255.02
  L 93.47 254.99
  A 0.31 0.31 0.0 0 0 93.61 254.40
  L 90.82 252.97
  Q 89.54 252.31 90.98 252.19
  L 94.45 251.92
  A 0.37 0.36 65.5 0 0 94.68 251.30
  L 93.80 250.42
  Q 93.21 249.84 94.00 249.59
  L 101.03 247.37
  Q 101.51 247.22 101.83 247.60
  C 103.03 249.04 104.03 247.89 105.25 248.77
  Q 105.67 249.07 106.18 248.94
  C 111.46 247.57 116.73 248.23 121.89 245.43
  C 127.72 242.27 133.21 239.73 138.26 235.36
  C 139.86 233.98 141.62 231.94 143.95 230.19
  C 152.66 223.63 164.78 213.44 164.91 201.04
  Q 164.92 200.10 163.93 199.98
  Q 163.47 199.92 163.35 199.47
  Q 162.35 195.70 159.80 192.78
  A 1.41 1.40 -18.0 0 0 158.87 192.31
  Q 155.94 192.06 153.16 191.26
  C 141.40 187.83 129.25 189.05 117.29 187.17
  A 0.32 0.31 9.0 0 1 117.02 186.81
  L 117.13 186.07
  A 0.32 0.30 -78.6 0 0 116.91 185.72
  L 109.45 183.69
  Q 108.98 183.56 108.67 183.18
  L 107.30 181.44
  A 0.62 0.52 -4.9 0 0 107.03 181.25
  C 103.82 180.14 101.67 179.45 98.79 177.17
  Q 95.53 174.58 91.45 173.44
  Q 91.04 173.32 90.76 173.01
  Q 89.89 172.05 88.59 172.51
  A 0.62 0.59 -46.7 0 1 88.25 172.53
  L 81.72 170.73
  Q 81.43 170.65 81.55 170.36
  Q 81.82 169.69 81.44 168.82
  Q 81.32 168.53 81.42 168.22
  Q 81.95 166.65 83.54 166.12
  A 0.70 0.69 77.1 0 0 84.01 165.36
  Q 83.82 163.94 83.06 162.67
  Q 82.83 163.11 82.72 162.23
  Z"
/>
<path fill="#ffd337" d="
  M 83.06 162.67
  Q 83.82 163.94 84.01 165.36
  A 0.70 0.69 77.1 0 1 83.54 166.12
  Q 81.95 166.65 81.42 168.22
  Q 81.32 168.53 81.44 168.82
  Q 81.82 169.69 81.55 170.36
  Q 81.43 170.65 81.72 170.73
  L 88.25 172.53
  A 0.62 0.59 -46.7 0 0 88.59 172.51
  Q 89.89 172.05 90.76 173.01
  Q 91.04 173.32 91.45 173.44
  Q 95.53 174.58 98.79 177.17
  C 101.67 179.45 103.82 180.14 107.03 181.25
  A 0.62 0.52 -4.9 0 1 107.30 181.44
  L 108.67 183.18
  Q 108.98 183.56 109.45 183.69
  L 116.91 185.72
  A 0.32 0.30 -78.6 0 1 117.13 186.07
  L 117.02 186.81
  A 0.32 0.31 9.0 0 0 117.29 187.17
  C 129.25 189.05 141.40 187.83 153.16 191.26
  Q 155.94 192.06 158.87 192.31
  A 1.41 1.40 -18.0 0 1 159.80 192.78
  Q 162.35 195.70 163.35 199.47
  Q 163.47 199.92 163.93 199.98
  Q 164.92 200.10 164.91 201.04
  C 164.78 213.44 152.66 223.63 143.95 230.19
  C 141.62 231.94 139.86 233.98 138.26 235.36
  C 133.21 239.73 127.72 242.27 121.89 245.43
  C 116.73 248.23 111.46 247.57 106.18 248.94
  Q 105.67 249.07 105.25 248.77
  C 104.03 247.89 103.03 249.04 101.83 247.60
  Q 101.51 247.22 101.03 247.37
  L 94.00 249.59
  Q 93.21 249.84 93.80 250.42
  L 94.68 251.30
  A 0.37 0.36 65.5 0 1 94.45 251.92
  L 90.98 252.19
  Q 89.54 252.31 90.82 252.97
  L 93.61 254.40
  A 0.31 0.31 0.0 0 1 93.47 254.99
  L 91.65 255.02
  Q 91.14 255.03 91.43 255.45
  L 93.00 257.71
  Q 93.29 258.14 92.79 258.25
  L 89.78 258.94
  Q 89.34 259.04 89.49 259.46
  L 89.64 259.91
  Q 89.85 260.53 89.20 260.49
  L 88.00 260.42
  A 0.98 0.97 77.5 0 1 87.19 259.90
  Q 85.96 257.60 83.71 259.40
  A 0.65 0.65 0.0 0 1 82.80 259.31
  Q 81.93 258.30 82.22 257.11
  A 1.34 1.34 0.0 0 0 80.81 255.45
  L 79.91 255.52
  Q 79.54 255.55 79.27 255.29
  Q 77.81 253.87 76.41 252.37
  Q 75.48 251.38 74.33 251.65
  A 0.37 0.37 0.0 0 0 74.16 252.29
  Q 74.30 252.41 74.44 252.57
  A 1.12 0.27 47.4 0 1 73.95 252.84
  Q 64.56 242.34 60.42 230.86
  Q 59.99 229.67 59.61 226.60
  Q 59.16 223.02 56.89 222.84
  C 52.87 198.93 62.95 178.14 82.50 164.35
  Q 82.92 164.05 82.97 163.55
  L 83.06 162.67
  Z"
/>
</g>
</svg>
