<?xml version="1.0" encoding="UTF-8" standalone="no"?>
<!DOCTYPE svg PUBLIC "-//W3C//DTD SVG 1.1//EN" "http://www.w3.org/Graphics/SVG/1.1/DTD/svg11.dtd">
<svg width="100%" height="100%" viewBox="0 0 225 225" version="1.1" xmlns="http://www.w3.org/2000/svg" xmlns:xlink="http://www.w3.org/1999/xlink" xml:space="preserve" xmlns:serif="http://www.serif.com/" style="fill-rule:evenodd;clip-rule:evenodd;stroke-linejoin:round;stroke-miterlimit:2;">
    <g>
        <path d="M158.48,97.07C158.423,96.862 158.233,96.717 158.017,96.717C157.909,96.717 157.805,96.753 157.72,96.82C144.75,106.77 130.8,111.66 113.95,109.82C111.87,109.593 110.637,108.657 110.25,107.01C110.163,106.657 110.21,106.32 110.39,106C111.197,104.533 111.88,103.513 112.44,102.94C118.72,96.47 123.04,90.96 123.01,82.41C122.96,68.81 111.03,60.87 98.26,63.63C90.127,65.39 83.89,70.157 79.55,77.93C79.392,78.217 79.411,78.572 79.6,78.84C81.18,81.01 87.67,88.11 86.07,91.91C84.11,96.6 76.43,96.98 72.44,95.6C65.933,93.367 61.21,89.163 58.27,82.99C56.52,79.34 57.75,74.15 62.74,74.82C67.29,75.43 73.94,75.06 77.16,71.28C81.76,65.91 86.51,61.61 93.25,59.33C123.14,49.19 140.25,83.55 118.9,104.08C118.799,104.176 118.741,104.31 118.741,104.45C118.741,104.729 118.971,104.959 119.25,104.96C135.15,105.02 146.13,98.68 158.38,89.35C158.776,89.047 159.26,88.883 159.759,88.883C160.689,88.883 161.529,89.455 161.87,90.32C173.66,120.57 168.45,158.07 130.99,165.77C115.083,169.037 99.8,167.297 85.14,160.55C75.75,156.23 66.77,148.22 64.42,138.22C61,123.67 70.14,111.09 80.08,101.86C80.12,101.823 80.162,101.787 80.205,101.753C81.124,101.031 82.471,101.188 83.19,102.102C83.225,102.147 83.259,102.193 83.29,102.24C84.383,103.88 84.243,105.423 82.87,106.87C78.35,111.65 74.38,115.23 71.4,121.93C64.71,137 74.07,149.34 87.34,155.65C103.93,163.54 126.46,165.04 142.87,155.53C164.91,142.75 164.35,118.63 158.48,97.07ZM63.55,80.28C63.538,80.279 63.525,80.278 63.513,80.278C63.332,80.278 63.183,80.427 63.183,80.608C63.183,80.661 63.196,80.713 63.22,80.76C66.08,86.37 73.04,92.42 80.01,90.37C80.333,90.276 80.557,89.977 80.557,89.64C80.557,89.452 80.487,89.27 80.36,89.13C77.867,86.423 75.847,83.413 74.3,80.1C74.14,79.753 73.877,79.627 73.51,79.72C70.23,80.5 66.91,80.687 63.55,80.28Z" style="fill:rgb(61,60,56);fill-rule:nonzero;"/>
        <circle cx="95.27" cy="78.86" r="4.16" style="fill:rgb(61,60,56);"/>
    </g>
</svg>
