<?xml version="1.0" encoding="UTF-8" standalone="no"?>
<!DOCTYPE svg PUBLIC "-//W3C//DTD SVG 1.1//EN" "http://www.w3.org/Graphics/SVG/1.1/DTD/svg11.dtd">
<svg xmlns="http://www.w3.org/2000/svg" version="1.1" viewBox="0.00 0.00 480.00 480.00">
<g stroke-width="2.00" fill="none" stroke-linecap="butt">
<path stroke="#a99c6d" vector-effect="non-scaling-stroke" d="
  M 175.67 269.62
  L 182.80 303.27"
/>
<path stroke="#9f9265" vector-effect="non-scaling-stroke" d="
  M 182.80 303.27
  Q 184.01 316.56 188.99 327.53"
/>
<path stroke="#505164" vector-effect="non-scaling-stroke" d="
  M 188.99 327.53
  Q 185.11 346.39 195.79 360.97
  C 212.40 383.65 243.85 397.03 270.04 402.62
  C 296.34 408.25 322.53 409.32 348.99 403.98
  C 375.59 398.61 409.39 382.26 403.56 348.75"
/>
<path stroke="#9f9265" vector-effect="non-scaling-stroke" d="
  M 403.56 348.75
  L 407.01 341.54"
/>
<path stroke="#a99c6d" vector-effect="non-scaling-stroke" d="
  M 407.01 341.54
  Q 415.02 322.97 413.92 302.87"
/>
<path stroke="#a5745f" vector-effect="non-scaling-stroke" d="
  M 413.92 302.87
  L 415.13 300.95"
/>
<path stroke="#986e61" vector-effect="non-scaling-stroke" d="
  M 415.13 300.95
  C 422.30 286.85 415.38 271.37 404.76 261.50"
/>
<path stroke="#a99c6d" vector-effect="non-scaling-stroke" d="
  M 404.76 261.50
  C 423.60 200.77 380.59 145.53 317.38 149.82"
/>
<path stroke="#833e4e" vector-effect="non-scaling-stroke" d="
  M 317.38 149.82
  Q 317.36 149.55 317.46 149.35
  Q 317.62 149.03 317.36 148.78
  C 288.45 121.61 256.75 95.92 222.30 76.11
  A 0.66 0.65 41.5 0 0 221.59 76.15
  Q 134.73 140.25 37.06 185.50
  C 36.29 185.85 34.36 186.27 33.54 187.07
  Q 33.09 187.51 33.62 187.84
  Q 103.66 230.85 175.67 269.62"
/>
<path stroke="#d7854e" vector-effect="non-scaling-stroke" d="
  M 317.38 149.82
  C 298.10 151.85 285.30 160.84 273.24 174.92"
/>
<path stroke="#d15241" vector-effect="non-scaling-stroke" d="
  M 273.24 174.92
  C 257.17 150.69 223.95 142.10 197.24 151.45
  Q 196.30 151.78 195.33 151.71
  Q 183.17 150.78 171.32 149.63
  A 0.63 0.63 0.0 0 0 170.82 150.70
  L 180.37 160.19
  A 0.45 0.45 0.0 0 1 180.31 160.88
  C 162.73 172.85 154.21 192.28 173.82 208.18
  C 185.74 217.83 200.15 223.97 215.41 224.63
  Q 235.87 225.53 254.36 213.97"
/>
<path stroke="#d7854e" vector-effect="non-scaling-stroke" d="
  M 254.36 213.97
  C 249.85 248.61 269.18 287.78 303.09 300.38
  Q 326.64 309.13 352.33 304.91"
/>
<path stroke="#d35d40" vector-effect="non-scaling-stroke" d="
  M 352.33 304.91
  Q 353.48 304.91 354.06 305.19
  Q 365.47 310.64 378.14 312.83"
/>
<path stroke="#d7854e" vector-effect="non-scaling-stroke" d="
  M 378.14 312.83
  C 357.99 325.97 326.38 324.15 303.91 319.91
  C 258.33 311.30 216.71 291.03 175.67 269.62"
/>
<path stroke="#f8b05f" vector-effect="non-scaling-stroke" d="
  M 273.24 174.92
  Q 258.36 192.50 254.36 213.97"
/>
<path stroke="#f3d965" vector-effect="non-scaling-stroke" d="
  M 407.01 341.54
  L 405.36 341.36
  Q 404.82 341.30 404.51 341.74
  C 385.17 368.72 356.25 380.21 323.82 382.96
  C 298.72 385.10 272.55 377.88 250.41 366.11
  A 0.63 0.63 0.0 0 1 250.23 365.14
  C 258.72 355.24 265.67 344.96 258.57 331.57
  Q 258.20 330.89 258.00 331.64
  C 254.91 343.29 249.79 351.39 235.80 349.44
  C 209.24 345.75 196.56 325.81 185.01 304.40
  Q 184.77 303.97 184.31 303.81
  L 182.80 303.27"
/>
<path stroke="#f9bb5f" vector-effect="non-scaling-stroke" d="
  M 413.92 302.87
  C 405.60 312.91 390.36 314.45 378.14 312.83"
/>
<path stroke="#ecb561" vector-effect="non-scaling-stroke" d="
  M 404.76 261.50
  Q 395.42 263.13 387.03 266.48"
/>
<path stroke="#f9bb5f" vector-effect="non-scaling-stroke" d="
  M 387.03 266.48
  C 385.32 267.59 383.25 268.68 381.83 270.08
  Q 368.94 282.74 355.13 294.38
  Q 353.62 295.65 350.70 298.95
  Q 348.11 301.89 352.33 304.91"
/>
<path stroke="#9a8e5c" vector-effect="non-scaling-stroke" d="
  M 403.56 348.75
  C 369.43 404.48 290.86 405.17 240.80 374.47
  C 237.36 372.36 232.45 370.72 229.17 368.99
  C 210.42 359.06 199.74 345.44 188.99 327.53"
/>
<path stroke="#e88d53" vector-effect="non-scaling-stroke" d="
  M 415.13 300.95
  C 400.75 292.66 393.44 281.32 387.03 266.48"
/>
<path stroke="#67677b" vector-effect="non-scaling-stroke" d="
  M 343.16 453.71
  C 339.75 451.34 335.02 454.20 334.78 457.82
  C 334.30 464.90 344.55 466.26 345.49 458.81
  Q 346.12 453.77 345.62 448.07
  A 0.67 0.67 0.0 0 0 344.43 447.72
  C 343.33 449.15 344.57 451.72 343.82 453.52
  Q 343.61 454.03 343.16 453.71"
/>
<path stroke="#67677b" vector-effect="non-scaling-stroke" d="
  M 412.88 454.91
  L 415.03 453.96
  A 0.50 0.49 -51.8 0 0 414.92 453.02
  C 411.01 452.34 413.95 449.63 412.03 448.14
  A 0.66 0.66 0.0 0 0 410.97 448.71
  Q 411.11 451.10 410.12 453.21
  Q 409.92 453.64 410.13 454.07
  C 411.84 457.43 409.29 463.82 415.05 463.93
  A 0.79 0.78 -79.6 0 0 415.80 463.41
  L 416.01 462.86
  A 0.49 0.49 0.0 0 0 415.46 462.21
  C 411.83 462.87 412.68 457.66 412.52 455.52
  Q 412.49 455.08 412.88 454.91"
/>
<path stroke="#67677b" vector-effect="non-scaling-stroke" d="
  M 291.16 459.98
  L 288.58 453.26
  A 0.70 0.57 -30.6 0 0 287.58 453.11
  Q 287.47 453.19 287.40 453.40
  Q 287.36 453.54 287.40 453.72
  Q 288.69 458.82 290.49 463.47
  A 0.77 0.77 0.0 0 0 291.94 463.43
  L 293.91 457.55
  A 0.36 0.36 0.0 0 1 294.58 457.53
  L 297.01 463.45
  A 0.55 0.55 0.0 0 0 298.03 463.42
  L 301.31 454.02
  A 1.01 0.94 -75.7 0 0 300.59 452.70
  Q 300.34 452.66 300.01 453.51
  Q 298.70 456.88 297.77 460.18
  A 0.35 0.35 0.0 0 1 297.10 460.19
  L 294.94 453.27
  A 0.69 0.69 0.0 0 0 293.63 453.25
  L 291.32 459.98
  Q 291.25 460.19 291.16 459.98"
/>
<path stroke="#67677b" vector-effect="non-scaling-stroke" d="
  M 307.16 453.33
  C 302.00 455.48 303.25 463.15 308.95 463.75
  C 310.38 463.91 311.98 462.60 313.78 463.72
  Q 314.21 463.99 314.64 463.71
  Q 315.30 463.28 314.82 462.70
  A 1.16 1.14 -58.2 0 1 314.59 461.67
  C 315.99 456.54 312.72 451.02 307.16 453.33"
/>
<path stroke="#67677b" vector-effect="non-scaling-stroke" d="
  M 325.94 462.90
  A 0.94 0.93 -89.9 0 1 327.21 464.18
  C 324.44 469.07 321.31 467.94 318.27 464.79
  A 0.50 0.50 0.0 0 0 317.48 465.40
  C 320.38 469.97 328.54 470.16 328.22 463.38
  C 328.02 458.96 329.28 455.12 324.17 452.87
  A 1.46 1.44 -40.3 0 0 323.22 452.80
  C 319.61 453.74 316.14 455.18 317.45 459.74
  C 318.53 463.48 322.62 464.78 325.94 462.90"
/>
<path stroke="#67677b" vector-effect="non-scaling-stroke" d="
  M 350.03 459.03
  L 357.49 459.19
  A 1.64 1.63 -16.3 0 0 358.89 456.64
  Q 355.41 451.48 350.87 453.59
  C 344.77 456.42 348.42 466.24 356.34 463.05
  Q 357.35 462.64 357.27 461.75
  A 0.56 0.55 75.4 0 0 356.49 461.29
  C 353.94 462.46 350.60 463.15 349.68 459.46
  Q 349.57 459.02 350.03 459.03"
/>
<path stroke="#67677b" vector-effect="non-scaling-stroke" d="
  M 365.94 460.70
  Q 364.53 457.02 362.62 453.57
  Q 362.17 452.76 361.58 453.06
  A 0.74 0.73 -25.7 0 0 361.24 454.02
  L 365.52 463.46
  A 0.73 0.72 46.4 0 0 366.83 463.50
  Q 369.24 458.80 371.19 454.19
  Q 371.48 453.50 371.03 452.89
  A 0.54 0.54 0.0 0 0 370.12 452.98
  L 366.42 460.72
  Q 366.16 461.27 365.94 460.70"
/>
<path stroke="#67677b" vector-effect="non-scaling-stroke" d="
  M 376.12 455.01
  L 381.09 454.55
  A 0.77 0.77 0.0 0 0 381.09 453.02
  C 379.28 452.86 376.49 453.84 375.09 453.26
  Q 373.56 452.63 373.68 454.28
  Q 374.00 458.79 373.82 462.79
  Q 373.79 463.30 373.99 463.53
  Q 374.29 463.88 374.86 463.72
  Q 375.21 463.62 375.21 463.26
  L 375.33 455.86
  Q 375.35 455.08 376.12 455.01"
/>
<path stroke="#67677b" vector-effect="non-scaling-stroke" d="
  M 385.62 454.08
  C 380.68 458.10 385.82 465.94 391.68 463.11
  Q 392.06 462.93 392.44 463.09
  L 394.20 463.78
  A 0.40 0.40 0.0 0 0 394.75 463.38
  C 394.52 460.76 395.05 457.21 393.62 455.17
  C 391.77 452.53 388.14 452.03 385.62 454.08"
/>
<path stroke="#67677b" vector-effect="non-scaling-stroke" d="
  M 402.69 454.31
  C 406.64 455.33 405.77 460.06 405.68 463.23
  Q 405.66 463.76 406.20 463.75
  Q 406.39 463.75 406.55 463.75
  Q 407.06 463.78 407.10 463.27
  C 407.41 458.66 407.47 450.68 399.91 453.31
  Q 399.42 453.48 398.94 453.31
  L 397.70 452.85
  Q 397.06 452.61 397.04 453.29
  Q 396.90 458.21 397.04 463.12
  Q 397.05 463.50 397.23 463.69
  Q 397.44 463.91 397.75 463.96
  Q 398.29 464.06 398.35 463.52
  C 398.68 460.85 397.71 453.03 402.69 454.31"
/>
<path stroke="#67677b" vector-effect="non-scaling-stroke" d="
  M 422.20 459.17
  C 423.18 463.51 428.10 465.15 431.47 462.22
  A 0.42 0.42 0.0 0 0 431.19 461.48
  C 429.84 461.49 428.81 462.30 427.59 462.33
  C 422.94 462.45 421.80 455.93 427.08 454.31
  Q 427.47 454.19 427.85 454.35
  L 431.06 455.69
  A 0.56 0.55 86.3 0 0 431.75 454.90
  C 429.25 450.50 420.93 453.56 422.20 459.17"
/>
<path stroke="#67677b" vector-effect="non-scaling-stroke" d="
  M 444.68 458.26
  A 5.49 5.49 0.0 0 0 439.19 452.77
  A 5.49 5.49 0.0 0 0 433.70 458.26
  A 5.49 5.49 0.0 0 0 439.19 463.75
  A 5.49 5.49 0.0 0 0 444.68 458.26"
/>
<path stroke="#67677b" vector-effect="non-scaling-stroke" d="
  M 454.53 454.18
  Q 452.91 451.93 450.15 453.15
  Q 449.65 453.38 449.13 453.21
  L 447.43 452.68
  Q 446.87 452.51 446.88 453.10
  L 447.06 463.42
  A 0.58 0.58 0.0 0 0 447.80 463.97
  L 448.28 463.83
  A 0.54 0.53 -7.1 0 0 448.66 463.35
  L 449.00 456.12
  Q 449.02 455.71 449.34 455.44
  Q 451.46 453.70 453.56 455.33
  Q 454.00 455.67 454.00 456.23
  L 454.00 463.22
  A 0.71 0.71 0.0 0 0 454.61 463.92
  L 455.41 464.03
  A 0.52 0.51 3.5 0 0 455.99 463.52
  L 456.00 456.39
  A 1.97 1.97 0.0 0 1 458.95 454.69
  L 460.65 455.68
  A 0.72 0.71 -75.7 0 1 461.00 456.28
  L 461.01 463.16
  A 0.86 0.86 0.0 0 0 461.98 464.01
  Q 463.06 463.88 463.02 462.77
  C 462.93 460.18 463.26 457.34 462.75 456.00
  C 461.55 452.81 457.85 451.41 455.40 454.22
  Q 454.94 454.75 454.53 454.18"
/>
<path stroke="#67677b" vector-effect="non-scaling-stroke" d="
  M 278.53 456.72
  A 1.13 1.13 0.0 0 1 278.70 454.55
  Q 281.92 453.93 284.71 455.92
  A 0.27 0.27 0.0 0 0 285.14 455.70
  C 285.18 452.31 278.31 452.66 276.63 454.61
  A 2.22 2.22 0.0 0 0 277.56 458.16
  L 282.76 460.03
  A 0.98 0.97 46.3 0 1 282.72 461.88
  Q 279.44 462.90 276.81 460.55
  A 0.53 0.52 -88.4 0 0 276.05 461.27
  Q 279.47 465.55 284.16 462.66
  A 2.28 2.28 0.0 0 0 283.73 458.57
  L 278.53 456.72"
/>
<path stroke="#67677b" vector-effect="non-scaling-stroke" d="
  M 332.4880 463.1820
  A 1.22 0.96 26.9 0 0 331.8343 461.7739
  A 1.22 0.96 26.9 0 0 330.3120 462.0780
  A 1.22 0.96 26.9 0 0 330.9657 463.4861
  A 1.22 0.96 26.9 0 0 332.4880 463.1820"
/>
<path stroke="#67677b" vector-effect="non-scaling-stroke" d="
  M 419.5996 461.9828
  A 1.27 0.95 -36.6 0 0 418.0136 461.9773
  A 1.27 0.95 -36.6 0 0 417.5604 463.4972
  A 1.27 0.95 -36.6 0 0 419.1464 463.5027
  A 1.27 0.95 -36.6 0 0 419.5996 461.9828"
/>
<path stroke="#d15241" vector-effect="non-scaling-stroke" d="
  M 221.1097 170.8120
  A 6.22 4.27 -3.3 0 0 214.6542 166.9071
  A 6.22 4.27 -3.3 0 0 208.6903 171.5280
  A 6.22 4.27 -3.3 0 0 215.1458 175.4329
  A 6.22 4.27 -3.3 0 0 221.1097 170.8120"
/>
<path stroke="#d15241" vector-effect="non-scaling-stroke" d="
  M 204.29 176.17
  C 201.56 172.37 197.04 172.63 194.26 176.05
  A 1.01 1.00 53.8 0 0 194.11 177.04
  Q 194.83 178.90 196.59 181.42
  Q 205.89 194.82 215.26 208.16
  C 218.37 212.59 222.34 214.62 226.59 210.08
  A 1.06 1.06 0.0 0 0 226.87 209.13
  Q 226.58 207.66 225.36 205.91
  Q 214.93 190.96 204.29 176.17"
/>
<path stroke="#d15241" vector-effect="non-scaling-stroke" d="
  M 240.4815 182.7739
  A 6.23 4.23 -3.0 0 0 234.0386 178.8758
  A 6.23 4.23 -3.0 0 0 228.0385 183.4261
  A 6.23 4.23 -3.0 0 0 234.4814 187.3242
  A 6.23 4.23 -3.0 0 0 240.4815 182.7739"
/>
<path stroke="#928447" vector-effect="non-scaling-stroke" d="
  M 402.1472 247.5956
  A 12.25 3.93 95.4 0 0 407.2126 235.7698
  A 12.25 3.93 95.4 0 0 404.4528 223.2044
  A 12.25 3.93 95.4 0 0 399.3874 235.0302
  A 12.25 3.93 95.4 0 0 402.1472 247.5956"
/>
<path stroke="#928447" vector-effect="non-scaling-stroke" d="
  M 359.9666 262.8048
  A 12.20 11.36 -23.4 0 0 344.2584 257.2243
  A 12.20 11.36 -23.4 0 0 337.5734 272.4952
  A 12.20 11.36 -23.4 0 0 353.2816 278.0757
  A 12.20 11.36 -23.4 0 0 359.9666 262.8048"
/>
<path stroke="#939291" vector-effect="non-scaling-stroke" d="
  M 403.4449 235.7358
  A 3.73 1.07 95.0 0 0 404.8359 232.1133
  A 3.73 1.07 95.0 0 0 404.0951 228.3042
  A 3.73 1.07 95.0 0 0 402.7041 231.9267
  A 3.73 1.07 95.0 0 0 403.4449 235.7358"
/>
<path stroke="#939291" vector-effect="non-scaling-stroke" d="
  M 353.46 264.11
  A 3.26 3.26 0.0 0 0 350.20 260.85
  A 3.26 3.26 0.0 0 0 346.94 264.11
  A 3.26 3.26 0.0 0 0 350.20 267.37
  A 3.26 3.26 0.0 0 0 353.46 264.11"
/>
<path stroke="#67677b" vector-effect="non-scaling-stroke" d="
  M 344.23 458.38
  A 4.00 4.00 0.0 0 0 340.23 454.38
  A 4.00 4.00 0.0 0 0 336.23 458.38
  A 4.00 4.00 0.0 0 0 340.23 462.38
  A 4.00 4.00 0.0 0 0 344.23 458.38"
/>
<path stroke="#67677b" vector-effect="non-scaling-stroke" d="
  M 313.33 458.34
  A 4.00 4.00 0.0 0 0 309.33 454.34
  A 4.00 4.00 0.0 0 0 305.33 458.34
  A 4.00 4.00 0.0 0 0 309.33 462.34
  A 4.00 4.00 0.0 0 0 313.33 458.34"
/>
<path stroke="#67677b" vector-effect="non-scaling-stroke" d="
  M 326.73 458.29
  A 3.97 3.97 0.0 0 0 322.76 454.32
  A 3.97 3.97 0.0 0 0 318.79 458.29
  A 3.97 3.97 0.0 0 0 322.76 462.26
  A 3.97 3.97 0.0 0 0 326.73 458.29"
/>
<path stroke="#67677b" vector-effect="non-scaling-stroke" d="
  M 349.72 457.39
  L 357.00 457.51
  A 0.12 0.12 0.0 0 0 357.12 457.40
  L 357.13 457.36
  A 3.67 2.94 1.0 0 0 353.51 454.35
  L 353.33 454.35
  A 3.67 2.94 1.0 0 0 349.61 457.22
  L 349.61 457.26
  A 0.12 0.12 0.0 0 0 349.72 457.39"
/>
<path stroke="#67677b" vector-effect="non-scaling-stroke" d="
  M 393.09 458.35
  A 4.00 4.00 0.0 0 0 389.09 454.35
  A 4.00 4.00 0.0 0 0 385.09 458.35
  A 4.00 4.00 0.0 0 0 389.09 462.35
  A 4.00 4.00 0.0 0 0 393.09 458.35"
/>
<path stroke="#67677b" vector-effect="non-scaling-stroke" d="
  M 443.02 458.32
  A 3.94 3.94 0.0 0 0 439.08 454.38
  A 3.94 3.94 0.0 0 0 435.14 458.32
  A 3.94 3.94 0.0 0 0 439.08 462.26
  A 3.94 3.94 0.0 0 0 443.02 458.32"
/>
</g>
<path fill="#55556d" d="
  M 0.00 0.00
  L 480.00 0.00
  L 480.00 480.00
  L 0.00 480.00
  L 0.00 0.00
  Z
  M 175.67 269.62
  L 182.80 303.27
  Q 184.01 316.56 188.99 327.53
  Q 185.11 346.39 195.79 360.97
  C 212.40 383.65 243.85 397.03 270.04 402.62
  C 296.34 408.25 322.53 409.32 348.99 403.98
  C 375.59 398.61 409.39 382.26 403.56 348.75
  L 407.01 341.54
  Q 415.02 322.97 413.92 302.87
  L 415.13 300.95
  C 422.30 286.85 415.38 271.37 404.76 261.50
  C 423.60 200.77 380.59 145.53 317.38 149.82
  Q 317.36 149.55 317.46 149.35
  Q 317.62 149.03 317.36 148.78
  C 288.45 121.61 256.75 95.92 222.30 76.11
  A 0.66 0.65 41.5 0 0 221.59 76.15
  Q 134.73 140.25 37.06 185.50
  C 36.29 185.85 34.36 186.27 33.54 187.07
  Q 33.09 187.51 33.62 187.84
  Q 103.66 230.85 175.67 269.62
  Z
  M 343.16 453.71
  C 339.75 451.34 335.02 454.20 334.78 457.82
  C 334.30 464.90 344.55 466.26 345.49 458.81
  Q 346.12 453.77 345.62 448.07
  A 0.67 0.67 0.0 0 0 344.43 447.72
  C 343.33 449.15 344.57 451.72 343.82 453.52
  Q 343.61 454.03 343.16 453.71
  Z
  M 412.88 454.91
  L 415.03 453.96
  A 0.50 0.49 -51.8 0 0 414.92 453.02
  C 411.01 452.34 413.95 449.63 412.03 448.14
  A 0.66 0.66 0.0 0 0 410.97 448.71
  Q 411.11 451.10 410.12 453.21
  Q 409.92 453.64 410.13 454.07
  C 411.84 457.43 409.29 463.82 415.05 463.93
  A 0.79 0.78 -79.6 0 0 415.80 463.41
  L 416.01 462.86
  A 0.49 0.49 0.0 0 0 415.46 462.21
  C 411.83 462.87 412.68 457.66 412.52 455.52
  Q 412.49 455.08 412.88 454.91
  Z
  M 291.16 459.98
  L 288.58 453.26
  A 0.70 0.57 -30.6 0 0 287.58 453.11
  Q 287.47 453.19 287.40 453.40
  Q 287.36 453.54 287.40 453.72
  Q 288.69 458.82 290.49 463.47
  A 0.77 0.77 0.0 0 0 291.94 463.43
  L 293.91 457.55
  A 0.36 0.36 0.0 0 1 294.58 457.53
  L 297.01 463.45
  A 0.55 0.55 0.0 0 0 298.03 463.42
  L 301.31 454.02
  A 1.01 0.94 -75.7 0 0 300.59 452.70
  Q 300.34 452.66 300.01 453.51
  Q 298.70 456.88 297.77 460.18
  A 0.35 0.35 0.0 0 1 297.10 460.19
  L 294.94 453.27
  A 0.69 0.69 0.0 0 0 293.63 453.25
  L 291.32 459.98
  Q 291.25 460.19 291.16 459.98
  Z
  M 307.16 453.33
  C 302.00 455.48 303.25 463.15 308.95 463.75
  C 310.38 463.91 311.98 462.60 313.78 463.72
  Q 314.21 463.99 314.64 463.71
  Q 315.30 463.28 314.82 462.70
  A 1.16 1.14 -58.2 0 1 314.59 461.67
  C 315.99 456.54 312.72 451.02 307.16 453.33
  Z
  M 325.94 462.90
  A 0.94 0.93 -89.9 0 1 327.21 464.18
  C 324.44 469.07 321.31 467.94 318.27 464.79
  A 0.50 0.50 0.0 0 0 317.48 465.40
  C 320.38 469.97 328.54 470.16 328.22 463.38
  C 328.02 458.96 329.28 455.12 324.17 452.87
  A 1.46 1.44 -40.3 0 0 323.22 452.80
  C 319.61 453.74 316.14 455.18 317.45 459.74
  C 318.53 463.48 322.62 464.78 325.94 462.90
  Z
  M 350.03 459.03
  L 357.49 459.19
  A 1.64 1.63 -16.3 0 0 358.89 456.64
  Q 355.41 451.48 350.87 453.59
  C 344.77 456.42 348.42 466.24 356.34 463.05
  Q 357.35 462.64 357.27 461.75
  A 0.56 0.55 75.4 0 0 356.49 461.29
  C 353.94 462.46 350.60 463.15 349.68 459.46
  Q 349.57 459.02 350.03 459.03
  Z
  M 365.94 460.70
  Q 364.53 457.02 362.62 453.57
  Q 362.17 452.76 361.58 453.06
  A 0.74 0.73 -25.7 0 0 361.24 454.02
  L 365.52 463.46
  A 0.73 0.72 46.4 0 0 366.83 463.50
  Q 369.24 458.80 371.19 454.19
  Q 371.48 453.50 371.03 452.89
  A 0.54 0.54 0.0 0 0 370.12 452.98
  L 366.42 460.72
  Q 366.16 461.27 365.94 460.70
  Z
  M 376.12 455.01
  L 381.09 454.55
  A 0.77 0.77 0.0 0 0 381.09 453.02
  C 379.28 452.86 376.49 453.84 375.09 453.26
  Q 373.56 452.63 373.68 454.28
  Q 374.00 458.79 373.82 462.79
  Q 373.79 463.30 373.99 463.53
  Q 374.29 463.88 374.86 463.72
  Q 375.21 463.62 375.21 463.26
  L 375.33 455.86
  Q 375.35 455.08 376.12 455.01
  Z
  M 385.62 454.08
  C 380.68 458.10 385.82 465.94 391.68 463.11
  Q 392.06 462.93 392.44 463.09
  L 394.20 463.78
  A 0.40 0.40 0.0 0 0 394.75 463.38
  C 394.52 460.76 395.05 457.21 393.62 455.17
  C 391.77 452.53 388.14 452.03 385.62 454.08
  Z
  M 402.69 454.31
  C 406.64 455.33 405.77 460.06 405.68 463.23
  Q 405.66 463.76 406.20 463.75
  Q 406.39 463.75 406.55 463.75
  Q 407.06 463.78 407.10 463.27
  C 407.41 458.66 407.47 450.68 399.91 453.31
  Q 399.42 453.48 398.94 453.31
  L 397.70 452.85
  Q 397.06 452.61 397.04 453.29
  Q 396.90 458.21 397.04 463.12
  Q 397.05 463.50 397.23 463.69
  Q 397.44 463.91 397.75 463.96
  Q 398.29 464.06 398.35 463.52
  C 398.68 460.85 397.71 453.03 402.69 454.31
  Z
  M 422.20 459.17
  C 423.18 463.51 428.10 465.15 431.47 462.22
  A 0.42 0.42 0.0 0 0 431.19 461.48
  C 429.84 461.49 428.81 462.30 427.59 462.33
  C 422.94 462.45 421.80 455.93 427.08 454.31
  Q 427.47 454.19 427.85 454.35
  L 431.06 455.69
  A 0.56 0.55 86.3 0 0 431.75 454.90
  C 429.25 450.50 420.93 453.56 422.20 459.17
  Z
  M 444.68 458.26
  A 5.49 5.49 0.0 0 0 439.19 452.77
  A 5.49 5.49 0.0 0 0 433.70 458.26
  A 5.49 5.49 0.0 0 0 439.19 463.75
  A 5.49 5.49 0.0 0 0 444.68 458.26
  Z
  M 454.53 454.18
  Q 452.91 451.93 450.15 453.15
  Q 449.65 453.38 449.13 453.21
  L 447.43 452.68
  Q 446.87 452.51 446.88 453.10
  L 447.06 463.42
  A 0.58 0.58 0.0 0 0 447.80 463.97
  L 448.28 463.83
  A 0.54 0.53 -7.1 0 0 448.66 463.35
  L 449.00 456.12
  Q 449.02 455.71 449.34 455.44
  Q 451.46 453.70 453.56 455.33
  Q 454.00 455.67 454.00 456.23
  L 454.00 463.22
  A 0.71 0.71 0.0 0 0 454.61 463.92
  L 455.41 464.03
  A 0.52 0.51 3.5 0 0 455.99 463.52
  L 456.00 456.39
  A 1.97 1.97 0.0 0 1 458.95 454.69
  L 460.65 455.68
  A 0.72 0.71 -75.7 0 1 461.00 456.28
  L 461.01 463.16
  A 0.86 0.86 0.0 0 0 461.98 464.01
  Q 463.06 463.88 463.02 462.77
  C 462.93 460.18 463.26 457.34 462.75 456.00
  C 461.55 452.81 457.85 451.41 455.40 454.22
  Q 454.94 454.75 454.53 454.18
  Z
  M 278.53 456.72
  A 1.13 1.13 0.0 0 1 278.70 454.55
  Q 281.92 453.93 284.71 455.92
  A 0.27 0.27 0.0 0 0 285.14 455.70
  C 285.18 452.31 278.31 452.66 276.63 454.61
  A 2.22 2.22 0.0 0 0 277.56 458.16
  L 282.76 460.03
  A 0.98 0.97 46.3 0 1 282.72 461.88
  Q 279.44 462.90 276.81 460.55
  A 0.53 0.52 -88.4 0 0 276.05 461.27
  Q 279.47 465.55 284.16 462.66
  A 2.28 2.28 0.0 0 0 283.73 458.57
  L 278.53 456.72
  Z
  M 332.4880 463.1820
  A 1.22 0.96 26.9 0 0 331.8343 461.7739
  A 1.22 0.96 26.9 0 0 330.3120 462.0780
  A 1.22 0.96 26.9 0 0 330.9657 463.4861
  A 1.22 0.96 26.9 0 0 332.4880 463.1820
  Z
  M 419.5996 461.9828
  A 1.27 0.95 -36.6 0 0 418.0136 461.9773
  A 1.27 0.95 -36.6 0 0 417.5604 463.4972
  A 1.27 0.95 -36.6 0 0 419.1464 463.5027
  A 1.27 0.95 -36.6 0 0 419.5996 461.9828
  Z"
/>
<g>
<path fill="#b0272f" d="
  M 317.38 149.82
  C 298.10 151.85 285.30 160.84 273.24 174.92
  C 257.17 150.69 223.95 142.10 197.24 151.45
  Q 196.30 151.78 195.33 151.71
  Q 183.17 150.78 171.32 149.63
  A 0.63 0.63 0.0 0 0 170.82 150.70
  L 180.37 160.19
  A 0.45 0.45 0.0 0 1 180.31 160.88
  C 162.73 172.85 154.21 192.28 173.82 208.18
  C 185.74 217.83 200.15 223.97 215.41 224.63
  Q 235.87 225.53 254.36 213.97
  C 249.85 248.61 269.18 287.78 303.09 300.38
  Q 326.64 309.13 352.33 304.91
  Q 353.48 304.91 354.06 305.19
  Q 365.47 310.64 378.14 312.83
  C 357.99 325.97 326.38 324.15 303.91 319.91
  C 258.33 311.30 216.71 291.03 175.67 269.62
  Q 103.66 230.85 33.62 187.84
  Q 33.09 187.51 33.54 187.07
  C 34.36 186.27 36.29 185.85 37.06 185.50
  Q 134.73 140.25 221.59 76.15
  A 0.66 0.65 41.5 0 1 222.30 76.11
  C 256.75 95.92 288.45 121.61 317.36 148.78
  Q 317.62 149.03 317.46 149.35
  Q 317.36 149.55 317.38 149.82
  Z"
/>
<path fill="#f27d52" d="
  M 273.24 174.92
  Q 258.36 192.50 254.36 213.97
  Q 235.87 225.53 215.41 224.63
  C 200.15 223.97 185.74 217.83 173.82 208.18
  C 154.21 192.28 162.73 172.85 180.31 160.88
  A 0.45 0.45 0.0 0 0 180.37 160.19
  L 170.82 150.70
  A 0.63 0.63 0.0 0 1 171.32 149.63
  Q 183.17 150.78 195.33 151.71
  Q 196.30 151.78 197.24 151.45
  C 223.95 142.10 257.17 150.69 273.24 174.92
  Z
  M 221.1097 170.8120
  A 6.22 4.27 -3.3 0 0 214.6542 166.9071
  A 6.22 4.27 -3.3 0 0 208.6903 171.5280
  A 6.22 4.27 -3.3 0 0 215.1458 175.4329
  A 6.22 4.27 -3.3 0 0 221.1097 170.8120
  Z
  M 204.29 176.17
  C 201.56 172.37 197.04 172.63 194.26 176.05
  A 1.01 1.00 53.8 0 0 194.11 177.04
  Q 194.83 178.90 196.59 181.42
  Q 205.89 194.82 215.26 208.16
  C 218.37 212.59 222.34 214.62 226.59 210.08
  A 1.06 1.06 0.0 0 0 226.87 209.13
  Q 226.58 207.66 225.36 205.91
  Q 214.93 190.96 204.29 176.17
  Z
  M 240.4815 182.7739
  A 6.23 4.23 -3.0 0 0 234.0386 178.8758
  A 6.23 4.23 -3.0 0 0 228.0385 183.4261
  A 6.23 4.23 -3.0 0 0 234.4814 187.3242
  A 6.23 4.23 -3.0 0 0 240.4815 182.7739
  Z"
/>
<path fill="#fde36c" d="
  M 404.76 261.50
  Q 395.42 263.13 387.03 266.48
  C 385.32 267.59 383.25 268.68 381.83 270.08
  Q 368.94 282.74 355.13 294.38
  Q 353.62 295.65 350.70 298.95
  Q 348.11 301.89 352.33 304.91
  Q 326.64 309.13 303.09 300.38
  C 269.18 287.78 249.85 248.61 254.36 213.97
  Q 258.36 192.50 273.24 174.92
  C 285.30 160.84 298.10 151.85 317.38 149.82
  C 380.59 145.53 423.60 200.77 404.76 261.50
  Z
  M 402.1472 247.5956
  A 12.25 3.93 95.4 0 0 407.2126 235.7698
  A 12.25 3.93 95.4 0 0 404.4528 223.2044
  A 12.25 3.93 95.4 0 0 399.3874 235.0302
  A 12.25 3.93 95.4 0 0 402.1472 247.5956
  Z
  M 359.9666 262.8048
  A 12.20 11.36 -23.4 0 0 344.2584 257.2243
  A 12.20 11.36 -23.4 0 0 337.5734 272.4952
  A 12.20 11.36 -23.4 0 0 353.2816 278.0757
  A 12.20 11.36 -23.4 0 0 359.9666 262.8048
  Z"
/>
<path fill="#db8755" d="
  M 404.76 261.50
  C 415.38 271.37 422.30 286.85 415.13 300.95
  C 400.75 292.66 393.44 281.32 387.03 266.48
  Q 395.42 263.13 404.76 261.50
  Z"
/>
<path fill="#f59251" d="
  M 387.03 266.48
  C 393.44 281.32 400.75 292.66 415.13 300.95
  L 413.92 302.87
  C 405.60 312.91 390.36 314.45 378.14 312.83
  Q 365.47 310.64 354.06 305.19
  Q 353.48 304.91 352.33 304.91
  Q 348.11 301.89 350.70 298.95
  Q 353.62 295.65 355.13 294.38
  Q 368.94 282.74 381.83 270.08
  C 383.25 268.68 385.32 267.59 387.03 266.48
  Z"
/>
<path fill="#fde36c" d="
  M 175.67 269.62
  C 216.71 291.03 258.33 311.30 303.91 319.91
  C 326.38 324.15 357.99 325.97 378.14 312.83
  C 390.36 314.45 405.60 312.91 413.92 302.87
  Q 415.02 322.97 407.01 341.54
  L 405.36 341.36
  Q 404.82 341.30 404.51 341.74
  C 385.17 368.72 356.25 380.21 323.82 382.96
  C 298.72 385.10 272.55 377.88 250.41 366.11
  A 0.63 0.63 0.0 0 1 250.23 365.14
  C 258.72 355.24 265.67 344.96 258.57 331.57
  Q 258.20 330.89 258.00 331.64
  C 254.91 343.29 249.79 351.39 235.80 349.44
  C 209.24 345.75 196.56 325.81 185.01 304.40
  Q 184.77 303.97 184.31 303.81
  L 182.80 303.27
  L 175.67 269.62
  Z"
/>
<path fill="#e9cf5d" d="
  M 182.80 303.27
  L 184.31 303.81
  Q 184.77 303.97 185.01 304.40
  C 196.56 325.81 209.24 345.75 235.80 349.44
  C 249.79 351.39 254.91 343.29 258.00 331.64
  Q 258.20 330.89 258.57 331.57
  C 265.67 344.96 258.72 355.24 250.23 365.14
  A 0.63 0.63 0.0 0 0 250.41 366.11
  C 272.55 377.88 298.72 385.10 323.82 382.96
  C 356.25 380.21 385.17 368.72 404.51 341.74
  Q 404.82 341.30 405.36 341.36
  L 407.01 341.54
  L 403.56 348.75
  C 369.43 404.48 290.86 405.17 240.80 374.47
  C 237.36 372.36 232.45 370.72 229.17 368.99
  C 210.42 359.06 199.74 345.44 188.99 327.53
  Q 184.01 316.56 182.80 303.27
  Z"
/>
<path fill="#4a4c5b" d="
  M 188.99 327.53
  C 199.74 345.44 210.42 359.06 229.17 368.99
  C 232.45 370.72 237.36 372.36 240.80 374.47
  C 290.86 405.17 369.43 404.48 403.56 348.75
  C 409.39 382.26 375.59 398.61 348.99 403.98
  C 322.53 409.32 296.34 408.25 270.04 402.62
  C 243.85 397.03 212.40 383.65 195.79 360.97
  Q 185.11 346.39 188.99 327.53
  Z"
/>
<path fill="#787889" d="
  M 343.82 453.52
  C 344.57 451.72 343.33 449.15 344.43 447.72
  A 0.67 0.67 0.0 0 1 345.62 448.07
  Q 346.12 453.77 345.49 458.81
  C 344.55 466.26 334.30 464.90 334.78 457.82
  C 335.02 454.20 339.75 451.34 343.16 453.71
  Q 343.61 454.03 343.82 453.52
  Z
  M 344.23 458.38
  A 4.00 4.00 0.0 0 0 340.23 454.38
  A 4.00 4.00 0.0 0 0 336.23 458.38
  A 4.00 4.00 0.0 0 0 340.23 462.38
  A 4.00 4.00 0.0 0 0 344.23 458.38
  Z"
/>
<path fill="#787889" d="
  M 412.52 455.52
  C 412.68 457.66 411.83 462.87 415.46 462.21
  A 0.49 0.49 0.0 0 1 416.01 462.86
  L 415.80 463.41
  A 0.79 0.78 -79.6 0 1 415.05 463.93
  C 409.29 463.82 411.84 457.43 410.13 454.07
  Q 409.92 453.64 410.12 453.21
  Q 411.11 451.10 410.97 448.71
  A 0.66 0.66 0.0 0 1 412.03 448.14
  C 413.95 449.63 411.01 452.34 414.92 453.02
  A 0.50 0.49 -51.8 0 1 415.03 453.96
  L 412.88 454.91
  Q 412.49 455.08 412.52 455.52
  Z"
/>
<path fill="#787889" d="
  M 291.32 459.98
  L 293.63 453.25
  A 0.69 0.69 0.0 0 1 294.94 453.27
  L 297.10 460.19
  A 0.35 0.35 0.0 0 0 297.77 460.18
  Q 298.70 456.88 300.01 453.51
  Q 300.34 452.66 300.59 452.70
  A 1.01 0.94 -75.7 0 1 301.31 454.02
  L 298.03 463.42
  A 0.55 0.55 0.0 0 1 297.01 463.45
  L 294.58 457.53
  A 0.36 0.36 0.0 0 0 293.91 457.55
  L 291.94 463.43
  A 0.77 0.77 0.0 0 1 290.49 463.47
  Q 288.69 458.82 287.40 453.72
  Q 287.36 453.54 287.40 453.40
  Q 287.47 453.19 287.58 453.11
  A 0.70 0.57 -30.6 0 1 288.58 453.26
  L 291.16 459.98
  Q 291.25 460.19 291.32 459.98
  Z"
/>
<path fill="#787889" d="
  M 308.95 463.75
  C 303.25 463.15 302.00 455.48 307.16 453.33
  C 312.72 451.02 315.99 456.54 314.59 461.67
  A 1.16 1.14 -58.2 0 0 314.82 462.70
  Q 315.30 463.28 314.64 463.71
  Q 314.21 463.99 313.78 463.72
  C 311.98 462.60 310.38 463.91 308.95 463.75
  Z
  M 313.33 458.34
  A 4.00 4.00 0.0 0 0 309.33 454.34
  A 4.00 4.00 0.0 0 0 305.33 458.34
  A 4.00 4.00 0.0 0 0 309.33 462.34
  A 4.00 4.00 0.0 0 0 313.33 458.34
  Z"
/>
<path fill="#787889" d="
  M 325.94 462.90
  C 322.62 464.78 318.53 463.48 317.45 459.74
  C 316.14 455.18 319.61 453.74 323.22 452.80
  A 1.46 1.44 -40.3 0 1 324.17 452.87
  C 329.28 455.12 328.02 458.96 328.22 463.38
  C 328.54 470.16 320.38 469.97 317.48 465.40
  A 0.50 0.50 0.0 0 1 318.27 464.79
  C 321.31 467.94 324.44 469.07 327.21 464.18
  A 0.94 0.93 -89.9 0 0 325.94 462.90
  Z
  M 326.73 458.29
  A 3.97 3.97 0.0 0 0 322.76 454.32
  A 3.97 3.97 0.0 0 0 318.79 458.29
  A 3.97 3.97 0.0 0 0 322.76 462.26
  A 3.97 3.97 0.0 0 0 326.73 458.29
  Z"
/>
<path fill="#787889" d="
  M 349.68 459.46
  C 350.60 463.15 353.94 462.46 356.49 461.29
  A 0.56 0.55 75.4 0 1 357.27 461.75
  Q 357.35 462.64 356.34 463.05
  C 348.42 466.24 344.77 456.42 350.87 453.59
  Q 355.41 451.48 358.89 456.64
  A 1.64 1.63 -16.3 0 1 357.49 459.19
  L 350.03 459.03
  Q 349.57 459.02 349.68 459.46
  Z
  M 349.72 457.39
  L 357.00 457.51
  A 0.12 0.12 0.0 0 0 357.12 457.40
  L 357.13 457.36
  A 3.67 2.94 1.0 0 0 353.51 454.35
  L 353.33 454.35
  A 3.67 2.94 1.0 0 0 349.61 457.22
  L 349.61 457.26
  A 0.12 0.12 0.0 0 0 349.72 457.39
  Z"
/>
<path fill="#787889" d="
  M 366.42 460.72
  L 370.12 452.98
  A 0.54 0.54 0.0 0 1 371.03 452.89
  Q 371.48 453.50 371.19 454.19
  Q 369.24 458.80 366.83 463.50
  A 0.73 0.72 46.4 0 1 365.52 463.46
  L 361.24 454.02
  A 0.74 0.73 -25.7 0 1 361.58 453.06
  Q 362.17 452.76 362.62 453.57
  Q 364.53 457.02 365.94 460.70
  Q 366.16 461.27 366.42 460.72
  Z"
/>
<path fill="#787889" d="
  M 381.09 454.55
  L 376.12 455.01
  Q 375.35 455.08 375.33 455.86
  L 375.21 463.26
  Q 375.21 463.62 374.86 463.72
  Q 374.29 463.88 373.99 463.53
  Q 373.79 463.30 373.82 462.79
  Q 374.00 458.79 373.68 454.28
  Q 373.56 452.63 375.09 453.26
  C 376.49 453.84 379.28 452.86 381.09 453.02
  A 0.77 0.77 0.0 0 1 381.09 454.55
  Z"
/>
<path fill="#787889" d="
  M 391.68 463.11
  C 385.82 465.94 380.68 458.10 385.62 454.08
  C 388.14 452.03 391.77 452.53 393.62 455.17
  C 395.05 457.21 394.52 460.76 394.75 463.38
  A 0.40 0.40 0.0 0 1 394.20 463.78
  L 392.44 463.09
  Q 392.06 462.93 391.68 463.11
  Z
  M 393.09 458.35
  A 4.00 4.00 0.0 0 0 389.09 454.35
  A 4.00 4.00 0.0 0 0 385.09 458.35
  A 4.00 4.00 0.0 0 0 389.09 462.35
  A 4.00 4.00 0.0 0 0 393.09 458.35
  Z"
/>
<path fill="#787889" d="
  M 402.69 454.31
  C 397.71 453.03 398.68 460.85 398.35 463.52
  Q 398.29 464.06 397.75 463.96
  Q 397.44 463.91 397.23 463.69
  Q 397.05 463.50 397.04 463.12
  Q 396.90 458.21 397.04 453.29
  Q 397.06 452.61 397.70 452.85
  L 398.94 453.31
  Q 399.42 453.48 399.91 453.31
  C 407.47 450.68 407.41 458.66 407.10 463.27
  Q 407.06 463.78 406.55 463.75
  Q 406.39 463.75 406.20 463.75
  Q 405.66 463.76 405.68 463.23
  C 405.77 460.06 406.64 455.33 402.69 454.31
  Z"
/>
<path fill="#787889" d="
  M 431.47 462.22
  C 428.10 465.15 423.18 463.51 422.20 459.17
  C 420.93 453.56 429.25 450.50 431.75 454.90
  A 0.56 0.55 86.3 0 1 431.06 455.69
  L 427.85 454.35
  Q 427.47 454.19 427.08 454.31
  C 421.80 455.93 422.94 462.45 427.59 462.33
  C 428.81 462.30 429.84 461.49 431.19 461.48
  A 0.42 0.42 0.0 0 1 431.47 462.22
  Z"
/>
<path fill="#787889" d="
  M 444.68 458.26
  A 5.49 5.49 0.0 0 1 439.19 463.75
  A 5.49 5.49 0.0 0 1 433.70 458.26
  A 5.49 5.49 0.0 0 1 439.19 452.77
  A 5.49 5.49 0.0 0 1 444.68 458.26
  Z
  M 443.02 458.32
  A 3.94 3.94 0.0 0 0 439.08 454.38
  A 3.94 3.94 0.0 0 0 435.14 458.32
  A 3.94 3.94 0.0 0 0 439.08 462.26
  A 3.94 3.94 0.0 0 0 443.02 458.32
  Z"
/>
<path fill="#787889" d="
  M 455.40 454.22
  C 457.85 451.41 461.55 452.81 462.75 456.00
  C 463.26 457.34 462.93 460.18 463.02 462.77
  Q 463.06 463.88 461.98 464.01
  A 0.86 0.86 0.0 0 1 461.01 463.16
  L 461.00 456.28
  A 0.72 0.71 -75.7 0 0 460.65 455.68
  L 458.95 454.69
  A 1.97 1.97 0.0 0 0 456.00 456.39
  L 455.99 463.52
  A 0.52 0.51 3.5 0 1 455.41 464.03
  L 454.61 463.92
  A 0.71 0.71 0.0 0 1 454.00 463.22
  L 454.00 456.23
  Q 454.00 455.67 453.56 455.33
  Q 451.46 453.70 449.34 455.44
  Q 449.02 455.71 449.00 456.12
  L 448.66 463.35
  A 0.54 0.53 -7.1 0 1 448.28 463.83
  L 447.80 463.97
  A 0.58 0.58 0.0 0 1 447.06 463.42
  L 446.88 453.10
  Q 446.87 452.51 447.43 452.68
  L 449.13 453.21
  Q 449.65 453.38 450.15 453.15
  Q 452.91 451.93 454.53 454.18
  Q 454.94 454.75 455.40 454.22
  Z"
/>
<path fill="#787889" d="
  M 278.53 456.72
  L 283.73 458.57
  A 2.28 2.28 0.0 0 1 284.16 462.66
  Q 279.47 465.55 276.05 461.27
  A 0.53 0.52 -88.4 0 1 276.81 460.55
  Q 279.44 462.90 282.72 461.88
  A 0.98 0.97 46.3 0 0 282.76 460.03
  L 277.56 458.16
  A 2.22 2.22 0.0 0 1 276.63 454.61
  C 278.31 452.66 285.18 452.31 285.14 455.70
  A 0.27 0.27 0.0 0 1 284.71 455.92
  Q 281.92 453.93 278.70 454.55
  A 1.13 1.13 0.0 0 0 278.53 456.72
  Z"
/>
<ellipse fill="#787889" cx="0.00" cy="0.00" transform="translate(331.40,462.63) rotate(26.9)" rx="1.22" ry="0.96"/>
<ellipse fill="#787889" cx="0.00" cy="0.00" transform="translate(418.58,462.74) rotate(-36.6)" rx="1.27" ry="0.95"/>
</g>
<g>
<ellipse fill="#b0272f" cx="0.00" cy="0.00" transform="translate(214.90,171.17) rotate(-3.3)" rx="6.22" ry="4.27"/>
<path fill="#b0272f" d="
  M 194.26 176.05
  C 197.04 172.63 201.56 172.37 204.29 176.17
  Q 214.93 190.96 225.36 205.91
  Q 226.58 207.66 226.87 209.13
  A 1.06 1.06 0.0 0 1 226.59 210.08
  C 222.34 214.62 218.37 212.59 215.26 208.16
  Q 205.89 194.82 196.59 181.42
  Q 194.83 178.90 194.11 177.04
  A 1.01 1.00 53.8 0 1 194.26 176.05
  Z"
/>
<ellipse fill="#b0272f" cx="0.00" cy="0.00" transform="translate(234.26,183.10) rotate(-3.0)" rx="6.23" ry="4.23"/>
<path fill="#272422" d="
  M 402.1472 247.5956
  A 12.25 3.93 95.4 0 1 399.3874 235.0302
  A 12.25 3.93 95.4 0 1 404.4528 223.2044
  A 12.25 3.93 95.4 0 1 407.2126 235.7698
  A 12.25 3.93 95.4 0 1 402.1472 247.5956
  Z
  M 403.4449 235.7358
  A 3.73 1.07 95.0 0 0 404.8359 232.1133
  A 3.73 1.07 95.0 0 0 404.0951 228.3042
  A 3.73 1.07 95.0 0 0 402.7041 231.9267
  A 3.73 1.07 95.0 0 0 403.4449 235.7358
  Z"
/>
<path fill="#272422" d="
  M 359.9666 262.8048
  A 12.20 11.36 -23.4 0 1 353.2816 278.0757
  A 12.20 11.36 -23.4 0 1 337.5734 272.4952
  A 12.20 11.36 -23.4 0 1 344.2584 257.2243
  A 12.20 11.36 -23.4 0 1 359.9666 262.8048
  Z
  M 353.46 264.11
  A 3.26 3.26 0.0 0 0 350.20 260.85
  A 3.26 3.26 0.0 0 0 346.94 264.11
  A 3.26 3.26 0.0 0 0 350.20 267.37
  A 3.26 3.26 0.0 0 0 353.46 264.11
  Z"
/>
<circle fill="#55556d" cx="309.33" cy="458.34" r="4.00"/>
<circle fill="#55556d" cx="322.76" cy="458.29" r="3.97"/>
<circle fill="#55556d" cx="340.23" cy="458.38" r="4.00"/>
<path fill="#55556d" d="
  M 349.72 457.39
  A 0.12 0.12 0.0 0 1 349.61 457.26
  L 349.61 457.22
  A 3.67 2.94 1.0 0 1 353.33 454.35
  L 353.51 454.35
  A 3.67 2.94 1.0 0 1 357.13 457.36
  L 357.12 457.40
  A 0.12 0.12 0.0 0 1 357.00 457.51
  L 349.72 457.39
  Z"
/>
<circle fill="#55556d" cx="389.09" cy="458.35" r="4.00"/>
<circle fill="#55556d" cx="439.08" cy="458.32" r="3.94"/>
</g>
<g>
<ellipse fill="#ffffff" cx="0.00" cy="0.00" transform="translate(403.77,232.02) rotate(95.0)" rx="3.73" ry="1.07"/>
<circle fill="#ffffff" cx="350.20" cy="264.11" r="3.26"/>
</g>
</svg>
