<?xml version="1.0" encoding="UTF-8" standalone="no"?>
<!DOCTYPE svg PUBLIC "-//W3C//DTD SVG 1.1//EN" "http://www.w3.org/Graphics/SVG/1.1/DTD/svg11.dtd">
<svg width="100%" height="100%" viewBox="0 0 600 600" version="1.1" xmlns="http://www.w3.org/2000/svg" xmlns:xlink="http://www.w3.org/1999/xlink" xml:space="preserve" xmlns:serif="http://www.serif.com/" style="fill-rule:evenodd;clip-rule:evenodd;stroke-linejoin:round;stroke-miterlimit:2;">
    <path d="M65.427,435.724C58.806,418.072 55.091,399.261 54.715,380.199C54.401,364.182 59.934,352.623 75.736,342.729C148.651,297.074 285.026,256.507 363.662,254.636C443.663,252.733 527.395,268.118 553.553,295.506C560.631,302.917 520.171,440.296 511.811,439.172C399.51,635.219 90.06,567.868 64.566,435.966L64.526,435.762L64.486,435.55L64.48,435.514L64.475,435.489L64.453,435.371L64.409,435.136L64.397,435.07L64.392,435.043L64.381,434.98L64.335,434.725L64.317,434.626L64.31,434.588L64.268,434.347L64.239,434.181L64.163,433.736L64.112,433.429L64.089,433.29L64.045,433.016C63.998,432.88 63.954,432.743 63.915,432.605L63.896,432.537L63.88,432.476L63.879,432.469C63.857,432.385 63.837,432.3 63.82,432.214L63.804,432.133L63.797,432.097L63.793,432.076L63.786,432.036L63.777,431.975L63.774,431.958C63.763,431.883 63.754,431.808 63.747,431.732L63.744,431.704L63.741,431.659L63.738,431.623L63.737,431.605L63.737,431.592L63.735,431.569L63.733,431.506L63.732,431.49L63.732,431.486L63.731,431.383L63.731,431.378L63.732,431.359L63.733,431.305L63.734,431.283L63.734,431.268L63.736,431.25L63.737,431.22L63.74,431.18L63.741,431.16L63.742,431.15L63.752,431.054L63.819,431.526L63.84,431.672L63.888,432.002L63.911,432.152L63.962,432.491L63.979,432.596L64.045,433.016L64.1,433.168L64.157,433.319L64.161,433.328L64.216,433.464L64.226,433.489L64.289,433.637L64.354,433.782L64.373,433.824L64.409,433.902L64.504,434.101L64.512,434.118L64.624,434.34L64.65,434.389L64.753,434.584L64.773,434.621L64.897,434.845L64.933,434.907L65.031,435.077L65.076,435.153L65.2,435.361L65.272,435.476L65.334,435.577L65.427,435.724Z" style="fill:rgb(255,226,95);fill-rule:nonzero;"/>
    <g transform="matrix(-1,0,0,1,926.857,-158.305)">
        <path d="M381.026,502.162C382.393,507.365 444.494,601.603 462.01,611.064C478.206,619.812 505.314,617.812 510.542,616.776C528.886,613.143 537.613,593.761 545.41,581.332C545.963,580.452 549.845,605.446 550.043,615.787C550.417,635.382 529.812,654.184 529.812,654.184C529.812,654.184 630.164,684.485 697.953,678.778C773.929,672.382 864.828,603.275 863.104,589.359C841.985,742.403 439.136,812.302 381.026,502.162Z" style="fill:rgb(233,208,78);fill-rule:nonzero;"/>
    </g>
    <path d="M372.57,122.065C392.303,149.177 403.952,182.557 403.952,218.636C403.952,309.357 330.299,383.01 239.579,383.01C218.576,383.01 187.81,382.627 166.292,375.833C164.693,375.927 163.125,375.712 161.59,375.14C157.787,373.725 154.237,372.118 150.895,370.346C141.226,372.467 130.955,373.116 121,373.85C122.531,375.824 123.66,377.063 124.385,377.566C131.897,382.793 140.055,386.815 148.86,389.629C149.671,389.889 174.814,397.708 195.516,398.723C241.816,400.993 287.726,394.405 332.122,383.247C343.377,380.418 355.97,377.391 363.72,375.039C372.194,372.47 380.96,370.128 390.019,368.015C391.666,367.334 393.436,366.622 395.331,365.88C397.018,365.219 398.828,364.606 400.762,364.04C407.837,361.978 414.889,359.852 421.919,357.661C477.048,340.494 531.684,322.071 585.827,302.391C586.698,302.077 587.639,301.382 588.65,300.306C588.763,300.185 588.807,300.016 588.766,299.852C588.358,298.187 585.548,296.195 584.424,295.448C569.904,285.818 556.595,276.337 536.567,261.985C533.568,259.838 530.905,257.905 528.577,256.186C482.587,222.183 439.308,184.82 397.858,145.927C389.747,138.316 372.713,122.046 372.57,122.065Z" style="fill:rgb(177,35,43);fill-rule:nonzero;"/>
    <g transform="matrix(-1.00108,0,0,1.00108,948.54,-153.962)">
        <path d="M708.196,208C798.819,208 872.393,281.574 872.393,372.196C872.393,412.917 867.527,450.195 842.945,478.903C826.237,498.415 811.951,517.964 785.128,527.947C763.59,535.963 730.421,536.393 708.196,536.393C617.574,536.393 544,462.819 544,372.196C544,281.574 617.574,208 708.196,208Z" style="fill:rgb(233,208,78);"/>
    </g>
    <g transform="matrix(-1.00108,0,0,1.00108,937.54,-164.962)">
        <path d="M708.196,208C798.819,208 872.393,281.574 872.393,372.196C872.393,412.917 867.527,450.195 842.945,478.903C826.237,498.415 811.951,517.964 785.128,527.947C763.59,535.963 730.421,536.393 708.196,536.393C617.574,536.393 544,462.819 544,372.196C544,281.574 617.574,208 708.196,208Z" style="fill:rgb(255,226,95);"/>
    </g>
    <path d="M93.898,384.904C97.68,385.665 101.567,385.924 105.425,385.932L105.892,385.932C118.414,385.892 139.54,382.3 151.604,379.171C157.546,377.629 163.273,375.351 169.058,373.298C174.696,371.296 186.697,368.286 189.762,361.355C190.327,360.078 187.794,357.654 187.228,357.042C185.175,354.823 183.179,352.547 181.031,350.421C176.135,345.573 171.104,340.864 166.103,336.125C146.709,317.747 125.418,293.176 99.189,283.861C93.784,281.942 76.685,274.416 70.837,280.222C63.056,287.947 58.883,295.546 53.982,305.347C40.119,333.714 45.895,365.263 75.749,379.157C81.502,381.834 87.68,383.636 93.898,384.904Z" style="fill:rgb(221,136,77);fill-rule:nonzero;"/>
    <g transform="matrix(-1,0,0,1,926.857,-158.305)">
        <path d="M816.657,447.007C819.522,445.574 820.033,452.074 820.307,452.795C825.47,466.369 827.94,472.461 836.024,484.59C843.275,495.467 855.239,501.739 864.979,509.906C870.778,514.769 873.261,524.181 865.337,528.977C855.589,534.877 845.246,541.271 832.959,543.209C816.096,545.87 789.419,540.665 775.512,537.543C764.936,535.169 749.785,529.104 740.45,523.719C738.816,522.777 737.986,521.322 737.094,519.66C736.453,518.466 739.139,515.877 739.629,515.347C741.681,513.128 743.677,510.853 745.825,508.726C750.721,503.878 755.683,499.095 760.754,494.43C770.955,485.046 780.332,474.991 790.67,465.756C796.935,460.159 809.005,450.833 816.657,447.007Z" style="fill:rgb(246,146,70);fill-rule:nonzero;"/>
    </g>
    <g transform="matrix(-1,0,0,1,926.857,-158.305)">
        <path d="M746.621,469.619C757.194,464.176 762.429,453.916 760.23,443.238C757.508,429.628 742.852,421.253 730.08,426.069C715.842,431.303 708.619,441.249 710.503,453.183C712.807,469.201 731.441,477.576 746.621,469.619ZM854.031,399.06C858.323,388.381 859.37,370.584 856.334,360.848C855.392,358.022 854.659,357.394 852.251,357.394C848.063,357.394 845.446,361.267 843.457,369.956C841.573,378.227 841.259,396.652 842.934,401.049C843.562,402.619 844.818,404.817 845.656,405.864C848.168,408.586 851.204,406.074 854.031,399.06Z" style="fill:rgb(35,31,29);fill-rule:nonzero;"/>
    </g>
    <g transform="matrix(-1.04688,0,0,1.04688,921.532,-169.413)">
        <path d="M696,437.2C691.3,433.4 694.4,426 700.6,426C707,426 709.4,432.9 704.4,436.9C701.1,439.5 698.9,439.5 696,437.2ZM805.4,373.6C804.6,370.3 805.5,363.1 806.8,361.8C807.4,361.2 808.4,361.1 809,361.5C810.7,362.6 809.7,372.7 807.7,374.7C806.2,376.2 806.1,376.1 805.4,373.6Z" style="fill:white;fill-rule:nonzero;"/>
    </g>
    <g transform="matrix(2.10534,0.502324,-0.55238,2.31513,-13.5102,-63.059)">
        <g id="Layer1">
            <path d="M79.59,92.05C83.863,92.677 88.087,93.347 92.26,94.06C103.73,96.02 115.25,96.66 126.75,97.75C129.397,97.997 133.66,99.49 139.54,102.23C143.527,104.337 147.457,107.133 151.33,110.62L154.88,115.88C155.068,116.149 155.375,116.309 155.7,116.31C157.287,116.317 159.07,115.973 161.05,115.28C167.563,113.007 174.037,110.76 180.47,108.54C187.81,106.03 197.69,102.08 202.49,102.57C211.27,101.47 214.03,106.1 216.32,113.96C217.333,117.42 218.417,120.85 219.57,124.25C219.664,124.537 219.607,124.85 219.42,125.08C216.76,128.41 212.51,130.15 211.45,124.27C210.73,120.23 210.01,114.47 205.15,113.36C203.65,113.18 202.25,113.08 200.76,113.72C187.053,119.513 173.157,124.84 159.07,129.7C158.723,129.82 158.37,129.853 158.01,129.8C156.557,129.6 155.133,129.677 153.74,130.03C153.322,130.136 152.984,130.444 152.84,130.85C149.11,141.26 140.84,149.95 128.98,148.71L121.62,147.18C109.227,141.02 100.733,131.683 96.14,119.17C95.3,117.12 94.6,114.78 93.31,113.05C91.903,111.15 90.93,110.947 90.39,112.44C87.83,120.64 86.02,127.19 80.58,134.05C78.46,136.723 75.747,138.48 72.44,139.32C60.42,137.99 55.54,125.62 53.8,115.05C53.774,114.895 53.697,114.754 53.58,114.65L51.35,112.69C51.143,112.502 51.005,112.252 50.96,111.98L49.66,103.6C49.607,103.267 49.697,102.977 49.93,102.73L50.86,101.74C51.107,101.487 51.25,101.183 51.29,100.83C52.63,89.63 63.05,89.54 71.72,90.51C71.86,90.523 71.95,90.597 71.99,90.73C72.023,90.817 72.053,90.903 72.08,90.99C72.1,91.05 72.143,91.083 72.21,91.09L79.59,92.05Z" style="fill:rgb(27,26,25);fill-rule:nonzero;"/>
        </g>
    </g>
</svg>
