<?xml version="1.0" encoding="UTF-8" standalone="no"?>
<!DOCTYPE svg PUBLIC "-//W3C//DTD SVG 1.1//EN" "http://www.w3.org/Graphics/SVG/1.1/DTD/svg11.dtd">
<svg xmlns="http://www.w3.org/2000/svg" version="1.1" viewBox="0.00 0.00 225.00 225.00">
<g stroke-width="2.00" fill="none" stroke-linecap="butt">
<path stroke="#96782e" vector-effect="non-scaling-stroke" d="
  M 158.48 97.07
  C 164.35 118.63 164.91 142.75 142.87 155.53
  C 126.46 165.04 103.93 163.54 87.34 155.65
  C 74.07 149.34 64.71 137.00 71.40 121.93
  C 74.38 115.23 78.35 111.65 82.87 106.87
  Q 84.93 104.70 83.29 102.24
  A 2.13 2.12 -38.2 0 0 80.08 101.86
  C 70.14 111.09 61.00 123.67 64.42 138.22
  C 66.77 148.22 75.75 156.23 85.14 160.55
  Q 107.13 170.67 130.99 165.77
  C 168.45 158.07 173.66 120.57 161.87 90.32
  A 2.27 2.27 0.0 0 0 158.38 89.35
  C 146.13 98.68 135.15 105.02 119.25 104.96
  A 0.51 0.51 0.0 0 1 118.90 104.08
  C 140.25 83.55 123.14 49.19 93.25 59.33
  C 86.51 61.61 81.76 65.91 77.16 71.28
  C 73.94 75.06 67.29 75.43 62.74 74.82
  C 57.75 74.15 56.52 79.34 58.27 82.99
  Q 62.68 92.25 72.44 95.60
  C 76.43 96.98 84.11 96.60 86.07 91.91
  C 87.67 88.11 81.18 81.01 79.60 78.84
  A 0.86 0.86 0.0 0 1 79.55 77.93
  Q 86.06 66.27 98.26 63.63
  C 111.03 60.87 122.96 68.81 123.01 82.41
  C 123.04 90.96 118.72 96.47 112.44 102.94
  Q 111.60 103.80 110.39 106.00
  Q 110.12 106.48 110.25 107.01
  Q 110.83 109.48 113.95 109.82
  C 130.80 111.66 144.75 106.77 157.72 96.82
  A 0.48 0.48 0.0 0 1 158.48 97.07"
/>
<path stroke="#96782e" vector-effect="non-scaling-stroke" d="
  M 99.43 78.86
  A 4.16 4.16 0.0 0 0 95.27 74.70
  A 4.16 4.16 0.0 0 0 91.11 78.86
  A 4.16 4.16 0.0 0 0 95.27 83.02
  A 4.16 4.16 0.0 0 0 99.43 78.86"
/>
<path stroke="#d8a21f" vector-effect="non-scaling-stroke" d="
  M 102.85 181.92
  C 106.65 182.41 111.71 181.51 114.41 181.53
  Q 133.58 181.72 142.06 180.33
  C 148.79 179.23 154.39 179.12 160.32 178.41
  A 0.25 0.24 46.7 0 0 160.33 177.93
  C 140.16 173.88 119.88 174.32 99.38 174.60
  C 88.42 174.75 77.21 176.57 66.06 177.77
  Q 65.73 177.81 65.48 178.18
  A 0.29 0.29 0.0 0 0 65.72 178.63
  Q 77.05 178.76 89.55 180.76
  C 93.76 181.43 98.33 181.35 102.85 181.92"
/>
<path stroke="#d8a21f" vector-effect="non-scaling-stroke" d="
  M 152.83 199.69
  C 150.15 198.79 146.74 199.38 144.73 199.22
  C 141.46 198.95 137.78 198.72 134.54 199.30
  Q 133.77 199.44 133.19 199.13
  A 0.89 0.89 0.0 0 0 132.13 200.54
  Q 132.67 201.08 133.37 200.95
  C 136.01 200.44 139.90 200.82 142.65 200.88
  C 144.22 200.91 145.99 200.08 147.52 201.13
  Q 147.91 201.39 148.38 201.40
  Q 152.04 201.44 155.56 200.60
  Q 156.06 200.49 156.58 200.50
  L 161.45 200.66
  Q 161.91 200.68 162.31 200.89
  Q 162.95 201.24 163.69 200.75
  Q 164.07 200.50 164.53 200.54
  L 169.03 200.96
  Q 169.56 201.01 169.95 200.65
  Q 170.85 199.80 171.93 200.49
  Q 174.22 201.96 175.88 200.59
  A 0.84 0.84 0.0 0 0 175.94 199.35
  L 175.38 198.79
  Q 174.91 198.33 174.45 198.79
  Q 173.57 199.67 172.75 199.51
  Q 168.58 198.69 164.35 199.21
  A 1.47 1.46 -36.2 0 1 163.62 199.10
  Q 161.86 198.34 160.20 199.48
  A 0.76 0.74 -52.0 0 1 159.52 199.57
  Q 156.59 198.54 153.83 199.66
  Q 153.34 199.86 152.83 199.69"
/>
<path stroke="#d8a21f" vector-effect="non-scaling-stroke" d="
  M 182.97 200.68
  Q 185.31 202.27 187.34 200.15
  A 0.72 0.71 -70.8 0 0 186.76 198.94
  Q 183.38 199.28 180.51 198.99
  Q 178.44 198.79 177.39 200.07
  A 0.89 0.89 0.0 0 0 178.30 201.49
  L 182.06 200.52
  Q 182.55 200.39 182.97 200.68"
/>
<path stroke="#d8a21f" vector-effect="non-scaling-stroke" d="
  M 215.8679 199.4746
  A 0.27 0.27 0.0 0 0 215.5969 199.2056
  L 190.1371 199.2944
  A 0.27 0.27 0.0 0 0 189.8680 199.5654
  L 189.8721 200.7454
  A 0.27 0.27 0.0 0 0 190.1431 201.0144
  L 215.6029 200.9256
  A 0.27 0.27 0.0 0 0 215.8720 200.6546
  L 215.8679 199.4746"
/>
<path stroke="#d8a21f" vector-effect="non-scaling-stroke" d="
  M 192.27 205.63
  Q 191.54 204.33 190.25 204.28
  Q 186.93 204.14 178.87 204.38
  Q 178.36 204.39 178.19 204.87
  L 177.89 205.67
  A 0.62 0.61 -59.6 0 1 176.92 205.93
  L 176.07 205.20
  A 0.54 0.53 46.2 0 1 176.08 204.37
  Q 176.54 204.01 176.61 203.78
  A 0.61 0.58 -20.5 0 0 175.54 203.32
  Q 174.37 204.91 175.47 206.62
  A 0.79 0.78 -27.3 0 0 176.43 206.92
  C 178.80 205.97 180.71 206.73 182.73 206.64
  Q 188.48 206.38 194.23 206.59
  Q 194.85 206.61 194.91 205.99
  L 195.03 204.82
  Q 195.11 204.02 194.32 204.18
  Q 193.24 204.39 193.04 205.51
  A 0.42 0.41 35.9 0 1 192.27 205.63"
/>
<path stroke="#d8a21f" vector-effect="non-scaling-stroke" d="
  M 172.27 206.09
  L 171.99 204.15
  A 0.48 0.48 0.0 0 0 171.44 203.75
  L 171.08 203.80
  A 4.81 1.19 -8.3 0 0 166.49 205.67
  L 166.57 206.21
  A 4.81 1.19 -8.3 0 0 171.50 206.69
  L 171.87 206.64
  A 0.48 0.48 0.0 0 0 172.27 206.09"
/>
<path stroke="#d8a21f" vector-effect="non-scaling-stroke" d="
  M 203.2200 204.3387
  A 0.27 0.27 0.0 0 0 202.9394 204.0798
  L 196.9043 204.3222
  A 0.27 0.27 0.0 0 0 196.6453 204.6028
  L 196.7200 206.4613
  A 0.27 0.27 0.0 0 0 197.0006 206.7202
  L 203.0357 206.4778
  A 0.27 0.27 0.0 0 0 203.2947 206.1972
  L 203.2200 204.3387"
/>
<path stroke="#d8a21f" vector-effect="non-scaling-stroke" d="
  M 148.92 205.01
  A 0.76 0.76 0.0 0 1 147.65 205.29
  Q 146.19 203.75 144.90 205.32
  A 0.86 0.86 0.0 0 0 145.54 206.73
  L 160.20 207.03
  A 0.97 0.97 0.0 0 0 160.55 205.15
  C 157.81 204.15 155.57 205.14 152.78 204.62
  Q 151.15 204.32 149.49 204.29
  Q 149.15 204.28 149.05 204.60
  L 148.92 205.01"
/>
<path stroke="#d8a21f" vector-effect="non-scaling-stroke" d="
  M 164.86 207.16
  L 165.08 205.42
  A 0.50 0.50 0.0 0 0 164.64 204.86
  L 164.49 204.84
  A 2.31 1.34 7.0 0 0 162.04 205.89
  L 162.03 205.97
  A 2.31 1.34 7.0 0 0 164.16 207.58
  L 164.30 207.60
  A 0.50 0.50 0.0 0 0 164.86 207.16"
/>
<path stroke="#d8a21f" vector-effect="non-scaling-stroke" d="
  M 154.41 210.93
  A 0.60 0.60 0.0 0 1 154.66 209.82
  L 155.69 209.72
  A 0.57 0.57 0.0 0 1 156.29 210.46
  L 155.98 211.46
  Q 155.88 211.78 156.21 211.77
  L 166.24 211.71
  Q 166.74 211.71 166.82 211.21
  L 167.06 209.61
  A 0.42 0.42 0.0 0 0 166.37 209.23
  Q 163.63 211.66 160.60 209.66
  Q 160.17 209.38 159.67 209.50
  C 158.07 209.89 156.43 209.22 155.27 209.22
  Q 152.14 209.22 149.14 210.32
  A 0.67 0.66 -49.7 0 0 149.24 211.60
  Q 152.03 212.13 154.73 211.57
  Q 155.29 211.45 154.80 211.16
  L 154.41 210.93"
/>
<path stroke="#d8a21f" vector-effect="non-scaling-stroke" d="
  M 164.02 215.57
  L 163.97 214.62
  A 0.52 0.52 0.0 0 0 163.09 214.28
  L 162.27 215.10
  A 0.84 0.84 0.0 0 0 162.88 216.53
  L 182.03 216.29
  Q 182.79 216.28 182.65 215.53
  L 182.52 214.88
  Q 182.42 214.36 181.90 214.38
  Q 175.20 214.57 168.49 214.49
  C 167.60 214.48 167.44 214.21 166.81 213.72
  Q 166.32 213.35 166.21 213.94
  Q 165.94 215.41 164.71 215.99
  A 0.49 0.49 0.0 0 1 164.02 215.57"
/>
<path stroke="#d8a21f" vector-effect="non-scaling-stroke" d="
  M 160.72 215.03
  A 0.56 0.56 0.0 0 0 160.16 214.47
  L 147.66 214.47
  A 0.56 0.56 0.0 0 0 147.10 215.03
  L 147.10 216.05
  A 0.56 0.56 0.0 0 0 147.66 216.61
  L 160.16 216.61
  A 0.56 0.56 0.0 0 0 160.72 216.05
  L 160.72 215.03"
/>
<path stroke="#d8a21f" vector-effect="non-scaling-stroke" d="
  M 196.89 214.23
  L 195.94 214.67
  Q 195.43 214.91 194.88 214.74
  C 193.25 214.21 191.22 214.67 189.89 214.58
  Q 187.82 214.44 185.75 214.42
  Q 184.46 214.41 184.31 215.42
  A 0.72 0.72 0.0 0 0 185.00 216.25
  L 197.28 216.76
  A 0.89 0.89 0.0 0 0 198.14 216.18
  Q 198.53 215.11 197.31 214.27
  A 0.43 0.42 50.1 0 0 196.89 214.23"
/>
<path stroke="#96782e" vector-effect="non-scaling-stroke" d="
  M 63.55 80.28
  A 0.33 0.33 0.0 0 0 63.22 80.76
  C 66.08 86.37 73.04 92.42 80.01 90.37
  A 0.76 0.76 0.0 0 0 80.36 89.13
  Q 76.62 85.07 74.30 80.10
  Q 74.06 79.58 73.51 79.72
  Q 68.59 80.89 63.55 80.28"
/>
</g>
<path fill="#eeb423" d="
  M 0.00 0.00
  L 225.00 0.00
  L 225.00 225.00
  L 0.00 225.00
  L 0.00 0.00
  Z
  M 158.48 97.07
  C 164.35 118.63 164.91 142.75 142.87 155.53
  C 126.46 165.04 103.93 163.54 87.34 155.65
  C 74.07 149.34 64.71 137.00 71.40 121.93
  C 74.38 115.23 78.35 111.65 82.87 106.87
  Q 84.93 104.70 83.29 102.24
  A 2.13 2.12 -38.2 0 0 80.08 101.86
  C 70.14 111.09 61.00 123.67 64.42 138.22
  C 66.77 148.22 75.75 156.23 85.14 160.55
  Q 107.13 170.67 130.99 165.77
  C 168.45 158.07 173.66 120.57 161.87 90.32
  A 2.27 2.27 0.0 0 0 158.38 89.35
  C 146.13 98.68 135.15 105.02 119.25 104.96
  A 0.51 0.51 0.0 0 1 118.90 104.08
  C 140.25 83.55 123.14 49.19 93.25 59.33
  C 86.51 61.61 81.76 65.91 77.16 71.28
  C 73.94 75.06 67.29 75.43 62.74 74.82
  C 57.75 74.15 56.52 79.34 58.27 82.99
  Q 62.68 92.25 72.44 95.60
  C 76.43 96.98 84.11 96.60 86.07 91.91
  C 87.67 88.11 81.18 81.01 79.60 78.84
  A 0.86 0.86 0.0 0 1 79.55 77.93
  Q 86.06 66.27 98.26 63.63
  C 111.03 60.87 122.96 68.81 123.01 82.41
  C 123.04 90.96 118.72 96.47 112.44 102.94
  Q 111.60 103.80 110.39 106.00
  Q 110.12 106.48 110.25 107.01
  Q 110.83 109.48 113.95 109.82
  C 130.80 111.66 144.75 106.77 157.72 96.82
  A 0.48 0.48 0.0 0 1 158.48 97.07
  Z
  M 99.43 78.86
  A 4.16 4.16 0.0 0 0 95.27 74.70
  A 4.16 4.16 0.0 0 0 91.11 78.86
  A 4.16 4.16 0.0 0 0 95.27 83.02
  A 4.16 4.16 0.0 0 0 99.43 78.86
  Z
  M 102.85 181.92
  C 106.65 182.41 111.71 181.51 114.41 181.53
  Q 133.58 181.72 142.06 180.33
  C 148.79 179.23 154.39 179.12 160.32 178.41
  A 0.25 0.24 46.7 0 0 160.33 177.93
  C 140.16 173.88 119.88 174.32 99.38 174.60
  C 88.42 174.75 77.21 176.57 66.06 177.77
  Q 65.73 177.81 65.48 178.18
  A 0.29 0.29 0.0 0 0 65.72 178.63
  Q 77.05 178.76 89.55 180.76
  C 93.76 181.43 98.33 181.35 102.85 181.92
  Z
  M 152.83 199.69
  C 150.15 198.79 146.74 199.38 144.73 199.22
  C 141.46 198.95 137.78 198.72 134.54 199.30
  Q 133.77 199.44 133.19 199.13
  A 0.89 0.89 0.0 0 0 132.13 200.54
  Q 132.67 201.08 133.37 200.95
  C 136.01 200.44 139.90 200.82 142.65 200.88
  C 144.22 200.91 145.99 200.08 147.52 201.13
  Q 147.91 201.39 148.38 201.40
  Q 152.04 201.44 155.56 200.60
  Q 156.06 200.49 156.58 200.50
  L 161.45 200.66
  Q 161.91 200.68 162.31 200.89
  Q 162.95 201.24 163.69 200.75
  Q 164.07 200.50 164.53 200.54
  L 169.03 200.96
  Q 169.56 201.01 169.95 200.65
  Q 170.85 199.80 171.93 200.49
  Q 174.22 201.96 175.88 200.59
  A 0.84 0.84 0.0 0 0 175.94 199.35
  L 175.38 198.79
  Q 174.91 198.33 174.45 198.79
  Q 173.57 199.67 172.75 199.51
  Q 168.58 198.69 164.35 199.21
  A 1.47 1.46 -36.2 0 1 163.62 199.10
  Q 161.86 198.34 160.20 199.48
  A 0.76 0.74 -52.0 0 1 159.52 199.57
  Q 156.59 198.54 153.83 199.66
  Q 153.34 199.86 152.83 199.69
  Z
  M 182.97 200.68
  Q 185.31 202.27 187.34 200.15
  A 0.72 0.71 -70.8 0 0 186.76 198.94
  Q 183.38 199.28 180.51 198.99
  Q 178.44 198.79 177.39 200.07
  A 0.89 0.89 0.0 0 0 178.30 201.49
  L 182.06 200.52
  Q 182.55 200.39 182.97 200.68
  Z
  M 215.8679 199.4746
  A 0.27 0.27 0.0 0 0 215.5969 199.2056
  L 190.1371 199.2944
  A 0.27 0.27 0.0 0 0 189.8680 199.5654
  L 189.8721 200.7454
  A 0.27 0.27 0.0 0 0 190.1431 201.0144
  L 215.6029 200.9256
  A 0.27 0.27 0.0 0 0 215.8720 200.6546
  L 215.8679 199.4746
  Z
  M 192.27 205.63
  Q 191.54 204.33 190.25 204.28
  Q 186.93 204.14 178.87 204.38
  Q 178.36 204.39 178.19 204.87
  L 177.89 205.67
  A 0.62 0.61 -59.6 0 1 176.92 205.93
  L 176.07 205.20
  A 0.54 0.53 46.2 0 1 176.08 204.37
  Q 176.54 204.01 176.61 203.78
  A 0.61 0.58 -20.5 0 0 175.54 203.32
  Q 174.37 204.91 175.47 206.62
  A 0.79 0.78 -27.3 0 0 176.43 206.92
  C 178.80 205.97 180.71 206.73 182.73 206.64
  Q 188.48 206.38 194.23 206.59
  Q 194.85 206.61 194.91 205.99
  L 195.03 204.82
  Q 195.11 204.02 194.32 204.18
  Q 193.24 204.39 193.04 205.51
  A 0.42 0.41 35.9 0 1 192.27 205.63
  Z
  M 172.27 206.09
  L 171.99 204.15
  A 0.48 0.48 0.0 0 0 171.44 203.75
  L 171.08 203.80
  A 4.81 1.19 -8.3 0 0 166.49 205.67
  L 166.57 206.21
  A 4.81 1.19 -8.3 0 0 171.50 206.69
  L 171.87 206.64
  A 0.48 0.48 0.0 0 0 172.27 206.09
  Z
  M 203.2200 204.3387
  A 0.27 0.27 0.0 0 0 202.9394 204.0798
  L 196.9043 204.3222
  A 0.27 0.27 0.0 0 0 196.6453 204.6028
  L 196.7200 206.4613
  A 0.27 0.27 0.0 0 0 197.0006 206.7202
  L 203.0357 206.4778
  A 0.27 0.27 0.0 0 0 203.2947 206.1972
  L 203.2200 204.3387
  Z
  M 148.92 205.01
  A 0.76 0.76 0.0 0 1 147.65 205.29
  Q 146.19 203.75 144.90 205.32
  A 0.86 0.86 0.0 0 0 145.54 206.73
  L 160.20 207.03
  A 0.97 0.97 0.0 0 0 160.55 205.15
  C 157.81 204.15 155.57 205.14 152.78 204.62
  Q 151.15 204.32 149.49 204.29
  Q 149.15 204.28 149.05 204.60
  L 148.92 205.01
  Z
  M 164.86 207.16
  L 165.08 205.42
  A 0.50 0.50 0.0 0 0 164.64 204.86
  L 164.49 204.84
  A 2.31 1.34 7.0 0 0 162.04 205.89
  L 162.03 205.97
  A 2.31 1.34 7.0 0 0 164.16 207.58
  L 164.30 207.60
  A 0.50 0.50 0.0 0 0 164.86 207.16
  Z
  M 154.41 210.93
  A 0.60 0.60 0.0 0 1 154.66 209.82
  L 155.69 209.72
  A 0.57 0.57 0.0 0 1 156.29 210.46
  L 155.98 211.46
  Q 155.88 211.78 156.21 211.77
  L 166.24 211.71
  Q 166.74 211.71 166.82 211.21
  L 167.06 209.61
  A 0.42 0.42 0.0 0 0 166.37 209.23
  Q 163.63 211.66 160.60 209.66
  Q 160.17 209.38 159.67 209.50
  C 158.07 209.89 156.43 209.22 155.27 209.22
  Q 152.14 209.22 149.14 210.32
  A 0.67 0.66 -49.7 0 0 149.24 211.60
  Q 152.03 212.13 154.73 211.57
  Q 155.29 211.45 154.80 211.16
  L 154.41 210.93
  Z
  M 164.02 215.57
  L 163.97 214.62
  A 0.52 0.52 0.0 0 0 163.09 214.28
  L 162.27 215.10
  A 0.84 0.84 0.0 0 0 162.88 216.53
  L 182.03 216.29
  Q 182.79 216.28 182.65 215.53
  L 182.52 214.88
  Q 182.42 214.36 181.90 214.38
  Q 175.20 214.57 168.49 214.49
  C 167.60 214.48 167.44 214.21 166.81 213.72
  Q 166.32 213.35 166.21 213.94
  Q 165.94 215.41 164.71 215.99
  A 0.49 0.49 0.0 0 1 164.02 215.57
  Z
  M 160.72 215.03
  A 0.56 0.56 0.0 0 0 160.16 214.47
  L 147.66 214.47
  A 0.56 0.56 0.0 0 0 147.10 215.03
  L 147.10 216.05
  A 0.56 0.56 0.0 0 0 147.66 216.61
  L 160.16 216.61
  A 0.56 0.56 0.0 0 0 160.72 216.05
  L 160.72 215.03
  Z
  M 196.89 214.23
  L 195.94 214.67
  Q 195.43 214.91 194.88 214.74
  C 193.25 214.21 191.22 214.67 189.89 214.58
  Q 187.82 214.44 185.75 214.42
  Q 184.46 214.41 184.31 215.42
  A 0.72 0.72 0.0 0 0 185.00 216.25
  L 197.28 216.76
  A 0.89 0.89 0.0 0 0 198.14 216.18
  Q 198.53 215.11 197.31 214.27
  A 0.43 0.42 50.1 0 0 196.89 214.23
  Z"
/>
<g>
<path fill="#3d3c38" d="
  M 158.48 97.07
  A 0.48 0.48 0.0 0 0 157.72 96.82
  C 144.75 106.77 130.80 111.66 113.95 109.82
  Q 110.83 109.48 110.25 107.01
  Q 110.12 106.48 110.39 106.00
  Q 111.60 103.80 112.44 102.94
  C 118.72 96.47 123.04 90.96 123.01 82.41
  C 122.96 68.81 111.03 60.87 98.26 63.63
  Q 86.06 66.27 79.55 77.93
  A 0.86 0.86 0.0 0 0 79.60 78.84
  C 81.18 81.01 87.67 88.11 86.07 91.91
  C 84.11 96.60 76.43 96.98 72.44 95.60
  Q 62.68 92.25 58.27 82.99
  C 56.52 79.34 57.75 74.15 62.74 74.82
  C 67.29 75.43 73.94 75.06 77.16 71.28
  C 81.76 65.91 86.51 61.61 93.25 59.33
  C 123.14 49.19 140.25 83.55 118.90 104.08
  A 0.51 0.51 0.0 0 0 119.25 104.96
  C 135.15 105.02 146.13 98.68 158.38 89.35
  A 2.27 2.27 0.0 0 1 161.87 90.32
  C 173.66 120.57 168.45 158.07 130.99 165.77
  Q 107.13 170.67 85.14 160.55
  C 75.75 156.23 66.77 148.22 64.42 138.22
  C 61.00 123.67 70.14 111.09 80.08 101.86
  A 2.13 2.12 -38.2 0 1 83.29 102.24
  Q 84.93 104.70 82.87 106.87
  C 78.35 111.65 74.38 115.23 71.40 121.93
  C 64.71 137.00 74.07 149.34 87.34 155.65
  C 103.93 163.54 126.46 165.04 142.87 155.53
  C 164.91 142.75 164.35 118.63 158.48 97.07
  Z
  M 63.55 80.28
  A 0.33 0.33 0.0 0 0 63.22 80.76
  C 66.08 86.37 73.04 92.42 80.01 90.37
  A 0.76 0.76 0.0 0 0 80.36 89.13
  Q 76.62 85.07 74.30 80.10
  Q 74.06 79.58 73.51 79.72
  Q 68.59 80.89 63.55 80.28
  Z"
/>
<circle fill="#3d3c38" cx="95.27" cy="78.86" r="4.16"/>
<path fill="#c18f1a" d="
  M 102.85 181.92
  C 98.33 181.35 93.76 181.43 89.55 180.76
  Q 77.05 178.76 65.72 178.63
  A 0.29 0.29 0.0 0 1 65.48 178.18
  Q 65.73 177.81 66.06 177.77
  C 77.21 176.57 88.42 174.75 99.38 174.60
  C 119.88 174.32 140.16 173.88 160.33 177.93
  A 0.25 0.24 46.7 0 1 160.32 178.41
  C 154.39 179.12 148.79 179.23 142.06 180.33
  Q 133.58 181.72 114.41 181.53
  C 111.71 181.51 106.65 182.41 102.85 181.92
  Z"
/>
<path fill="#c18f1a" d="
  M 153.83 199.66
  Q 156.59 198.54 159.52 199.57
  A 0.76 0.74 -52.0 0 0 160.20 199.48
  Q 161.86 198.34 163.62 199.10
  A 1.47 1.46 -36.2 0 0 164.35 199.21
  Q 168.58 198.69 172.75 199.51
  Q 173.57 199.67 174.45 198.79
  Q 174.91 198.33 175.38 198.79
  L 175.94 199.35
  A 0.84 0.84 0.0 0 1 175.88 200.59
  Q 174.22 201.96 171.93 200.49
  Q 170.85 199.80 169.95 200.65
  Q 169.56 201.01 169.03 200.96
  L 164.53 200.54
  Q 164.07 200.50 163.69 200.75
  Q 162.95 201.24 162.31 200.89
  Q 161.91 200.68 161.45 200.66
  L 156.58 200.50
  Q 156.06 200.49 155.56 200.60
  Q 152.04 201.44 148.38 201.40
  Q 147.91 201.39 147.52 201.13
  C 145.99 200.08 144.22 200.91 142.65 200.88
  C 139.90 200.82 136.01 200.44 133.37 200.95
  Q 132.67 201.08 132.13 200.54
  A 0.89 0.89 0.0 0 1 133.19 199.13
  Q 133.77 199.44 134.54 199.30
  C 137.78 198.72 141.46 198.95 144.73 199.22
  C 146.74 199.38 150.15 198.79 152.83 199.69
  Q 153.34 199.86 153.83 199.66
  Z"
/>
<path fill="#c18f1a" d="
  M 182.06 200.52
  L 178.30 201.49
  A 0.89 0.89 0.0 0 1 177.39 200.07
  Q 178.44 198.79 180.51 198.99
  Q 183.38 199.28 186.76 198.94
  A 0.72 0.71 -70.8 0 1 187.34 200.15
  Q 185.31 202.27 182.97 200.68
  Q 182.55 200.39 182.06 200.52
  Z"
/>
<rect fill="#c18f1a" x="-13.00" y="-0.86" transform="translate(202.87,200.11) rotate(-0.2)" width="26.00" height="1.72" rx="0.27"/>
<path fill="#c18f1a" d="
  M 193.04 205.51
  Q 193.24 204.39 194.32 204.18
  Q 195.11 204.02 195.03 204.82
  L 194.91 205.99
  Q 194.85 206.61 194.23 206.59
  Q 188.48 206.38 182.73 206.64
  C 180.71 206.73 178.80 205.97 176.43 206.92
  A 0.79 0.78 -27.3 0 1 175.47 206.62
  Q 174.37 204.91 175.54 203.32
  A 0.61 0.58 -20.5 0 1 176.61 203.78
  Q 176.54 204.01 176.08 204.37
  A 0.54 0.53 46.2 0 0 176.07 205.20
  L 176.92 205.93
  A 0.62 0.61 -59.6 0 0 177.89 205.67
  L 178.19 204.87
  Q 178.36 204.39 178.87 204.38
  Q 186.93 204.14 190.25 204.28
  Q 191.54 204.33 192.27 205.63
  A 0.42 0.41 35.9 0 0 193.04 205.51
  Z"
/>
<path fill="#c18f1a" d="
  M 172.27 206.09
  A 0.48 0.48 0.0 0 1 171.87 206.64
  L 171.50 206.69
  A 4.81 1.19 -8.3 0 1 166.57 206.21
  L 166.49 205.67
  A 4.81 1.19 -8.3 0 1 171.08 203.80
  L 171.44 203.75
  A 0.48 0.48 0.0 0 1 171.99 204.15
  L 172.27 206.09
  Z"
/>
<rect fill="#c18f1a" x="-3.29" y="-1.20" transform="translate(199.97,205.40) rotate(-2.3)" width="6.58" height="2.40" rx="0.27"/>
<path fill="#c18f1a" d="
  M 148.92 205.01
  L 149.05 204.60
  Q 149.15 204.28 149.49 204.29
  Q 151.15 204.32 152.78 204.62
  C 155.57 205.14 157.81 204.15 160.55 205.15
  A 0.97 0.97 0.0 0 1 160.20 207.03
  L 145.54 206.73
  A 0.86 0.86 0.0 0 1 144.90 205.32
  Q 146.19 203.75 147.65 205.29
  A 0.76 0.76 0.0 0 0 148.92 205.01
  Z"
/>
<path fill="#c18f1a" d="
  M 164.86 207.16
  A 0.50 0.50 0.0 0 1 164.30 207.60
  L 164.16 207.58
  A 2.31 1.34 7.0 0 1 162.03 205.97
  L 162.04 205.89
  A 2.31 1.34 7.0 0 1 164.49 204.84
  L 164.64 204.86
  A 0.50 0.50 0.0 0 1 165.08 205.42
  L 164.86 207.16
  Z"
/>
<path fill="#c18f1a" d="
  M 154.41 210.93
  L 154.80 211.16
  Q 155.29 211.45 154.73 211.57
  Q 152.03 212.13 149.24 211.60
  A 0.67 0.66 -49.7 0 1 149.14 210.32
  Q 152.14 209.22 155.27 209.22
  C 156.43 209.22 158.07 209.89 159.67 209.50
  Q 160.17 209.38 160.60 209.66
  Q 163.63 211.66 166.37 209.23
  A 0.42 0.42 0.0 0 1 167.06 209.61
  L 166.82 211.21
  Q 166.74 211.71 166.24 211.71
  L 156.21 211.77
  Q 155.88 211.78 155.98 211.46
  L 156.29 210.46
  A 0.57 0.57 0.0 0 0 155.69 209.72
  L 154.66 209.82
  A 0.60 0.60 0.0 0 0 154.41 210.93
  Z"
/>
<path fill="#c18f1a" d="
  M 164.71 215.99
  Q 165.94 215.41 166.21 213.94
  Q 166.32 213.35 166.81 213.72
  C 167.44 214.21 167.60 214.48 168.49 214.49
  Q 175.20 214.57 181.90 214.38
  Q 182.42 214.36 182.52 214.88
  L 182.65 215.53
  Q 182.79 216.28 182.03 216.29
  L 162.88 216.53
  A 0.84 0.84 0.0 0 1 162.27 215.10
  L 163.09 214.28
  A 0.52 0.52 0.0 0 1 163.97 214.62
  L 164.02 215.57
  A 0.49 0.49 0.0 0 0 164.71 215.99
  Z"
/>
<rect fill="#c18f1a" x="147.10" y="214.47" width="13.62" height="2.14" rx="0.56"/>
<path fill="#c18f1a" d="
  M 196.89 214.23
  A 0.43 0.42 50.1 0 1 197.31 214.27
  Q 198.53 215.11 198.14 216.18
  A 0.89 0.89 0.0 0 1 197.28 216.76
  L 185.00 216.25
  A 0.72 0.72 0.0 0 1 184.31 215.42
  Q 184.46 214.41 185.75 214.42
  Q 187.82 214.44 189.89 214.58
  C 191.22 214.67 193.25 214.21 194.88 214.74
  Q 195.43 214.91 195.94 214.67
  L 196.89 214.23
  Z"
/>
</g>
<path fill="#eeb423" d="
  M 63.55 80.28
  Q 68.59 80.89 73.51 79.72
  Q 74.06 79.58 74.30 80.10
  Q 76.62 85.07 80.36 89.13
  A 0.76 0.76 0.0 0 1 80.01 90.37
  C 73.04 92.42 66.08 86.37 63.22 80.76
  A 0.33 0.33 0.0 0 1 63.55 80.28
  Z"
/>
</svg>
