<?xml version="1.0" encoding="UTF-8" standalone="no"?>
<!DOCTYPE svg PUBLIC "-//W3C//DTD SVG 1.1//EN" "http://www.w3.org/Graphics/SVG/1.1/DTD/svg11.dtd">
<svg xmlns="http://www.w3.org/2000/svg" version="1.1" viewBox="0.00 0.00 1172.00 904.00">
<g stroke-width="2.00" fill="none" stroke-linecap="butt">
<path stroke="#d8834c" vector-effect="non-scaling-stroke" d="
  M 786.26 241.76
  C 721.87 251.56 667.08 291.37 636.19 348.42
  C 599.34 416.49 605.65 503.08 651.23 565.52
  C 683.37 609.56 732.19 640.41 786.86 648.35
  C 813.25 652.19 839.98 651.33 869.00 649.03
  Q 875.28 648.53 878.20 647.76"
/>
<path stroke="#d35b3e" vector-effect="non-scaling-stroke" d="
  M 878.20 647.76
  Q 878.74 648.13 879.97 647.98
  A 1.79 1.78 -36.4 0 1 880.91 648.12
  C 899.52 656.42 919.95 661.70 939.70 667.04"
/>
<path stroke="#d8834c" vector-effect="non-scaling-stroke" d="
  M 939.70 667.04
  Q 934.13 672.36 931.72 673.53
  Q 906.75 685.69 879.23 689.58
  C 877.54 689.82 875.83 690.90 874.51 691.05
  C 853.80 693.28 833.72 692.70 812.99 692.59
  Q 793.74 692.48 784.06 691.18
  C 691.98 678.79 603.81 647.85 520.22 608.05
  C 499.03 597.96 475.27 586.96 460.82 579.17
  Q 437.12 566.40 411.45 554.73"
/>
<path stroke="#f4d965" vector-effect="non-scaling-stroke" d="
  M 1022.56 729.85
  Q 1021.39 729.53 1020.87 730.12
  Q 1016.72 734.86 1008.12 746.11
  C 991.55 767.82 969.33 789.55 945.66 804.63
  C 899.92 833.77 847.52 848.25 793.51 849.87
  Q 770.36 850.57 747.19 849.87
  Q 741.50 849.70 740.00 849.48
  Q 670.45 839.52 608.01 806.20
  A 0.99 0.98 31.9 0 1 607.67 804.77
  C 617.02 791.57 626.04 777.99 633.19 763.37
  C 639.79 749.88 633.39 727.01 628.49 713.27
  Q 627.88 711.58 626.42 712.82
  Q 625.93 713.24 625.34 715.03
  Q 620.68 729.33 614.54 743.04
  C 610.00 753.16 599.47 759.47 588.80 761.03
  Q 560.56 765.17 534.86 753.29
  C 512.55 742.98 493.01 730.53 478.19 710.55
  C 458.17 683.55 440.68 655.30 426.90 624.58
  Q 426.31 623.27 425.39 623.30"
/>
<path stroke="#eeb561" vector-effect="non-scaling-stroke" d="
  M 1012.93 530.63
  C 997.29 535.62 981.71 539.65 966.67 546.10"
/>
<path stroke="#fabb5f" vector-effect="non-scaling-stroke" d="
  M 966.67 546.10
  Q 955.39 551.43 948.76 557.76
  Q 919.47 585.69 888.80 612.08
  C 881.37 618.47 868.12 629.21 866.53 637.89
  A 1.05 1.04 28.4 0 0 866.81 638.81
  L 872.55 644.75
  A 0.59 0.58 -69.3 0 1 872.72 645.14
  L 872.76 646.28
  A 0.69 0.69 0.0 0 0 873.34 646.94
  L 878.20 647.76"
/>
<path stroke="#fabb5f" vector-effect="non-scaling-stroke" d="
  M 1035.18 642.28
  C 1030.76 645.97 1026.76 649.84 1021.74 652.51
  Q 1010.09 658.71 997.72 663.34
  C 979.19 670.27 958.87 668.92 939.70 667.04"
/>
<path stroke="#e98e52" vector-effect="non-scaling-stroke" d="
  M 1038.03 636.92
  Q 1037.49 636.64 1036.45 637.35
  A 0.44 0.44 0.0 0 1 1035.77 637.07
  Q 1035.16 633.68 1033.45 632.57
  C 1013.79 619.92 995.60 603.00 983.84 582.67
  C 977.40 571.54 969.90 558.57 966.67 546.10"
/>
<path stroke="#918145" vector-effect="non-scaling-stroke" d="
  M 998.74 486.74
  C 999.93 493.88 1006.00 501.18 1011.13 490.34
  C 1018.29 475.21 1019.41 456.04 1016.49 440.76
  Q 1016.01 438.26 1014.49 435.62
  Q 1014.25 435.21 1013.82 435.02
  C 995.88 427.08 997.54 479.56 998.74 486.74"
/>
<path stroke="#918145" vector-effect="non-scaling-stroke" d="
  M 833.40 551.93
  C 834.77 573.35 857.25 583.02 875.79 575.68
  C 893.90 568.51 902.34 548.15 890.95 531.21
  C 873.80 505.71 831.57 523.24 833.40 551.93"
/>
<path stroke="#918f8e" vector-effect="non-scaling-stroke" d="
  M 1007.6370 464.7996
  A 9.39 2.86 96.5 0 0 1011.5416 455.7938
  A 9.39 2.86 96.5 0 0 1009.7630 446.1404
  A 9.39 2.86 96.5 0 0 1005.8584 455.1462
  A 9.39 2.86 96.5 0 0 1007.6370 464.7996"
/>
<path stroke="#918f8e" vector-effect="non-scaling-stroke" d="
  M 876.2101 535.4324
  A 8.68 8.01 -27.2 0 0 864.8286 532.2758
  A 8.68 8.01 -27.2 0 0 860.7699 543.3676
  A 8.68 8.01 -27.2 0 0 872.1514 546.5242
  A 8.68 8.01 -27.2 0 0 876.2101 535.4324"
/>
</g>
<g>
<path fill="#b1232b" d="
  M 786.26 241.76
  C 721.87 251.56 667.08 291.37 636.19 348.42
  C 599.34 416.49 605.65 503.08 651.23 565.52
  C 683.37 609.56 732.19 640.41 786.86 648.35
  C 813.25 652.19 839.98 651.33 869.00 649.03
  Q 875.28 648.53 878.20 647.76
  Q 878.74 648.13 879.97 647.98
  A 1.79 1.78 -36.4 0 1 880.91 648.12
  C 899.52 656.42 919.95 661.70 939.70 667.04
  Q 934.13 672.36 931.72 673.53
  Q 906.75 685.69 879.23 689.58
  C 877.54 689.82 875.83 690.90 874.51 691.05
  C 853.80 693.28 833.72 692.70 812.99 692.59
  Q 793.74 692.48 784.06 691.18
  C 691.98 678.79 603.81 647.85 520.22 608.05
  C 499.03 597.96 475.27 586.96 460.82 579.17
  Q 437.12 566.40 411.45 554.73
  Q 406.94 551.68 401.73 548.30
  Q 397.09 545.29 391.67 542.44
  Q 371.84 532.04 352.21 521.26
  Q 198.26 436.77 48.55 344.97
  Q 46.14 343.50 43.72 339.57
  A 1.10 1.07 -49.8 0 1 43.65 338.58
  C 45.04 335.26 51.28 332.15 53.76 331.01
  C 85.77 316.33 115.34 301.51 159.87 279.03
  Q 169.87 273.99 177.66 269.91
  C 280.28 216.11 378.74 154.29 474.13 88.60
  Q 502.13 69.32 529.31 48.35
  A 2.44 2.44 0.0 0 1 531.55 47.97
  C 534.60 48.97 537.67 50.12 540.57 51.76
  C 582.69 75.67 622.01 103.96 661.13 134.08
  Q 668.68 139.90 676.80 146.51
  Q 730.47 190.19 783.85 238.15
  Q 785.77 239.89 786.26 241.76
  Z"
/>
<path fill="#ffe26d" d="
  M 1012.93 530.63
  C 997.29 535.62 981.71 539.65 966.67 546.10
  Q 955.39 551.43 948.76 557.76
  Q 919.47 585.69 888.80 612.08
  C 881.37 618.47 868.12 629.21 866.53 637.89
  A 1.05 1.04 28.4 0 0 866.81 638.81
  L 872.55 644.75
  A 0.59 0.58 -69.3 0 1 872.72 645.14
  L 872.76 646.28
  A 0.69 0.69 0.0 0 0 873.34 646.94
  L 878.20 647.76
  Q 875.28 648.53 869.00 649.03
  C 839.98 651.33 813.25 652.19 786.86 648.35
  C 732.19 640.41 683.37 609.56 651.23 565.52
  C 605.65 503.08 599.34 416.49 636.19 348.42
  C 667.08 291.37 721.87 251.56 786.26 241.76
  Q 860.89 231.00 923.43 268.30
  C 980.60 302.39 1017.89 363.03 1022.93 429.81
  C 1024.31 448.16 1023.56 466.70 1022.06 484.72
  Q 1020.11 508.08 1012.93 530.63
  Z
  M 998.74 486.74
  C 999.93 493.88 1006.00 501.18 1011.13 490.34
  C 1018.29 475.21 1019.41 456.04 1016.49 440.76
  Q 1016.01 438.26 1014.49 435.62
  Q 1014.25 435.21 1013.82 435.02
  C 995.88 427.08 997.54 479.56 998.74 486.74
  Z
  M 833.40 551.93
  C 834.77 573.35 857.25 583.02 875.79 575.68
  C 893.90 568.51 902.34 548.15 890.95 531.21
  C 873.80 505.71 831.57 523.24 833.40 551.93
  Z"
/>
<path fill="#dc8854" d="
  M 1012.93 530.63
  Q 1015.95 535.93 1019.82 540.97
  C 1041.53 569.23 1057.10 602.15 1038.03 636.92
  Q 1037.49 636.64 1036.45 637.35
  A 0.44 0.44 0.0 0 1 1035.77 637.07
  Q 1035.16 633.68 1033.45 632.57
  C 1013.79 619.92 995.60 603.00 983.84 582.67
  C 977.40 571.54 969.90 558.57 966.67 546.10
  C 981.71 539.65 997.29 535.62 1012.93 530.63
  Z"
/>
<path fill="#f59350" d="
  M 966.67 546.10
  C 969.90 558.57 977.40 571.54 983.84 582.67
  C 995.60 603.00 1013.79 619.92 1033.45 632.57
  Q 1035.16 633.68 1035.77 637.07
  A 0.44 0.44 0.0 0 0 1036.45 637.35
  Q 1037.49 636.64 1038.03 636.92
  L 1035.18 642.28
  C 1030.76 645.97 1026.76 649.84 1021.74 652.51
  Q 1010.09 658.71 997.72 663.34
  C 979.19 670.27 958.87 668.92 939.70 667.04
  C 919.95 661.70 899.52 656.42 880.91 648.12
  A 1.79 1.78 -36.4 0 0 879.97 647.98
  Q 878.74 648.13 878.20 647.76
  L 873.34 646.94
  A 0.69 0.69 0.0 0 1 872.76 646.28
  L 872.72 645.14
  A 0.59 0.58 -69.3 0 0 872.55 644.75
  L 866.81 638.81
  A 1.05 1.04 28.4 0 1 866.53 637.89
  C 868.12 629.21 881.37 618.47 888.80 612.08
  Q 919.47 585.69 948.76 557.76
  Q 955.39 551.43 966.67 546.10
  Z"
/>
<path fill="#ffe26d" d="
  M 939.70 667.04
  C 958.87 668.92 979.19 670.27 997.72 663.34
  Q 1010.09 658.71 1021.74 652.51
  C 1026.76 649.84 1030.76 645.97 1035.18 642.28
  C 1035.37 645.69 1036.08 649.06 1036.00 652.26
  C 1035.32 679.08 1031.70 704.17 1022.56 729.85
  Q 1021.39 729.53 1020.87 730.12
  Q 1016.72 734.86 1008.12 746.11
  C 991.55 767.82 969.33 789.55 945.66 804.63
  C 899.92 833.77 847.52 848.25 793.51 849.87
  Q 770.36 850.57 747.19 849.87
  Q 741.50 849.70 740.00 849.48
  Q 670.45 839.52 608.01 806.20
  A 0.99 0.98 31.9 0 1 607.67 804.77
  C 617.02 791.57 626.04 777.99 633.19 763.37
  C 639.79 749.88 633.39 727.01 628.49 713.27
  Q 627.88 711.58 626.42 712.82
  Q 625.93 713.24 625.34 715.03
  Q 620.68 729.33 614.54 743.04
  C 610.00 753.16 599.47 759.47 588.80 761.03
  Q 560.56 765.17 534.86 753.29
  C 512.55 742.98 493.01 730.53 478.19 710.55
  C 458.17 683.55 440.68 655.30 426.90 624.58
  Q 426.31 623.27 425.39 623.30
  L 411.45 554.73
  Q 437.12 566.40 460.82 579.17
  C 475.27 586.96 499.03 597.96 520.22 608.05
  C 603.81 647.85 691.98 678.79 784.06 691.18
  Q 793.74 692.48 812.99 692.59
  C 833.72 692.70 853.80 693.28 874.51 691.05
  C 875.83 690.90 877.54 689.82 879.23 689.58
  Q 906.75 685.69 931.72 673.53
  Q 934.13 672.36 939.70 667.04
  Z"
/>
<path fill="#e9d05d" d="
  M 425.39 623.30
  Q 426.31 623.27 426.90 624.58
  C 440.68 655.30 458.17 683.55 478.19 710.55
  C 493.01 730.53 512.55 742.98 534.86 753.29
  Q 560.56 765.17 588.80 761.03
  C 599.47 759.47 610.00 753.16 614.54 743.04
  Q 620.68 729.33 625.34 715.03
  Q 625.93 713.24 626.42 712.82
  Q 627.88 711.58 628.49 713.27
  C 633.39 727.01 639.79 749.88 633.19 763.37
  C 626.04 777.99 617.02 791.57 607.67 804.77
  A 0.99 0.98 31.9 0 0 608.01 806.20
  Q 670.45 839.52 740.00 849.48
  Q 741.50 849.70 747.19 849.87
  Q 770.36 850.57 793.51 849.87
  C 847.52 848.25 899.92 833.77 945.66 804.63
  C 969.33 789.55 991.55 767.82 1008.12 746.11
  Q 1016.72 734.86 1020.87 730.12
  Q 1021.39 729.53 1022.56 729.85
  C 1003.52 781.62 965.91 820.82 917.54 846.58
  Q 865.82 874.13 807.44 880.42
  C 795.50 881.71 772.34 882.16 759.93 882.15
  C 744.09 882.15 728.37 879.77 712.74 877.34
  C 685.71 873.13 656.73 866.13 631.99 854.28
  C 607.46 842.54 583.51 829.29 557.38 817.04
  C 506.84 793.35 467.58 749.34 444.06 700.09
  C 442.08 695.93 440.55 690.56 439.63 686.83
  Q 432.79 659.20 425.39 623.30
  Z"
/>
</g>
<g>
<path fill="#231f1d" d="
  M 1011.13 490.34
  C 1006.00 501.18 999.93 493.88 998.74 486.74
  C 997.54 479.56 995.88 427.08 1013.82 435.02
  Q 1014.25 435.21 1014.49 435.62
  Q 1016.01 438.26 1016.49 440.76
  C 1019.41 456.04 1018.29 475.21 1011.13 490.34
  Z
  M 1007.6370 464.7996
  A 9.39 2.86 96.5 0 0 1011.5416 455.7938
  A 9.39 2.86 96.5 0 0 1009.7630 446.1404
  A 9.39 2.86 96.5 0 0 1005.8584 455.1462
  A 9.39 2.86 96.5 0 0 1007.6370 464.7996
  Z"
/>
<path fill="#231f1d" d="
  M 875.79 575.68
  C 857.25 583.02 834.77 573.35 833.40 551.93
  C 831.57 523.24 873.80 505.71 890.95 531.21
  C 902.34 548.15 893.90 568.51 875.79 575.68
  Z
  M 876.2101 535.4324
  A 8.68 8.01 -27.2 0 0 864.8286 532.2758
  A 8.68 8.01 -27.2 0 0 860.7699 543.3676
  A 8.68 8.01 -27.2 0 0 872.1514 546.5242
  A 8.68 8.01 -27.2 0 0 876.2101 535.4324
  Z"
/>
</g>
<g>
<ellipse fill="#ffffff" cx="0.00" cy="0.00" transform="translate(1008.70,455.47) rotate(96.5)" rx="9.39" ry="2.86"/>
<ellipse fill="#ffffff" cx="0.00" cy="0.00" transform="translate(868.49,539.40) rotate(-27.2)" rx="8.68" ry="8.01"/>
</g>
</svg>
