<?xml version="1.0" encoding="UTF-8" standalone="no"?>
<!DOCTYPE svg PUBLIC "-//W3C//DTD SVG 1.1//EN" "http://www.w3.org/Graphics/SVG/1.1/DTD/svg11.dtd">
<svg xmlns="http://www.w3.org/2000/svg" version="1.1" viewBox="0.00 0.00 1172.00 904.00">
<g stroke-width="2.00" fill="none" stroke-linecap="butt">
<path stroke="#fff1b6" vector-effect="non-scaling-stroke" d="
  M 411.30 554.77
  Q 417.53 588.75 425.20 622.30"
/>
<path stroke="#f4e8ae" vector-effect="non-scaling-stroke" d="
  M 425.20 622.30
  Q 432.07 655.68 440.23 688.75
  Q 442.02 696.01 445.32 702.67
  C 468.85 750.18 506.14 791.24 553.47 815.25
  C 559.74 818.44 569.06 822.24 575.93 825.83
  Q 601.69 839.31 627.79 852.12
  C 662.00 868.91 701.55 876.94 739.29 880.83
  C 757.18 882.67 775.91 881.84 793.93 881.09
  C 844.88 878.98 895.01 861.79 937.77 834.27
  Q 998.38 795.23 1023.24 727.84"
/>
<path stroke="#fff1b6" vector-effect="non-scaling-stroke" d="
  M 1023.24 727.84
  Q 1036.38 689.97 1035.78 650.00
  Q 1035.72 646.09 1034.95 642.21"
/>
<path stroke="#fac9a8" vector-effect="non-scaling-stroke" d="
  M 1034.95 642.21
  L 1036.77 638.50"
/>
<path stroke="#eec4aa" vector-effect="non-scaling-stroke" d="
  M 1036.77 638.50
  C 1040.86 631.36 1044.54 623.86 1045.36 615.49
  Q 1046.44 604.49 1046.00 596.98
  C 1044.78 575.91 1028.43 550.43 1014.19 534.28
  Q 1013.63 533.65 1013.06 530.78"
/>
<path stroke="#fff1b6" vector-effect="non-scaling-stroke" d="
  M 1013.06 530.78
  C 1022.34 501.49 1024.65 468.31 1023.33 437.82
  C 1017.91 313.43 909.06 223.53 785.74 241.80"
/>
<path stroke="#d89195" vector-effect="non-scaling-stroke" d="
  M 785.74 241.80
  Q 786.58 240.81 785.45 239.79
  C 720.62 180.83 647.33 119.62 571.95 70.80
  Q 558.42 62.04 536.22 49.76
  Q 534.84 49.00 530.57 48.23
  A 1.22 1.19 31.4 0 0 529.65 48.44
  C 507.39 64.84 484.89 81.79 459.36 99.13
  Q 367.58 161.47 272.06 217.88
  C 201.37 259.62 127.47 296.81 53.17 331.65
  Q 48.84 333.69 45.26 336.84
  C 41.37 340.27 48.06 344.35 50.44 345.81
  Q 223.10 451.80 401.55 547.71
  Q 404.58 549.34 411.30 554.77"
/>
<path stroke="#d8834c" vector-effect="non-scaling-stroke" d="
  M 785.74 241.80
  C 684.88 257.71 608.93 347.06 612.34 450.19
  C 615.62 549.13 687.95 633.99 786.87 648.35
  C 813.22 652.18 839.85 651.33 868.75 649.05
  Q 875.23 648.54 878.20 647.76"
/>
<path stroke="#d35b3e" vector-effect="non-scaling-stroke" d="
  M 878.20 647.76
  Q 878.75 648.13 879.97 647.98
  A 1.85 1.77 -35.4 0 1 880.92 648.12
  C 899.50 656.41 919.95 661.74 939.67 666.98"
/>
<path stroke="#d8834c" vector-effect="non-scaling-stroke" d="
  M 939.67 666.98
  Q 934.41 672.22 931.72 673.53
  Q 906.75 685.69 879.23 689.58
  C 877.54 689.82 875.83 690.90 874.51 691.05
  C 853.80 693.28 833.72 692.70 812.99 692.59
  Q 793.74 692.48 784.06 691.18
  C 669.74 675.80 562.53 631.50 460.68 579.07
  C 441.26 569.08 425.77 560.33 411.30 554.77"
/>
<path stroke="#f4d965" vector-effect="non-scaling-stroke" d="
  M 1023.24 727.84
  Q 1022.73 727.53 1022.09 728.34
  C 1003.56 751.59 985.82 774.33 963.46 791.99
  C 919.66 826.57 860.31 846.40 804.49 849.46
  Q 781.33 850.73 751.19 850.21
  C 743.98 850.08 738.40 849.28 731.32 848.12
  Q 667.12 837.55 607.99 806.25
  A 0.99 0.99 0.0 0 1 607.64 804.81
  C 614.97 794.35 622.53 783.56 628.57 772.17
  C 633.80 762.29 636.73 757.11 635.90 747.08
  Q 634.53 730.47 628.53 713.32
  Q 627.92 711.58 626.40 712.85
  Q 625.93 713.24 625.34 715.03
  Q 620.68 729.33 614.50 743.04
  C 606.66 760.44 586.91 762.70 569.99 761.98
  C 547.41 761.03 529.40 751.92 509.62 739.59
  Q 491.22 728.11 478.25 710.74
  C 458.03 683.64 439.33 654.02 426.43 622.68
  Q 426.23 622.19 425.71 622.25
  L 425.20 622.30"
/>
<path stroke="#eeb561" vector-effect="non-scaling-stroke" d="
  M 1013.06 530.78
  Q 1011.14 530.74 1007.20 532.48
  Q 1003.22 534.23 986.51 538.52
  Q 979.35 540.35 966.68 546.13"
/>
<path stroke="#fabb5f" vector-effect="non-scaling-stroke" d="
  M 966.68 546.13
  Q 955.46 551.37 948.76 557.76
  Q 919.47 585.69 888.80 612.08
  C 881.37 618.47 868.12 629.21 866.53 637.89
  A 1.05 1.04 28.4 0 0 866.81 638.81
  L 872.55 644.75
  A 0.59 0.58 -69.3 0 1 872.72 645.14
  L 872.76 646.28
  A 0.69 0.69 0.0 0 0 873.34 646.94
  L 878.20 647.76"
/>
<path stroke="#fabb5f" vector-effect="non-scaling-stroke" d="
  M 1034.95 642.21
  C 1030.82 645.74 1027.19 649.62 1022.44 652.15
  C 1011.11 658.19 994.72 666.43 981.89 667.58
  Q 960.64 669.48 939.67 666.98"
/>
<path stroke="#e98e52" vector-effect="non-scaling-stroke" d="
  M 1036.77 638.50
  L 1034.55 633.67
  A 1.70 1.66 -86.2 0 0 1033.96 632.98
  Q 1012.33 618.87 995.46 599.31
  C 984.11 586.16 975.49 568.47 968.63 552.59
  Q 967.85 550.78 966.68 546.13"
/>
<path stroke="#918145" vector-effect="non-scaling-stroke" d="
  M 998.73 486.99
  C 999.27 490.65 1004.63 501.10 1009.31 493.27
  C 1017.65 479.32 1019.25 460.78 1017.14 445.01
  C 1016.76 442.15 1015.93 435.36 1012.76 434.49
  C 995.66 429.78 997.67 479.74 998.73 486.99"
/>
<path stroke="#918145" vector-effect="non-scaling-stroke" d="
  M 833.40 551.93
  C 834.77 573.35 857.25 583.02 875.79 575.68
  C 893.90 568.51 902.34 548.15 890.95 531.21
  C 873.80 505.71 831.57 523.24 833.40 551.93"
/>
<path stroke="#918f8e" vector-effect="non-scaling-stroke" d="
  M 1009.76 446.47
  C 1004.74 446.12 1005.89 461.27 1006.52 464.13
  A 0.97 0.97 0.0 0 0 1008.04 464.71
  C 1011.87 461.92 1012.04 452.54 1011.66 448.34
  A 2.07 2.06 89.5 0 0 1009.76 446.47"
/>
<path stroke="#918f8e" vector-effect="non-scaling-stroke" d="
  M 876.2101 535.4324
  A 8.68 8.01 -27.2 0 0 864.8286 532.2758
  A 8.68 8.01 -27.2 0 0 860.7699 543.3676
  A 8.68 8.01 -27.2 0 0 872.1514 546.5242
  A 8.68 8.01 -27.2 0 0 876.2101 535.4324"
/>
</g>
<path fill="#ffffff" d="
  M 0.00 0.00
  L 1172.00 0.00
  L 1172.00 904.00
  L 0.00 904.00
  L 0.00 0.00
  Z
  M 411.30 554.77
  Q 417.53 588.75 425.20 622.30
  Q 432.07 655.68 440.23 688.75
  Q 442.02 696.01 445.32 702.67
  C 468.85 750.18 506.14 791.24 553.47 815.25
  C 559.74 818.44 569.06 822.24 575.93 825.83
  Q 601.69 839.31 627.79 852.12
  C 662.00 868.91 701.55 876.94 739.29 880.83
  C 757.18 882.67 775.91 881.84 793.93 881.09
  C 844.88 878.98 895.01 861.79 937.77 834.27
  Q 998.38 795.23 1023.24 727.84
  Q 1036.38 689.97 1035.78 650.00
  Q 1035.72 646.09 1034.95 642.21
  L 1036.77 638.50
  C 1040.86 631.36 1044.54 623.86 1045.36 615.49
  Q 1046.44 604.49 1046.00 596.98
  C 1044.78 575.91 1028.43 550.43 1014.19 534.28
  Q 1013.63 533.65 1013.06 530.78
  C 1022.34 501.49 1024.65 468.31 1023.33 437.82
  C 1017.91 313.43 909.06 223.53 785.74 241.80
  Q 786.58 240.81 785.45 239.79
  C 720.62 180.83 647.33 119.62 571.95 70.80
  Q 558.42 62.04 536.22 49.76
  Q 534.84 49.00 530.57 48.23
  A 1.22 1.19 31.4 0 0 529.65 48.44
  C 507.39 64.84 484.89 81.79 459.36 99.13
  Q 367.58 161.47 272.06 217.88
  C 201.37 259.62 127.47 296.81 53.17 331.65
  Q 48.84 333.69 45.26 336.84
  C 41.37 340.27 48.06 344.35 50.44 345.81
  Q 223.10 451.80 401.55 547.71
  Q 404.58 549.34 411.30 554.77
  Z"
/>
<g>
<path fill="#b1232b" d="
  M 785.74 241.80
  C 684.88 257.71 608.93 347.06 612.34 450.19
  C 615.62 549.13 687.95 633.99 786.87 648.35
  C 813.22 652.18 839.85 651.33 868.75 649.05
  Q 875.23 648.54 878.20 647.76
  Q 878.75 648.13 879.97 647.98
  A 1.85 1.77 -35.4 0 1 880.92 648.12
  C 899.50 656.41 919.95 661.74 939.67 666.98
  Q 934.41 672.22 931.72 673.53
  Q 906.75 685.69 879.23 689.58
  C 877.54 689.82 875.83 690.90 874.51 691.05
  C 853.80 693.28 833.72 692.70 812.99 692.59
  Q 793.74 692.48 784.06 691.18
  C 669.74 675.80 562.53 631.50 460.68 579.07
  C 441.26 569.08 425.77 560.33 411.30 554.77
  Q 404.58 549.34 401.55 547.71
  Q 223.10 451.80 50.44 345.81
  C 48.06 344.35 41.37 340.27 45.26 336.84
  Q 48.84 333.69 53.17 331.65
  C 127.47 296.81 201.37 259.62 272.06 217.88
  Q 367.58 161.47 459.36 99.13
  C 484.89 81.79 507.39 64.84 529.65 48.44
  A 1.22 1.19 31.4 0 1 530.57 48.23
  Q 534.84 49.00 536.22 49.76
  Q 558.42 62.04 571.95 70.80
  C 647.33 119.62 720.62 180.83 785.45 239.79
  Q 786.58 240.81 785.74 241.80
  Z"
/>
<path fill="#ffe26d" d="
  M 1013.06 530.78
  Q 1011.14 530.74 1007.20 532.48
  Q 1003.22 534.23 986.51 538.52
  Q 979.35 540.35 966.68 546.13
  Q 955.46 551.37 948.76 557.76
  Q 919.47 585.69 888.80 612.08
  C 881.37 618.47 868.12 629.21 866.53 637.89
  A 1.05 1.04 28.4 0 0 866.81 638.81
  L 872.55 644.75
  A 0.59 0.58 -69.3 0 1 872.72 645.14
  L 872.76 646.28
  A 0.69 0.69 0.0 0 0 873.34 646.94
  L 878.20 647.76
  Q 875.23 648.54 868.75 649.05
  C 839.85 651.33 813.22 652.18 786.87 648.35
  C 687.95 633.99 615.62 549.13 612.34 450.19
  C 608.93 347.06 684.88 257.71 785.74 241.80
  C 909.06 223.53 1017.91 313.43 1023.33 437.82
  C 1024.65 468.31 1022.34 501.49 1013.06 530.78
  Z
  M 998.73 486.99
  C 999.27 490.65 1004.63 501.10 1009.31 493.27
  C 1017.65 479.32 1019.25 460.78 1017.14 445.01
  C 1016.76 442.15 1015.93 435.36 1012.76 434.49
  C 995.66 429.78 997.67 479.74 998.73 486.99
  Z
  M 833.40 551.93
  C 834.77 573.35 857.25 583.02 875.79 575.68
  C 893.90 568.51 902.34 548.15 890.95 531.21
  C 873.80 505.71 831.57 523.24 833.40 551.93
  Z"
/>
<path fill="#dc8854" d="
  M 1013.06 530.78
  Q 1013.63 533.65 1014.19 534.28
  C 1028.43 550.43 1044.78 575.91 1046.00 596.98
  Q 1046.44 604.49 1045.36 615.49
  C 1044.54 623.86 1040.86 631.36 1036.77 638.50
  L 1034.55 633.67
  A 1.70 1.66 -86.2 0 0 1033.96 632.98
  Q 1012.33 618.87 995.46 599.31
  C 984.11 586.16 975.49 568.47 968.63 552.59
  Q 967.85 550.78 966.68 546.13
  Q 979.35 540.35 986.51 538.52
  Q 1003.22 534.23 1007.20 532.48
  Q 1011.14 530.74 1013.06 530.78
  Z"
/>
<path fill="#f59350" d="
  M 966.68 546.13
  Q 967.85 550.78 968.63 552.59
  C 975.49 568.47 984.11 586.16 995.46 599.31
  Q 1012.33 618.87 1033.96 632.98
  A 1.70 1.66 -86.2 0 1 1034.55 633.67
  L 1036.77 638.50
  L 1034.95 642.21
  C 1030.82 645.74 1027.19 649.62 1022.44 652.15
  C 1011.11 658.19 994.72 666.43 981.89 667.58
  Q 960.64 669.48 939.67 666.98
  C 919.95 661.74 899.50 656.41 880.92 648.12
  A 1.85 1.77 -35.4 0 0 879.97 647.98
  Q 878.75 648.13 878.20 647.76
  L 873.34 646.94
  A 0.69 0.69 0.0 0 1 872.76 646.28
  L 872.72 645.14
  A 0.59 0.58 -69.3 0 0 872.55 644.75
  L 866.81 638.81
  A 1.05 1.04 28.4 0 1 866.53 637.89
  C 868.12 629.21 881.37 618.47 888.80 612.08
  Q 919.47 585.69 948.76 557.76
  Q 955.46 551.37 966.68 546.13
  Z"
/>
<path fill="#ffe26d" d="
  M 411.30 554.77
  C 425.77 560.33 441.26 569.08 460.68 579.07
  C 562.53 631.50 669.74 675.80 784.06 691.18
  Q 793.74 692.48 812.99 692.59
  C 833.72 692.70 853.80 693.28 874.51 691.05
  C 875.83 690.90 877.54 689.82 879.23 689.58
  Q 906.75 685.69 931.72 673.53
  Q 934.41 672.22 939.67 666.98
  Q 960.64 669.48 981.89 667.58
  C 994.72 666.43 1011.11 658.19 1022.44 652.15
  C 1027.19 649.62 1030.82 645.74 1034.95 642.21
  Q 1035.72 646.09 1035.78 650.00
  Q 1036.38 689.97 1023.24 727.84
  Q 1022.73 727.53 1022.09 728.34
  C 1003.56 751.59 985.82 774.33 963.46 791.99
  C 919.66 826.57 860.31 846.40 804.49 849.46
  Q 781.33 850.73 751.19 850.21
  C 743.98 850.08 738.40 849.28 731.32 848.12
  Q 667.12 837.55 607.99 806.25
  A 0.99 0.99 0.0 0 1 607.64 804.81
  C 614.97 794.35 622.53 783.56 628.57 772.17
  C 633.80 762.29 636.73 757.11 635.90 747.08
  Q 634.53 730.47 628.53 713.32
  Q 627.92 711.58 626.40 712.85
  Q 625.93 713.24 625.34 715.03
  Q 620.68 729.33 614.50 743.04
  C 606.66 760.44 586.91 762.70 569.99 761.98
  C 547.41 761.03 529.40 751.92 509.62 739.59
  Q 491.22 728.11 478.25 710.74
  C 458.03 683.64 439.33 654.02 426.43 622.68
  Q 426.23 622.19 425.71 622.25
  L 425.20 622.30
  Q 417.53 588.75 411.30 554.77
  Z"
/>
<path fill="#e9d05d" d="
  M 425.20 622.30
  L 425.71 622.25
  Q 426.23 622.19 426.43 622.68
  C 439.33 654.02 458.03 683.64 478.25 710.74
  Q 491.22 728.11 509.62 739.59
  C 529.40 751.92 547.41 761.03 569.99 761.98
  C 586.91 762.70 606.66 760.44 614.50 743.04
  Q 620.68 729.33 625.34 715.03
  Q 625.93 713.24 626.40 712.85
  Q 627.92 711.58 628.53 713.32
  Q 634.53 730.47 635.90 747.08
  C 636.73 757.11 633.80 762.29 628.57 772.17
  C 622.53 783.56 614.97 794.35 607.64 804.81
  A 0.99 0.99 0.0 0 0 607.99 806.25
  Q 667.12 837.55 731.32 848.12
  C 738.40 849.28 743.98 850.08 751.19 850.21
  Q 781.33 850.73 804.49 849.46
  C 860.31 846.40 919.66 826.57 963.46 791.99
  C 985.82 774.33 1003.56 751.59 1022.09 728.34
  Q 1022.73 727.53 1023.24 727.84
  Q 998.38 795.23 937.77 834.27
  C 895.01 861.79 844.88 878.98 793.93 881.09
  C 775.91 881.84 757.18 882.67 739.29 880.83
  C 701.55 876.94 662.00 868.91 627.79 852.12
  Q 601.69 839.31 575.93 825.83
  C 569.06 822.24 559.74 818.44 553.47 815.25
  C 506.14 791.24 468.85 750.18 445.32 702.67
  Q 442.02 696.01 440.23 688.75
  Q 432.07 655.68 425.20 622.30
  Z"
/>
</g>
<g>
<path fill="#231f1d" d="
  M 1009.31 493.27
  C 1004.63 501.10 999.27 490.65 998.73 486.99
  C 997.67 479.74 995.66 429.78 1012.76 434.49
  C 1015.93 435.36 1016.76 442.15 1017.14 445.01
  C 1019.25 460.78 1017.65 479.32 1009.31 493.27
  Z
  M 1009.76 446.47
  C 1004.74 446.12 1005.89 461.27 1006.52 464.13
  A 0.97 0.97 0.0 0 0 1008.04 464.71
  C 1011.87 461.92 1012.04 452.54 1011.66 448.34
  A 2.07 2.06 89.5 0 0 1009.76 446.47
  Z"
/>
<path fill="#231f1d" d="
  M 875.79 575.68
  C 857.25 583.02 834.77 573.35 833.40 551.93
  C 831.57 523.24 873.80 505.71 890.95 531.21
  C 902.34 548.15 893.90 568.51 875.79 575.68
  Z
  M 876.2101 535.4324
  A 8.68 8.01 -27.2 0 0 864.8286 532.2758
  A 8.68 8.01 -27.2 0 0 860.7699 543.3676
  A 8.68 8.01 -27.2 0 0 872.1514 546.5242
  A 8.68 8.01 -27.2 0 0 876.2101 535.4324
  Z"
/>
</g>
<g>
<path fill="#ffffff" d="
  M 1006.52 464.13
  C 1005.89 461.27 1004.74 446.12 1009.76 446.47
  A 2.07 2.06 89.5 0 1 1011.66 448.34
  C 1012.04 452.54 1011.87 461.92 1008.04 464.71
  A 0.97 0.97 0.0 0 1 1006.52 464.13
  Z"
/>
<ellipse fill="#ffffff" cx="0.00" cy="0.00" transform="translate(868.49,539.40) rotate(-27.2)" rx="8.68" ry="8.01"/>
</g>
</svg>
