<svg xmlns="http://www.w3.org/2000/svg" viewBox="0 0 478 434">
  <g fill="none" stroke="#9c9796" stroke-width="2">
    <path d="M220.23 162.83a22.96 22.96 0 0 0-22.96-22.96 22.96 22.96 0 0 0-22.96 22.96 22.96 22.96 0 0 0 22.96 22.96 22.96 22.96 0 0 0 22.96-22.96m36.55-16.84q.23-.75.23.03v38.36q0 .62.62.62h25.86a.49.48-.6 0 0 .49-.49l-.02-8.79a1.16 1.16 0 0 0-1.16-1.16l-14.29-.01q-.3 0-.3-.29l.04-6.03q0-.27.27-.27l14.98.01q.47 0 .47-.47l-.01-9.56q0-.59-.6-.59l-14.83.01q-.34 0-.34-.33l.08-5.67q0-.37.37-.37l14.85.01a.49.49 0 0 0 .49-.49l-.03-9.54q0-.48-.48-.48l-36.01-.04a.94.93-81 0 0-.89.65l-7.58 24.39q-.34 1.09-.69 0l-7.82-24.48q-.17-.54-.74-.54l-10.2.02a.76.76 0 0 0-.72 1l13.83 42.87q.2.64.88.64h10.48q.54 0 .7-.51l12.07-38.5m-95.75 28.26a.51.51 0 0 1-.51-.51v-32.76a.51.51 0 0 0-.51-.51l-10.49.02a.51.51 0 0 0-.51.51v43.49a.51.51 0 0 0 .51.51h24.72a.51.51 0 0 0 .51-.51l.01-9.74a.51.51 0 0 0-.51-.51l-13.22.01m191.92-6.04a.33.33 0 0 1 .33.33l-.02 16.13a.33.33 0 0 0 .33.33h10.59a.33.33 0 0 0 .33-.33v-43.86a.33.33 0 0 0-.33-.33H353.6a.33.33 0 0 0-.33.33l.01 15.99a.33.33 0 0 1-.33.33h-11.1a.33.33 0 0 1-.33-.33l.02-15.99a.33.33 0 0 0-.33-.33h-42.95a.33.33 0 0 0-.33.33l-.04 9.86a.33.33 0 0 0 .33.33h9.97a.33.33 0 0 1 .33.33v33.34a.33.33 0 0 0 .33.33h10.32a.33.33 0 0 0 .33-.33l.09-33.34a.33.33 0 0 1 .33-.33l9.81.01a.33.33 0 0 1 .33.33l.02 33.33a.33.33 0 0 0 .33.33h10.78a.33.33 0 0 0 .33-.33l.01-16.1a.33.33 0 0 1 .33-.33l11.09-.03m23.3.09a.34.34 0 0 1 .34-.34l15.02.01a.34.34 0 0 0 .34-.34v-9.94a.34.34 0 0 0-.34-.34l-15.05.01a.34.34 0 0 1-.34-.34v-5.69a.34.34 0 0 1 .34-.34l15.07.01a.34.34 0 0 0 .34-.34l-.02-9.84a.34.34 0 0 0-.34-.34h-26.15a.34.34 0 0 0-.34.34v43.84a.34.34 0 0 0 .34.34h26.18a.34.34 0 0 0 .34-.34l-.03-9.77a.34.34 0 0 0-.34-.34l-15.07.01a.34.34 0 0 1-.34-.34l.05-5.92m-161.14 44.56c.14-8.8-6.24-14.91-14.47-15.24q-8.25-.32-16.95-.07-.63.02-.63.65l-.08 43.16a.64.63-90 0 0 .63.64h9.95q.55 0 .55-.55l-.03-15.66q0-1.67.8-.21l8.74 16.05q.21.37.63.37h11.77q.84 0 .41-.73L208 227.02q-.26-.45.19-.72c2.96-1.73 5.02-4.29 6.25-7.66q.21-.58.17.04-.7 11.03 7.09 18.15c6.2 5.65 15.48 7.49 23.33 4.61q12.17-4.47 14.89-17.91.12-.6.12.01l-.03 18.12a.31.31 0 0 0 .31.31q9.27.08 17.96 0c7.38-.07 14.02-3.8 14.64-11.79q0-.06.05-.08.05-.02.1.01.05.04.05.1-.08 5.61-.12 11.04a.73.73 0 0 0 .73.74h51.76q.48 0 .48-.48v-8.75a1.21 1.21 0 0 0-1.21-1.21H330.6q-.46 0-.45-.45l.09-5.62q.01-.52.53-.52l14.73.01a.47.46-90 0 0 .46-.47l.02-9.46q.01-.7-.69-.7l-14.76.02q-.33 0-.33-.33l.06-5.79q0-.24.25-.24h14.98q.48 0 .48-.49l.01-9.53a.51.51 0 0 0-.51-.51l-25.71.01a.77.76 0 0 0-.77.76v32.51a.49.49 0 0 1-.49.49H305q-.49 0-.49-.49v-32.76q.01-.52-.52-.52l-10.21.02a.74.73 0 0 0-.74.73v26.25q0 .16-.1.03-2.36-3.13-4.71-6.26-.08-.1-.01.01.11.17.77-.5 2.39-2.45 2.66-5.66c.85-10-5.23-14.27-14.35-14.52q-7.06-.2-16.52-.06-.77.01-.77.78l.02 18.1q0 1.14-.15.01c-1.59-11.68-11.55-19.83-23.56-19.46-9.83.31-17.95 6.61-20.94 15.97q-.28.88-.27-.05" vector-effect="non-scaling-stroke"/>
    <path d="M162.22 230.61c1.41.01 2.85.13 4.24.02q11.36-.89 15.06-10.32c3.32-8.47-.32-18.44-9.22-21.67q-3.89-1.41-10.28-1.23-5.76.17-11.35.02a.62.62 0 0 0-.64.62v43.46q0 .49.49.49h10.49q.5 0 .51-.51l.11-10.3q.01-.58.59-.58m217.1-13.99a.31.31 0 0 1 .56.19l.02 24.88a.31.31 0 0 0 .31.31h10.45a.31.31 0 0 0 .31-.31l.01-43.9a.31.31 0 0 0-.31-.31l-10.2-.01a.31.31 0 0 0-.25.12l-10.85 14.48a.31.31 0 0 1-.5 0l-10.43-14.47a.31.31 0 0 0-.25-.13l-10.84.02a.31.31 0 0 0-.31.31l.01 43.89a.31.31 0 0 0 .31.31h10.45a.31.31 0 0 0 .31-.31v-25.06a.31.31 0 0 1 .56-.19l10.13 13.68a.31.31 0 0 0 .5 0l10.01-13.5m-188.24 49.23a10.58 10.58 0 0 0-10.58-10.58 10.58 10.58 0 0 0-10.58 10.58 10.58 10.58 0 0 0 10.58 10.58 10.58 10.58 0 0 0 10.58-10.58m79.86-5.39a1.59 1.58-44.1 0 1 2.01.03l1.56 1.33a.93.93 0 0 0 1.16.03l3.27-2.46q.61-.47.08-1.01-4.03-4.16-9.22-2.92c-6.64 1.59-7.55 10.09-.67 12.07q1.88.54 3.52 1.28 1.93.87.13 1.98-2.08 1.27-4.46-2.11-.04-.05-.09-.02-2.9 1.84-4.75 3.79-.07.07-.01.14 4.06 4.6 9.89 3.76c6.85-.99 8.88-10.22 1.83-12.55q-2.23-.74-4.45-1.62-1.32-.53-.21-1.4l.41-.32" vector-effect="non-scaling-stroke"/>
    <path d="M300.6 265.85a10.6 10.6 0 0 0-10.6-10.6 10.6 10.6 0 0 0-10.6 10.6 10.6 10.6 0 0 0 10.6 10.6 10.6 10.6 0 0 0 10.6-10.6m70.73 2.59-.1 7.04q-.01.52.5.52h4.53q.5 0 .5-.5l-.01-9.29q0-.84.45-.13l5.87 9.4q.32.52.94.52l4.47-.01a.47.47 0 0 0 .47-.47v-19.27q0-.69-.7-.69l-3.98.02q-.78 0-.77.78l.07 8.54q.01 1-.53.15l-5.69-9.01q-.32-.51-.92-.51l-4.31.05a.92.92 0 0 0-.91.98q.16 2.44-.05 4.85-.08.99-.51.09c-2.53-5.33-8.79-7.93-14.25-5.21-10.89 5.43-5.73 22.31 6.65 19.91q6.36-1.24 8.17-7.78.12-.42.11.02m-207.3-3.65q0 1.02-.54.16l-5.65-8.91q-.32-.5-.92-.5l-4.3.02q-.67 0-.67.67l-.03 19.6q0 .17.17.17l5.02-.02a.16.15-3.7 0 0 .15-.16q-.28-4.87-.11-9.44.04-1.04.6-.16l5.85 9.27q.32.51.92.51h4.36q.62-.01.62-.63l-.06-19.25q0-.58-.58-.58l-4.15.04q-.7 0-.7.71l.02 8.5m37.49-3.56a.43.43 0 0 1 .43-.43l3.86-.02a.43.43 0 0 0 .43-.43l-.01-4.36a.43.43 0 0 0-.43-.43l-14.37-.01a.43.43 0 0 0-.44.44l.06 4.4a.43.43 0 0 0 .42.42l4.14.01a.43.43 0 0 1 .43.43l-.02 14.32a.43.43 0 0 0 .43.43h4.65a.43.43 0 0 0 .43-.43l-.01-14.34m21.44.05a.39.39 0 0 1 .37-.39l4.52-.28a.39.39 0 0 1 .41.38l.02 14.62a.39.39 0 0 0 .39.39l4.7-.01a.39.39 0 0 0 .39-.39l-.01-6.7a.39.39 0 0 1 .4-.4l4.34.06a.39.39 0 0 1 .38.39l-.08 6.65a.39.39 0 0 0 .39.4h4.67a.39.39 0 0 0 .39-.39l.03-19.7a.39.39 0 0 0-.4-.39l-4.72.09a.39.39 0 0 0-.39.4l.06 6.64a.39.39 0 0 1-.39.39l-4.29.05a.39.39 0 0 1-.39-.39l.01-6.72a.39.39 0 0 0-.39-.39l-20.47-.05a.39.39 0 0 0-.39.39l-.01 4.47a.39.39 0 0 0 .39.39l4.26.03a.39.39 0 0 1 .39.39l-.02 14.4a.39.39 0 0 0 .39.39h4.68a.39.39 0 0 0 .39-.39l-.02-14.33m27.77 9.73a.54.54 0 0 1-.54-.57l.09-1.49a.54.54 0 0 1 .53-.51l5.89-.05a.54.54 0 0 0 .53-.54v-4.09a.54.54 0 0 0-.54-.54l-6.03-.05a.54.54 0 0 1-.53-.52l-.03-1.3a.54.54 0 0 1 .54-.55l6.06-.04a.54.54 0 0 0 .54-.54l-.03-4.12a.54.54 0 0 0-.54-.54l-11.2-.01a.54.54 0 0 0-.54.54l-.06 19.37a.54.54 0 0 0 .54.54h11.3a.54.54 0 0 0 .54-.54l-.01-3.92a.54.54 0 0 0-.54-.54l-5.97.01" vector-effect="non-scaling-stroke"/>
    <path d="M328.44 256.62q-.16-.14-.03-.35a.46.46 0 0 0-.4-.71l-4.43.05q-.81 0-.77.81.23 5.06.12 10.03c-.04 1.62.37 3.47-1.25 4.4q-2.12 1.22-3.12-1.19-.74-1.78-.48-3.8c.4-3.21.25-6.58.13-9.81q-.02-.52-.54-.51l-4.19.07a.65.64-.9 0 0-.64.65l.06 14.5q0 .33-.32.27-2.76-.44-5.94-.08a.47.46-2.7 0 1-.52-.47l.11-14.34q0-.59-.59-.59l-4.02.05q-.76 0-.77.77v18.93q0 .7.7.7h10.33a.88.88 0 0 0 .88-.88l.01-2.88q0-1 .47-.12 2.85 5.32 9.24 4.08 5.44-1.07 5.69-6.12.2-3.94-.03-9.02-.01-.28.27-.28l4.9.05q.22 0 .22.22l-.01 14.46q0 .49.49.49h4.48q.49 0 .49-.49l-.02-14.28q-.01-.33.32-.35l4.77-.28q.21-.01.21.2l.02 14.71q0 .49.48.49h4.73q.49 0 .49-.49l-.01-19.31q0-.51-.5-.58-2.98-.41-5.43.45-.15.05-.21-.1-.06-.13-.17-.2-.3-.21-.66-.21-6.76 0-13.49-.03-.3 0-.55.18-.39.27-.28.78.11.48-.24.13M197.3 174.54a11.76 11.4 89.9 0 0 11.38-11.78 11.76 11.4 89.9 0 0-11.42-11.74 11.76 11.4 89.9 0 0-11.38 11.78 11.76 11.4 89.9 0 0 11.42 11.74m73.66 33.2v6.24a.25.25 0 0 0 .25.25h4.94a4.37 3.21 0 0 0 4.37-3.21v-.32a4.37 3.21 0 0 0-4.37-3.21h-4.94a.25.25 0 0 0-.25.25m-76.86.77-.02 9.4a.68.68 0 0 0 .68.68l2.79.01a6.29 5.22.1 0 0 6.3-5.21v-.32a6.29 5.22.1 0 0-6.28-5.23l-2.79-.01a.68.68 0 0 0-.68.68m43.6 23.043a11.77 11.41 88 0 0 10.993-12.161 11.77 11.41 88 0 0-11.814-11.365 11.77 11.41 88 0 0-10.992 12.161 11.77 11.41 88 0 0 11.814 11.365m33.279-6.813-.02 7.02a.27.27 0 0 0 .27.27l5.55.01a4.66 3.47.1 0 0 4.67-3.46v-.62a4.66 3.47.1 0 0-4.65-3.48l-5.55-.01a.27.27 0 0 0-.27.27m-109.26-16.61.04 11.7a.27.27 0 0 0 .27.27l3-.02a6.07 5.78-.2 0 0 6.05-5.8v-.68a6.07 5.78-.2 0 0-6.09-5.76l-3 .02a.27.27 0 0 0-.27.27m18.736 62.77a5.05 4.86 90.5 0 0 4.904-5.008 5.05 4.86 90.5 0 0-4.816-5.092 5.05 4.86 90.5 0 0-4.904 5.008 5.05 4.86 90.5 0 0 4.816 5.092m109.542 0a5.05 4.89 89.8 0 0 4.872-5.067 5.05 4.89 89.8 0 0-4.908-5.033 5.05 4.89 89.8 0 0-4.872 5.067 5.05 4.89 89.8 0 0 4.908 5.033m71.08 0a5.05 4.9 89 0 0 4.811-5.135 5.05 4.9 89 0 0-4.987-4.964 5.05 4.9 89 0 0-4.811 5.135 5.05 4.9 89 0 0 4.987 4.963" vector-effect="non-scaling-stroke"/>
  </g>
  <path fill="#392f2c" d="m271.75 110.67 82.77-52.33a.46.46 0 0 1 .51.02l91.95 64.28a.46.46 0 0 1 .2.38v129.11a.46.46 0 0 1-.16.35L271.8 406.06a.46.46 0 0 1-.6 0L95.97 252.48a.46.46 0 0 1-.16-.35V123.02a.46.46 0 0 1 .2-.38l91.95-64.28a.46.46 0 0 1 .51-.02l82.78 52.33a.46.46 0 0 0 .5 0Zm-51.52 52.16a22.96 22.96 0 0 0-22.96-22.96 22.96 22.96 0 0 0-22.96 22.96 22.96 22.96 0 0 0 22.96 22.96 22.96 22.96 0 0 0 22.96-22.96Zm36.55-16.84q.23-.75.23.03v38.36q0 .62.62.62h25.86a.49.48-.6 0 0 .49-.49l-.02-8.79a1.16 1.16 0 0 0-1.16-1.16l-14.29-.01q-.3 0-.3-.29l.04-6.03q0-.27.27-.27l14.98.01q.47 0 .47-.47l-.01-9.56q0-.59-.6-.59l-14.83.01q-.34 0-.34-.33l.08-5.67q0-.37.37-.37l14.85.01a.49.49 0 0 0 .49-.49l-.03-9.54q0-.48-.48-.48l-36.01-.04a.94.93-81 0 0-.89.65l-7.58 24.39q-.34 1.09-.69 0l-7.82-24.48q-.17-.54-.74-.54l-10.2.02a.76.76 0 0 0-.72 1l13.83 42.87q.2.64.88.64h10.48q.54 0 .7-.51l12.07-38.5Zm-95.75 28.26a.51.51 0 0 1-.51-.51v-32.76a.51.51 0 0 0-.51-.51l-10.49.02a.51.51 0 0 0-.51.51v43.49a.51.51 0 0 0 .51.51h24.72a.51.51 0 0 0 .51-.51l.01-9.74a.51.51 0 0 0-.51-.51l-13.22.01Zm191.92-6.04a.33.33 0 0 1 .33.33l-.02 16.13a.33.33 0 0 0 .33.33h10.59a.33.33 0 0 0 .33-.33v-43.86a.33.33 0 0 0-.33-.33H353.6a.33.33 0 0 0-.33.33l.01 15.99a.33.33 0 0 1-.33.33h-11.1a.33.33 0 0 1-.33-.33l.02-15.99a.33.33 0 0 0-.33-.33h-42.95a.33.33 0 0 0-.33.33l-.04 9.86a.33.33 0 0 0 .33.33h9.97a.33.33 0 0 1 .33.33v33.34a.33.33 0 0 0 .33.33h10.32a.33.33 0 0 0 .33-.33l.09-33.34a.33.33 0 0 1 .33-.33l9.81.01a.33.33 0 0 1 .33.33l.02 33.33a.33.33 0 0 0 .33.33h10.78a.33.33 0 0 0 .33-.33l.01-16.1a.33.33 0 0 1 .33-.33l11.09-.03Zm23.3.09a.34.34 0 0 1 .34-.34l15.02.01a.34.34 0 0 0 .34-.34v-9.94a.34.34 0 0 0-.34-.34l-15.05.01a.34.34 0 0 1-.34-.34v-5.69a.34.34 0 0 1 .34-.34l15.07.01a.34.34 0 0 0 .34-.34l-.02-9.84a.34.34 0 0 0-.34-.34h-26.15a.34.34 0 0 0-.34.34v43.84a.34.34 0 0 0 .34.34h26.18a.34.34 0 0 0 .34-.34l-.03-9.77a.34.34 0 0 0-.34-.34l-15.07.01a.34.34 0 0 1-.34-.34l.05-5.92Zm-161.14 44.56c.14-8.8-6.24-14.91-14.47-15.24q-8.25-.32-16.95-.07-.63.02-.63.65l-.08 43.16a.64.63-90 0 0 .63.64h9.95q.55 0 .55-.55l-.03-15.66q0-1.67.8-.21l8.74 16.05q.21.37.63.37h11.77q.84 0 .41-.73L208 227.02q-.26-.45.19-.72c2.96-1.73 5.02-4.29 6.25-7.66q.21-.58.17.04-.7 11.03 7.09 18.15c6.2 5.65 15.48 7.49 23.33 4.61q12.17-4.47 14.89-17.91.12-.6.12.01l-.03 18.12a.31.31 0 0 0 .31.31q9.27.08 17.96 0c7.38-.07 14.02-3.8 14.64-11.79q0-.06.05-.08.05-.02.1.01.05.04.05.1-.08 5.61-.12 11.04a.73.73 0 0 0 .73.74h51.76q.48 0 .48-.48v-8.75a1.21 1.21 0 0 0-1.21-1.21H330.6q-.46 0-.45-.45l.09-5.62q.01-.52.53-.52l14.73.01a.47.46-90 0 0 .46-.47l.02-9.46q.01-.7-.69-.7l-14.76.02q-.33 0-.33-.33l.06-5.79q0-.24.25-.24h14.98q.48 0 .48-.49l.01-9.53a.51.51 0 0 0-.51-.51l-25.71.01a.77.76 0 0 0-.77.76v32.51a.49.49 0 0 1-.49.49H305q-.49 0-.49-.49v-32.76q.01-.52-.52-.52l-10.21.02a.74.73 0 0 0-.74.73v26.25q0 .16-.1.03-2.36-3.13-4.71-6.26-.08-.1-.01.01.11.17.77-.5 2.39-2.45 2.66-5.66c.85-10-5.23-14.27-14.35-14.52q-7.06-.2-16.52-.06-.77.01-.77.78l.02 18.1q0 1.14-.15.01c-1.59-11.68-11.55-19.83-23.56-19.46-9.83.31-17.95 6.61-20.94 15.97q-.28.88-.27-.05Zm-52.89 17.75c1.41.01 2.85.13 4.24.02q11.36-.89 15.06-10.32c3.32-8.47-.32-18.44-9.22-21.67q-3.89-1.41-10.28-1.23-5.76.17-11.35.02a.62.62 0 0 0-.64.62v43.46q0 .49.49.49h10.49q.5 0 .51-.51l.11-10.3q.01-.58.59-.58Zm217.1-13.99a.31.31 0 0 1 .56.19l.02 24.88a.31.31 0 0 0 .31.31h10.45a.31.31 0 0 0 .31-.31l.01-43.9a.31.31 0 0 0-.31-.31l-10.2-.01a.31.31 0 0 0-.25.12l-10.85 14.48a.31.31 0 0 1-.5 0l-10.43-14.47a.31.31 0 0 0-.25-.13l-10.84.02a.31.31 0 0 0-.31.31l.01 43.89a.31.31 0 0 0 .31.31h10.45a.31.31 0 0 0 .31-.31v-25.06a.31.31 0 0 1 .56-.19l10.13 13.68a.31.31 0 0 0 .5 0l10.01-13.5Zm-188.24 49.23a10.58 10.58 0 0 0-10.58-10.58 10.58 10.58 0 0 0-10.58 10.58 10.58 10.58 0 0 0 10.58 10.58 10.58 10.58 0 0 0 10.58-10.58Zm79.86-5.39a1.59 1.58-44.1 0 1 2.01.03l1.56 1.33a.93.93 0 0 0 1.16.03l3.27-2.46q.61-.47.08-1.01-4.03-4.16-9.22-2.92c-6.64 1.59-7.55 10.09-.67 12.07q1.88.54 3.52 1.28 1.93.87.13 1.98-2.08 1.27-4.46-2.11-.04-.05-.09-.02-2.9 1.84-4.75 3.79-.07.07-.01.14 4.06 4.6 9.89 3.76c6.85-.99 8.88-10.22 1.83-12.55q-2.23-.74-4.45-1.62-1.32-.53-.21-1.4l.41-.32Zm29.66 5.39a10.6 10.6 0 0 0-10.6-10.6 10.6 10.6 0 0 0-10.6 10.6 10.6 10.6 0 0 0 10.6 10.6 10.6 10.6 0 0 0 10.6-10.6Zm70.73 2.59-.1 7.04q-.01.52.5.52h4.53q.5 0 .5-.5l-.01-9.29q0-.84.45-.13l5.87 9.4q.32.52.94.52l4.47-.01a.47.47 0 0 0 .47-.47v-19.27q0-.69-.7-.69l-3.98.02q-.78 0-.77.78l.07 8.54q.01 1-.53.15l-5.69-9.01q-.32-.51-.92-.51l-4.31.05a.92.92 0 0 0-.91.98q.16 2.44-.05 4.85-.08.99-.51.09c-2.53-5.33-8.79-7.93-14.25-5.21-10.89 5.43-5.73 22.31 6.65 19.91q6.36-1.24 8.17-7.78.12-.42.11.02Zm-207.3-3.65q0 1.02-.54.16l-5.65-8.91q-.32-.5-.92-.5l-4.3.02q-.67 0-.67.67l-.03 19.6q0 .17.17.17l5.02-.02a.16.15-3.7 0 0 .15-.16q-.28-4.87-.11-9.44.04-1.04.6-.16l5.85 9.27q.32.51.92.51h4.36q.62-.01.62-.63l-.06-19.25q0-.58-.58-.58l-4.15.04q-.7 0-.7.71l.02 8.5Zm37.49-3.56a.43.43 0 0 1 .43-.43l3.86-.02a.43.43 0 0 0 .43-.43l-.01-4.36a.43.43 0 0 0-.43-.43l-14.37-.01a.43.43 0 0 0-.44.44l.06 4.4a.43.43 0 0 0 .42.42l4.14.01a.43.43 0 0 1 .43.43l-.02 14.32a.43.43 0 0 0 .43.43h4.65a.43.43 0 0 0 .43-.43l-.01-14.34Zm21.44.05a.39.39 0 0 1 .37-.39l4.52-.28a.39.39 0 0 1 .41.38l.02 14.62a.39.39 0 0 0 .39.39l4.7-.01a.39.39 0 0 0 .39-.39l-.01-6.7a.39.39 0 0 1 .4-.4l4.34.06a.39.39 0 0 1 .38.39l-.08 6.65a.39.39 0 0 0 .39.4h4.67a.39.39 0 0 0 .39-.39l.03-19.7a.39.39 0 0 0-.4-.39l-4.72.09a.39.39 0 0 0-.39.4l.06 6.64a.39.39 0 0 1-.39.39l-4.29.05a.39.39 0 0 1-.39-.39l.01-6.72a.39.39 0 0 0-.39-.39l-20.47-.05a.39.39 0 0 0-.39.39l-.01 4.47a.39.39 0 0 0 .39.39l4.26.03a.39.39 0 0 1 .39.39l-.02 14.4a.39.39 0 0 0 .39.39h4.68a.39.39 0 0 0 .39-.39l-.02-14.33Zm27.77 9.73a.54.54 0 0 1-.54-.57l.09-1.49a.54.54 0 0 1 .53-.51l5.89-.05a.54.54 0 0 0 .53-.54v-4.09a.54.54 0 0 0-.54-.54l-6.03-.05a.54.54 0 0 1-.53-.52l-.03-1.3a.54.54 0 0 1 .54-.55l6.06-.04a.54.54 0 0 0 .54-.54l-.03-4.12a.54.54 0 0 0-.54-.54l-11.2-.01a.54.54 0 0 0-.54.54l-.06 19.37a.54.54 0 0 0 .54.54h11.3a.54.54 0 0 0 .54-.54l-.01-3.92a.54.54 0 0 0-.54-.54l-5.97.01Zm77.71-14.39q-.16-.14-.03-.35a.46.46 0 0 0-.4-.71l-4.43.05q-.81 0-.77.81.23 5.06.12 10.03c-.04 1.62.37 3.47-1.25 4.4q-2.12 1.22-3.12-1.19-.74-1.78-.48-3.8c.4-3.21.25-6.58.13-9.81q-.02-.52-.54-.51l-4.19.07a.65.64-.9 0 0-.64.65l.06 14.5q0 .33-.32.27-2.76-.44-5.94-.08a.47.46-2.7 0 1-.52-.47l.11-14.34q0-.59-.59-.59l-4.02.05q-.76 0-.77.77v18.93q0 .7.7.7h10.33a.88.88 0 0 0 .88-.88l.01-2.88q0-1 .47-.12 2.85 5.32 9.24 4.08 5.44-1.07 5.69-6.12.2-3.94-.03-9.02-.01-.28.27-.28l4.9.05q.22 0 .22.22l-.01 14.46q0 .49.49.49h4.48q.49 0 .49-.49l-.02-14.28q-.01-.33.32-.35l4.77-.28q.21-.01.21.2l.02 14.71q0 .49.48.49h4.73q.49 0 .49-.49l-.01-19.31q0-.51-.5-.58-2.98-.41-5.43.45-.15.05-.21-.1-.06-.13-.17-.2-.3-.21-.66-.21-6.76 0-13.49-.03-.3 0-.55.18-.39.27-.28.78.11.48-.24.13Z"/>
  <g fill="#fff">
    <path d="M220.23 162.83a22.96 22.96 0 0 1-22.96 22.96 22.96 22.96 0 0 1-22.96-22.96 22.96 22.96 0 0 1 22.96-22.96 22.96 22.96 0 0 1 22.96 22.96Zm-22.93 11.71a11.76 11.4 89.9 0 0 11.38-11.78 11.76 11.4 89.9 0 0-11.42-11.74 11.76 11.4 89.9 0 0-11.38 11.78 11.76 11.4 89.9 0 0 11.42 11.74Zm59.48-28.55-12.07 38.5q-.16.51-.7.51h-10.48q-.68 0-.88-.64l-13.83-42.87a.76.76 0 0 1 .72-1l10.2-.02q.57 0 .74.54l7.82 24.48q.35 1.09.69 0l7.58-24.39a.94.93-81 0 1 .89-.65l36.01.04q.48 0 .48.48l.03 9.54a.49.49 0 0 1-.49.49l-14.85-.01q-.37 0-.37.37l-.08 5.67q0 .33.34.33l14.83-.01q.6 0 .6.59l.01 9.56q0 .47-.47.47l-14.98-.01q-.27 0-.27.27l-.04 6.03q0 .29.3.29l14.29.01a1.16 1.16 0 0 1 1.16 1.16l.02 8.79a.49.48-.6 0 1-.49.49h-25.86q-.62 0-.62-.62v-38.36q0-.78-.23-.03Zm-95.75 28.26 13.22-.01a.51.51 0 0 1 .51.51l-.01 9.74a.51.51 0 0 1-.51.51h-24.72a.51.51 0 0 1-.51-.51V141a.51.51 0 0 1 .51-.51l10.49-.02a.51.51 0 0 1 .51.51v32.76a.51.51 0 0 0 .51.51Zm191.92-6.04-11.09.03a.33.33 0 0 0-.33.33l-.01 16.1a.33.33 0 0 1-.33.33h-10.78a.33.33 0 0 1-.33-.33l-.02-33.33a.33.33 0 0 0-.33-.33l-9.81-.01a.33.33 0 0 0-.33.33l-.09 33.34a.33.33 0 0 1-.33.33h-10.32a.33.33 0 0 1-.33-.33v-33.34a.33.33 0 0 0-.33-.33h-9.97a.33.33 0 0 1-.33-.33l.04-9.86a.33.33 0 0 1 .33-.33h42.95a.33.33 0 0 1 .33.33l-.02 15.99a.33.33 0 0 0 .33.33h11.1a.33.33 0 0 0 .33-.33l-.01-15.99a.33.33 0 0 1 .33-.33h10.58a.33.33 0 0 1 .33.33v43.86a.33.33 0 0 1-.33.33h-10.59a.33.33 0 0 1-.33-.33l.02-16.13a.33.33 0 0 0-.33-.33Zm23.3.09-.05 5.92a.34.34 0 0 0 .34.34l15.07-.01a.34.34 0 0 1 .34.34l.03 9.77a.34.34 0 0 1-.34.34h-26.18a.34.34 0 0 1-.34-.34v-43.84a.34.34 0 0 1 .34-.34h26.15a.34.34 0 0 1 .34.34l.02 9.84a.34.34 0 0 1-.34.34l-15.07-.01a.34.34 0 0 0-.34.34v5.69a.34.34 0 0 0 .34.34l15.05-.01a.34.34 0 0 1 .34.34v9.94a.34.34 0 0 1-.34.34l-15.02-.01a.34.34 0 0 0-.34.34Zm-160.87 44.61c2.99-9.36 11.11-15.66 20.94-15.97 12.01-.37 21.97 7.78 23.56 19.46q.15 1.13.15-.01l-.02-18.1q0-.77.77-.78 9.46-.14 16.52.06c9.12.25 15.2 4.52 14.35 14.52q-.27 3.21-2.66 5.66-.66.67-.77.5-.07-.11.01-.01 2.35 3.13 4.71 6.26.1.13.1-.03v-26.25a.74.73 0 0 1 .74-.73l10.21-.02q.53 0 .52.52v32.76q0 .49.49.49h13.5a.49.49 0 0 0 .49-.49v-32.51a.77.76 0 0 1 .77-.76l25.71-.01a.51.51 0 0 1 .51.51l-.01 9.53q0 .49-.48.49h-14.98q-.25 0-.25.24l-.06 5.79q0 .33.33.33l14.76-.02q.7 0 .69.7l-.02 9.46a.47.46-90 0 1-.46.47l-14.73-.01q-.52 0-.53.52l-.09 5.62q-.01.45.45.45h14.16a1.21 1.21 0 0 1 1.21 1.21v8.75q0 .48-.48.48h-51.76a.73.73 0 0 1-.73-.74q.04-5.43.12-11.04 0-.06-.05-.1-.05-.03-.1-.01-.05.02-.05.08c-.62 7.99-7.26 11.72-14.64 11.79q-8.69.08-17.96 0a.31.31 0 0 1-.31-.31l.03-18.12q0-.61-.12-.01-2.72 13.44-14.89 17.91c-7.85 2.88-17.13 1.04-23.33-4.61q-7.79-7.12-7.09-18.15.04-.62-.17-.04c-1.23 3.37-3.29 5.93-6.25 7.66q-.45.27-.19.72l8.43 14.25q.43.73-.41.73h-11.77q-.42 0-.63-.37l-8.74-16.05q-.8-1.46-.8.21l.03 15.66q0 .55-.55.55h-9.95a.64.63 90 0 1-.63-.64l.08-43.16q0-.63.63-.65 8.7-.25 16.95.07c8.23.33 14.61 6.44 14.47 15.24q-.01.93.27.05Zm55.58-5.17v6.24a.25.25 0 0 0 .25.25h4.94a4.37 3.21 0 0 0 4.37-3.21v-.32a4.37 3.21 0 0 0-4.37-3.21h-4.94a.25.25 0 0 0-.25.25Zm-76.86.77-.02 9.4a.68.68 0 0 0 .68.68l2.79.01a6.29 5.22.1 0 0 6.3-5.21v-.32a6.29 5.22.1 0 0-6.28-5.23l-2.79-.01a.68.68 0 0 0-.68.68Zm43.6 23.043a11.77 11.41 88 0 0 10.993-12.161 11.77 11.41 88 0 0-11.814-11.365 11.77 11.41 88 0 0-10.992 12.161 11.77 11.41 88 0 0 11.814 11.365Zm33.28-6.813-.02 7.02a.27.27 0 0 0 .27.27l5.55.01a4.66 3.47.1 0 0 4.67-3.46v-.62a4.66 3.47.1 0 0-4.65-3.48l-5.55-.01a.27.27 0 0 0-.27.27Z"/>
    <path d="m161.63 231.19-.11 10.3q-.01.51-.51.51h-10.49q-.49 0-.49-.49v-43.46a.62.62 0 0 1 .64-.62q5.59.15 11.35-.02 6.39-.18 10.28 1.23c8.9 3.23 12.54 13.2 9.22 21.67q-3.7 9.43-15.06 10.32c-1.39.11-2.83-.01-4.24-.02q-.58 0-.59.58Zm.09-23.06.04 11.7a.27.27 0 0 0 .27.27l3-.02a6.07 5.78-.2 0 0 6.05-5.8v-.68a6.07 5.78-.2 0 0-6.09-5.76l-3 .02a.27.27 0 0 0-.27.27Zm217.6 8.49-10.01 13.5a.31.31 0 0 1-.5 0l-10.13-13.68a.31.31 0 0 0-.56.19v25.06a.31.31 0 0 1-.31.31h-10.45a.31.31 0 0 1-.31-.31l-.01-43.89a.31.31 0 0 1 .31-.31l10.84-.02a.31.31 0 0 1 .25.13l10.43 14.47a.31.31 0 0 0 .5 0l10.85-14.48a.31.31 0 0 1 .25-.12l10.2.01a.31.31 0 0 1 .31.31l-.01 43.9a.31.31 0 0 1-.31.31h-10.45a.31.31 0 0 1-.31-.31l-.02-24.88a.31.31 0 0 0-.56-.19Zm-188.24 49.23a10.58 10.58 0 0 1-10.58 10.58 10.58 10.58 0 0 1-10.58-10.58 10.58 10.58 0 0 1 10.58-10.58 10.58 10.58 0 0 1 10.58 10.58Zm-10.624 5.05a5.05 4.86 90.5 0 0 4.904-5.008 5.05 4.86 90.5 0 0-4.816-5.092 5.05 4.86 90.5 0 0-4.904 5.008 5.05 4.86 90.5 0 0 4.816 5.092Zm90.484-10.44-.41.32q-1.11.87.21 1.4 2.22.88 4.45 1.62c7.05 2.33 5.02 11.56-1.83 12.55q-5.83.84-9.89-3.76-.06-.07.01-.14 1.85-1.95 4.75-3.79.05-.03.09.02 2.38 3.38 4.46 2.11 1.8-1.11-.13-1.98-1.64-.74-3.52-1.28c-6.88-1.98-5.97-10.48.67-12.07q5.19-1.24 9.22 2.92.53.54-.08 1.01l-3.27 2.46a.93.93 0 0 1-1.16-.03l-1.56-1.33a1.59 1.58-44.1 0 0-2.01-.03Z"/>
    <path d="M300.6 265.85a10.6 10.6 0 0 1-10.6 10.6 10.6 10.6 0 0 1-10.6-10.6 10.6 10.6 0 0 1 10.6-10.6 10.6 10.6 0 0 1 10.6 10.6Zm-10.602 5.05a5.05 4.89 89.8 0 0 4.872-5.067 5.05 4.89 89.8 0 0-4.908-5.033 5.05 4.89 89.8 0 0-4.872 5.067 5.05 4.89 89.8 0 0 4.908 5.033Zm81.222-2.48q-1.81 6.54-8.17 7.78c-12.38 2.4-17.54-14.48-6.65-19.91 5.46-2.72 11.72-.12 14.25 5.21q.43.9.51-.09.21-2.41.05-4.85a.92.92 0 0 1 .91-.98l4.31-.05q.6 0 .92.51l5.69 9.01q.54.85.53-.15l-.07-8.54q-.01-.78.77-.78l3.98-.02q.7 0 .7.69v19.27a.47.47 0 0 1-.47.47l-4.47.01q-.62 0-.94-.52l-5.87-9.4q-.45-.71-.45.13l.01 9.29q0 .5-.5.5h-4.53q-.51 0-.5-.52l.1-7.04q.01-.44-.11-.02Zm-10.142 2.48a5.05 4.9 89 0 0 4.811-5.135 5.05 4.9 89 0 0-4.987-4.964 5.05 4.9 89 0 0-4.811 5.135 5.05 4.9 89 0 0 4.987 4.963Zm-197.048-6.11-.02-8.5q0-.71.7-.71l4.15-.04q.58 0 .58.58l.06 19.25q0 .62-.62.63h-4.36q-.6 0-.92-.51l-5.85-9.27q-.56-.88-.6.16-.17 4.57.11 9.44a.16.15-3.7 0 1-.15.16l-5.02.02q-.17 0-.17-.17l.03-19.6q0-.67.67-.67l4.3-.02q.6 0 .92.5l5.65 8.91q.54.86.54-.16Zm37.49-3.56.01 14.34a.43.43 0 0 1-.43.43h-4.65a.43.43 0 0 1-.43-.43l.02-14.32a.43.43 0 0 0-.43-.43l-4.14-.01a.43.43 0 0 1-.42-.42l-.06-4.4a.43.43 0 0 1 .44-.44l14.37.01a.43.43 0 0 1 .43.43l.01 4.36a.43.43 0 0 1-.43.43l-3.86.02a.43.43 0 0 0-.43.43Zm21.44.05.02 14.33a.39.39 0 0 1-.39.39h-4.68a.39.39 0 0 1-.39-.39l.02-14.4a.39.39 0 0 0-.39-.39l-4.26-.03a.39.39 0 0 1-.39-.39l.01-4.47a.39.39 0 0 1 .39-.39l20.47.05a.39.39 0 0 1 .39.39l-.01 6.72a.39.39 0 0 0 .39.39l4.29-.05a.39.39 0 0 0 .39-.39l-.06-6.64a.39.39 0 0 1 .39-.4l4.72-.09a.39.39 0 0 1 .4.39l-.03 19.7a.39.39 0 0 1-.39.39h-4.67a.39.39 0 0 1-.39-.4l.08-6.65a.39.39 0 0 0-.38-.39l-4.34-.06a.39.39 0 0 0-.4.4l.01 6.7a.39.39 0 0 1-.39.39l-4.7.01a.39.39 0 0 1-.39-.39l-.02-14.62a.39.39 0 0 0-.41-.38l-4.52.28a.39.39 0 0 0-.37.39Zm27.77 9.73 5.97-.01a.54.54 0 0 1 .54.54l.01 3.92a.54.54 0 0 1-.54.54h-11.3a.54.54 0 0 1-.54-.54l.06-19.37a.54.54 0 0 1 .54-.54l11.2.01a.54.54 0 0 1 .54.54l.03 4.12a.54.54 0 0 1-.54.54l-6.06.04a.54.54 0 0 0-.54.55l.03 1.3a.54.54 0 0 0 .53.52l6.03.05a.54.54 0 0 1 .54.54v4.09a.54.54 0 0 1-.53.54l-5.89.05a.54.54 0 0 0-.53.51l-.09 1.49a.54.54 0 0 0 .54.57Z"/>
    <path d="M328.68 256.49q-.11-.51.28-.78.25-.18.55-.18 6.73.03 13.49.03.36 0 .66.21.11.07.17.2.06.15.21.1 2.45-.86 5.43-.45.5.07.5.58l.01 19.31q0 .49-.49.49h-4.73q-.48 0-.48-.49l-.02-14.71q0-.21-.21-.2l-4.77.28q-.33.02-.32.35l.02 14.28q0 .49-.49.49h-4.48q-.49 0-.49-.49l.01-14.46q0-.22-.22-.22l-4.9-.05q-.28 0-.27.28.23 5.08.03 9.02-.25 5.05-5.69 6.12-6.39 1.24-9.24-4.08-.47-.88-.47.12l-.01 2.88a.88.88 0 0 1-.88.88h-10.33q-.7 0-.7-.7v-18.93q.01-.77.77-.77l4.02-.05q.59 0 .59.59l-.11 14.34a.47.46-2.7 0 0 .52.47q3.18-.36 5.94.08.32.06.32-.27l-.06-14.5a.65.64-.9 0 1 .64-.65l4.19-.07q.52-.01.54.51c.12 3.23.27 6.6-.13 9.81q-.26 2.02.48 3.8 1 2.41 3.12 1.19c1.62-.93 1.21-2.78 1.25-4.4q.11-4.97-.12-10.03-.04-.81.77-.81l4.43-.05a.46.46 0 0 1 .4.71q-.13.21.03.35.35.35.24-.13Z"/>
  </g>
  <g fill="#392f2c">
    <ellipse rx="11.76" ry="11.4" transform="rotate(89.9 17.108 180.202)"/>
    <path d="M270.96 207.74a.25.25 0 0 1 .25-.25h4.94a4.37 3.21 0 0 1 4.37 3.21v.32a4.37 3.21 0 0 1-4.37 3.21h-4.94a.25.25 0 0 1-.25-.25v-6.24Zm-109.24.39a.27.27 0 0 1 .27-.27l3-.02a6.07 5.78-.2 0 1 6.09 5.76v.68a6.07 5.78-.2 0 1-6.05 5.8l-3 .02a.27.27 0 0 1-.27-.27l-.04-11.7Zm32.38.38a.68.68 0 0 1 .68-.68l2.79.01a6.29 5.22.1 0 1 6.28 5.23v.32a6.29 5.22.1 0 1-6.3 5.21l-2.79-.01a.68.68 0 0 1-.68-.68l.02-9.4Z"/>
    <ellipse rx="11.77" ry="11.41" transform="rotate(88 4.845 232.755)"/>
    <path d="M270.98 224.74a.27.27 0 0 1 .27-.27l5.55.01a4.66 3.47.1 0 1 4.65 3.48v.62a4.66 3.47.1 0 1-4.67 3.46l-5.55-.01a.27.27 0 0 1-.27-.27l.02-7.02Z"/>
    <ellipse rx="5.05" ry="4.86" transform="rotate(90.5 -41.52 222.39)"/>
    <ellipse rx="5.05" ry="4.89" transform="rotate(89.8 11.6 278.422)"/>
    <ellipse rx="5.05" ry="4.9" transform="rotate(89 45.23 316.598)"/>
  </g>
</svg>
