<?xml version="1.0" encoding="utf-8"?>
<svg version="1.1" xmlns="http://www.w3.org/2000/svg" xmlns:xlink="http://www.w3.org/1999/xlink" x="0px" y="0px" viewBox="0 0 225.9 171.1" xml:space="preserve">
  <path class="text-text" d="M41.3,65.3C41.3,74.8,46.4,80,55,80c24.9,0,43.8,18.9,43.8,44.7c0,28.4-22.4,46.4-48.1,46.4
  C15.5,171.1,0,141,0,107.5C0,67.1,24.1,24.1,61,0l11.2,12C55,26.7,41.3,51.6,41.3,65.3 M188.1,0l11.2,12
  c-17.2,14.6-30.9,39.5-30.9,53.3c0,9.5,5.2,14.6,13.8,14.6c24.9,0,43.8,18.9,43.8,44.7c0,28.4-22.4,46.4-48.1,46.4
  c-35.2,0-50.7-30.1-50.7-63.6C127.1,67.1,151.1,24.1,188.1,0"/>
</svg>
