<?xml version="1.0" encoding="UTF-8"?>
<svg width="1200pt" height="1200pt" version="1.1" viewBox="0 0 1200 1200" xmlns="http://www.w3.org/2000/svg">
 <path d="m1109 599.8h1.1406l0.035156-0.070312-0.55078-0.55859 0.19922-0.19922h-0.39453l-43.746-43.746-45.68 45.777-82.996 1.0039-55.004 54-60-58.5 107-0.49609 90.848-90.996-45.504-45.504-89.25 89.25 17.578 17.586-65.336-65.34 89.25-89.25-45.504-45.504-89.262 89.25-47.754-47.754 89.25-89.25-45.492-45.504-89.262 89.242-47.754-47.754 89.25-89.25-45.492-45.504-89.25 89.25-3.9883-3.9766-0.76953 0.77344v93.316l-0.67969-0.69141-45.684-46.266 45.684-45.684 0.003907-87.977 45.707-45.715-45.492-45.504-1.5547 1.543v0.49609l-507.2 507.19 0.054688 0.054687h1.4102l-0.70703 0.70703 45.496 45.496 46.211-46.207 86.062 0.003906-0.03125-0.054687 46.793-46.793 64.758 50.348h-93.02l-14.555 0.4375-89.238 89.242 45.496 45.504 89.242-89.242 47.762 47.746-89.25 89.25 45.504 45.496 89.242-89.242 47.754 47.766-89.25 89.242 45.496 45.496 89.25-89.242 47.762 47.746-89.242 89.262 45.496 45.496 89.25-89.25 1.4453 1.4531v-90l45.496 46.074-44.711 44.699-0.78125-0.77344v91.051l-43.723 43.723 43.723 43.723 0.78125 0.78516zm-602.27-239.2 93.148 94.328 0.67969 0.69141v94.223l-0.67969-0.69531-139.96-141.73zm-94.262 94.266 140.88 142.66-93.047 0.003906-94.645-95.852zm282.58 380.39-94.5-95.688v-91.789l1.2109-1.2109 140.1 141.89zm94.258-94.27-140.1-141.88 1.5781-1.5703h89.91l1.4141 1.4297 94.008 95.195z"/>
</svg>
