<?xml version="1.0" encoding="UTF-8"?>
<svg width="1200pt" height="1200pt" version="1.1" viewBox="0 0 1200 1200" xmlns="http://www.w3.org/2000/svg">
 <g>
  <path d="m988.31 497.76v-2.8594l-276.94 159.61-0.9375 0.46875v319.69l277.45-160.31zm-3.8438 314.63-270.71 156.24v-311.76l270.94-156z"/>
  <path d="m1082.6 318.94-480.94-279.32-481.22 279.84 0.70312 0.46875 0.046875 54.469 46.781-27.328 48.469 28.078-95.297 55.453v54.938l142.55-83.062 49.453 28.547-191.76 111.61v55.219l94.359-55.453v-44.625l38.391 22.078 106.31-61.922 48.469 28.078-106.31 61.922 47.297 27.375 106.08-61.922 49.219 28.547-106.31 61.922 47.297 27.375 106.08-61.922 48.703 28.078-111.14 64.547v54.938l111.38-65.062v57.141l-111.38 64.781v54.938l111.38-65.062v56.391l-111.38 64.781v54.938l111.38-65.062v55.688l-24.938 14.391-165.14 96 0.23438 0.23438 47.297 27.375 142.55-83.297v56.156l-94.312 54.938 47.531 27.375 46.781-27.375v57.844l484.08-279.84 0.70312-554.86v-2.8594zm-754.78-1.875 274.31-159.61 275.76 160.08-154.08 88.781-120.71 69.375zm754.55 555.32-477.32 275.76v-550.31l478.08-275.29z"/>
  <path d="m216 653.53-0.23438-55.219-94.078 54.75 0.23438 55.172z"/>
  <path d="m216 710.16-94.078 54.703v55.219l94.078-54.703z"/>
  <path d="m222.71 817.22-98.625 57.328 47.766 27.609 98.625-57.375z"/>
  <path d="m319.22 872.86-98.672 57.375 47.766 27.609 98.391-57.375z"/>
  <path d="m414.94 928.31-98.625 57.375 47.531 27.609 98.625-57.609z"/>
 </g>
</svg>
