<?xml version="1.0" encoding="UTF-8"?>
<svg width="1200pt" height="1200pt" version="1.1" viewBox="0 0 1200 1200" xmlns="http://www.w3.org/2000/svg">
 <g>
  <path d="m651.37 79.922-49.453-27.609-474.24 275.76 48.703 25.688 474.24-273.14z"/>
  <path d="m746.63 135.61-49.688-28.078-473.48 275.53h-0.75l7.6875 3.7969 41.297 21.844 474.24-273.1z"/>
  <path d="m841.22 190.78-10.078-5.4844-40.078-22.594-473.06 274.82-0.70312 0.70312 27.562 15.141 21.375 11.25 474.24-273.84z"/>
  <path d="m936.47 246-10.078-5.7656-40.078-22.547-472.55 275.02-1.2188 0.75 34.594 18.703 14.391 7.4531 474.24-273.61z"/>
  <path d="m1032.2 300.47-49.453-28.312-0.70312 0.70312-473.53 275.06 5.5312 3.1406 43.219 23.25 473.76-273.37z"/>
  <path d="m603.14 602.39v546.98l474.24-273.84 0.46875-546.24z"/>
 </g>
</svg>
