<?xml version="1.0" encoding="UTF-8"?>
<svg width="1200pt" height="1200pt" version="1.1" viewBox="0 0 1200 1200" xmlns="http://www.w3.org/2000/svg">
 <g>
  <path d="m707.06 664.08v315.37l274.31-157.92v-315.37l-99.844 57.375z"/>
  <path d="m797.29 491.76 282.71-162.71-483.14-280.78-480.71 279.56 0.70312 0.70312 0.70313 553.22 15.609 9.1406 0.046876-553.22 16.312 9.1406v552.47l12.938 7.2188v-552.05l16.312 9.1406v552.47l12.938 7.2188 0.046874-552.24 16.312 9.1406v553.22l12.938 7.2188v-114.23l-8.3906-4.5469-1.2188-315.37 8.3906 5.2969v-123.37l16.312 9.1406v123.37l12.469 7.2188v-123.37l16.312 9.1406v123.37l12.938 7.2188v-122.86l16.312 9.1406v123.37l12.938 7.2188v-123.37l16.312 9.1406v123.37l12.938 7.2188v-122.86l16.312 9.1406v123.37l12.469 7.2188v-123.37l16.312 9.1406v122.86l12.938 7.2188 0.1875-123.24 16.312 9.1406v123.37l12.938 7.2188v-122.86l16.312 9.1406 0.046876 122.76 12.938 7.2188v-122.16l16.312 9.1406v122.86l12.469 7.2188v-122.86l16.312 9.1406v553.22l12.938 7.2188 0.09375-553.31 16.312 9.1406v553.18l12.938 7.2188v-552.52l16.312 9.1406v553.22l12.938 7.2188 0.046874-553.22 16.312 9.1406v553.22l16.312 9.8438v-553.26zm-474-165.84 274.31-159.37 275.26 159.84-154.08 88.781-120.71 69.141z"/>
  <path d="m236.39 950.16 12.234 7.2188v-114.98l-12.234-7.1719z"/>
  <path d="m264.47 966.47 12.984 7.2188v-114.23l-12.984-7.2188z"/>
  <path d="m293.76 982.78 12.469 7.9219v-114.47l-12.469-7.6875z"/>
  <path d="m408.71 1049.3 12.984 7.9219v-114.98l-12.984-7.1719z"/>
  <path d="m437.53 1066.3 12.938 7.2188v-114.23l-12.938-7.2188z"/>
  <path d="m379.92 1032.9 12.469 7.2188v-114.23l-12.469-7.2188z"/>
  <path d="m466.08 1082.6 12.469 7.2188v-114.23l-12.469-7.2188z"/>
  <path d="m322.55 999.84 12.234 7.2188v-114.52l-12.234-6.9375z"/>
  <path d="m351.37 1016.2 12.234 7.2188v-114.23l-12.234-7.2188z"/>
 </g>
</svg>
